G04 #@! TF.GenerationSoftware,KiCad,Pcbnew,(5.0.0)*
G04 #@! TF.CreationDate,2019-12-21T17:29:24+07:00*
G04 #@! TF.ProjectId,mrbot,6D72626F742E6B696361645F70636200,rev?*
G04 #@! TF.SameCoordinates,Original*
G04 #@! TF.FileFunction,Legend,Bot*
G04 #@! TF.FilePolarity,Positive*
%FSLAX46Y46*%
G04 Gerber Fmt 4.6, Leading zero omitted, Abs format (unit mm)*
G04 Created by KiCad (PCBNEW (5.0.0)) date 12/21/19 17:29:24*
%MOMM*%
%LPD*%
G01*
G04 APERTURE LIST*
%ADD10C,0.150000*%
%ADD11C,0.120000*%
G04 APERTURE END LIST*
D10*
G04 #@! TO.C,U4*
X168000000Y-29000000D02*
X168000000Y-63750000D01*
X128000000Y-29000000D02*
X128000000Y-63750000D01*
X128000000Y-53000000D02*
X130500000Y-53000000D01*
X130500000Y-53000000D02*
X130500000Y-57000000D01*
X130500000Y-57000000D02*
X128000000Y-57000000D01*
X168000000Y-53000000D02*
X165500000Y-53000000D01*
X165500000Y-53000000D02*
X165500000Y-57000000D01*
X165500000Y-57000000D02*
X168000000Y-57000000D01*
X128000000Y-40000000D02*
X130500000Y-40000000D01*
X130500000Y-40000000D02*
X130500000Y-44000000D01*
X130500000Y-44000000D02*
X128000000Y-44000000D01*
X168000000Y-40000000D02*
X165500000Y-40000000D01*
X165500000Y-40000000D02*
X165500000Y-44000000D01*
X165500000Y-44000000D02*
X168000000Y-44000000D01*
X128000000Y-63750000D02*
X168000000Y-63750000D01*
X168000000Y-29000000D02*
X128000000Y-29000000D01*
D11*
G04 #@! TO.C,C23*
X155238748Y-29210000D02*
X155761252Y-29210000D01*
X155238748Y-27790000D02*
X155761252Y-27790000D01*
G04 #@! TO.C,D2*
X162590000Y-39885000D02*
X162590000Y-37000000D01*
X164410000Y-39885000D02*
X162590000Y-39885000D01*
X164410000Y-37000000D02*
X164410000Y-39885000D01*
G04 #@! TO.C,D3*
X162540000Y-56000000D02*
X162540000Y-53115000D01*
X162540000Y-53115000D02*
X164360000Y-53115000D01*
X164360000Y-53115000D02*
X164360000Y-56000000D01*
G04 #@! TO.C,D4*
X133410000Y-37000000D02*
X133410000Y-39885000D01*
X133410000Y-39885000D02*
X131590000Y-39885000D01*
X131590000Y-39885000D02*
X131590000Y-37000000D01*
G04 #@! TO.C,D5*
X133410000Y-53115000D02*
X133410000Y-56000000D01*
X131590000Y-53115000D02*
X133410000Y-53115000D01*
X131590000Y-56000000D02*
X131590000Y-53115000D01*
G04 #@! TO.C,D6*
X125000000Y-91410000D02*
X122115000Y-91410000D01*
X122115000Y-91410000D02*
X122115000Y-89590000D01*
X122115000Y-89590000D02*
X125000000Y-89590000D01*
G04 #@! TO.C,D7*
X125037500Y-102160000D02*
X122152500Y-102160000D01*
X122152500Y-102160000D02*
X122152500Y-100340000D01*
X122152500Y-100340000D02*
X125037500Y-100340000D01*
G04 #@! TO.C,R15*
X162338748Y-59890000D02*
X162861252Y-59890000D01*
X162338748Y-61310000D02*
X162861252Y-61310000D01*
G04 #@! TO.C,R17*
X123710000Y-93488748D02*
X123710000Y-94011252D01*
X122290000Y-93488748D02*
X122290000Y-94011252D01*
G04 #@! TO.C,R18*
X122290000Y-97986252D02*
X122290000Y-97463748D01*
X123710000Y-97986252D02*
X123710000Y-97463748D01*
G04 #@! TO.C,U4*
D10*
X140361904Y-31552380D02*
X140361904Y-32361904D01*
X140314285Y-32457142D01*
X140266666Y-32504761D01*
X140171428Y-32552380D01*
X139980952Y-32552380D01*
X139885714Y-32504761D01*
X139838095Y-32457142D01*
X139790476Y-32361904D01*
X139790476Y-31552380D01*
X138885714Y-31885714D02*
X138885714Y-32552380D01*
X139123809Y-31504761D02*
X139361904Y-32219047D01*
X138742857Y-32219047D01*
G04 #@! TO.C,C23*
X156042857Y-31057142D02*
X156090476Y-31104761D01*
X156233333Y-31152380D01*
X156328571Y-31152380D01*
X156471428Y-31104761D01*
X156566666Y-31009523D01*
X156614285Y-30914285D01*
X156661904Y-30723809D01*
X156661904Y-30580952D01*
X156614285Y-30390476D01*
X156566666Y-30295238D01*
X156471428Y-30200000D01*
X156328571Y-30152380D01*
X156233333Y-30152380D01*
X156090476Y-30200000D01*
X156042857Y-30247619D01*
X155661904Y-30247619D02*
X155614285Y-30200000D01*
X155519047Y-30152380D01*
X155280952Y-30152380D01*
X155185714Y-30200000D01*
X155138095Y-30247619D01*
X155090476Y-30342857D01*
X155090476Y-30438095D01*
X155138095Y-30580952D01*
X155709523Y-31152380D01*
X155090476Y-31152380D01*
X154757142Y-30152380D02*
X154138095Y-30152380D01*
X154471428Y-30533333D01*
X154328571Y-30533333D01*
X154233333Y-30580952D01*
X154185714Y-30628571D01*
X154138095Y-30723809D01*
X154138095Y-30961904D01*
X154185714Y-31057142D01*
X154233333Y-31104761D01*
X154328571Y-31152380D01*
X154614285Y-31152380D01*
X154709523Y-31104761D01*
X154757142Y-31057142D01*
G04 #@! TO.C,D2*
X165952380Y-37261904D02*
X164952380Y-37261904D01*
X164952380Y-37500000D01*
X165000000Y-37642857D01*
X165095238Y-37738095D01*
X165190476Y-37785714D01*
X165380952Y-37833333D01*
X165523809Y-37833333D01*
X165714285Y-37785714D01*
X165809523Y-37738095D01*
X165904761Y-37642857D01*
X165952380Y-37500000D01*
X165952380Y-37261904D01*
X165047619Y-38214285D02*
X165000000Y-38261904D01*
X164952380Y-38357142D01*
X164952380Y-38595238D01*
X165000000Y-38690476D01*
X165047619Y-38738095D01*
X165142857Y-38785714D01*
X165238095Y-38785714D01*
X165380952Y-38738095D01*
X165952380Y-38166666D01*
X165952380Y-38785714D01*
G04 #@! TO.C,D3*
X162052380Y-54261904D02*
X161052380Y-54261904D01*
X161052380Y-54500000D01*
X161100000Y-54642857D01*
X161195238Y-54738095D01*
X161290476Y-54785714D01*
X161480952Y-54833333D01*
X161623809Y-54833333D01*
X161814285Y-54785714D01*
X161909523Y-54738095D01*
X162004761Y-54642857D01*
X162052380Y-54500000D01*
X162052380Y-54261904D01*
X161052380Y-55166666D02*
X161052380Y-55785714D01*
X161433333Y-55452380D01*
X161433333Y-55595238D01*
X161480952Y-55690476D01*
X161528571Y-55738095D01*
X161623809Y-55785714D01*
X161861904Y-55785714D01*
X161957142Y-55738095D01*
X162004761Y-55690476D01*
X162052380Y-55595238D01*
X162052380Y-55309523D01*
X162004761Y-55214285D01*
X161957142Y-55166666D01*
G04 #@! TO.C,D4*
X134952380Y-37561904D02*
X133952380Y-37561904D01*
X133952380Y-37800000D01*
X134000000Y-37942857D01*
X134095238Y-38038095D01*
X134190476Y-38085714D01*
X134380952Y-38133333D01*
X134523809Y-38133333D01*
X134714285Y-38085714D01*
X134809523Y-38038095D01*
X134904761Y-37942857D01*
X134952380Y-37800000D01*
X134952380Y-37561904D01*
X134285714Y-38990476D02*
X134952380Y-38990476D01*
X133904761Y-38752380D02*
X134619047Y-38514285D01*
X134619047Y-39133333D01*
G04 #@! TO.C,D5*
X134952380Y-54161904D02*
X133952380Y-54161904D01*
X133952380Y-54400000D01*
X134000000Y-54542857D01*
X134095238Y-54638095D01*
X134190476Y-54685714D01*
X134380952Y-54733333D01*
X134523809Y-54733333D01*
X134714285Y-54685714D01*
X134809523Y-54638095D01*
X134904761Y-54542857D01*
X134952380Y-54400000D01*
X134952380Y-54161904D01*
X133952380Y-55638095D02*
X133952380Y-55161904D01*
X134428571Y-55114285D01*
X134380952Y-55161904D01*
X134333333Y-55257142D01*
X134333333Y-55495238D01*
X134380952Y-55590476D01*
X134428571Y-55638095D01*
X134523809Y-55685714D01*
X134761904Y-55685714D01*
X134857142Y-55638095D01*
X134904761Y-55590476D01*
X134952380Y-55495238D01*
X134952380Y-55257142D01*
X134904761Y-55161904D01*
X134857142Y-55114285D01*
G04 #@! TO.C,D6*
X124238095Y-88952380D02*
X124238095Y-87952380D01*
X124000000Y-87952380D01*
X123857142Y-88000000D01*
X123761904Y-88095238D01*
X123714285Y-88190476D01*
X123666666Y-88380952D01*
X123666666Y-88523809D01*
X123714285Y-88714285D01*
X123761904Y-88809523D01*
X123857142Y-88904761D01*
X124000000Y-88952380D01*
X124238095Y-88952380D01*
X122809523Y-87952380D02*
X123000000Y-87952380D01*
X123095238Y-88000000D01*
X123142857Y-88047619D01*
X123238095Y-88190476D01*
X123285714Y-88380952D01*
X123285714Y-88761904D01*
X123238095Y-88857142D01*
X123190476Y-88904761D01*
X123095238Y-88952380D01*
X122904761Y-88952380D01*
X122809523Y-88904761D01*
X122761904Y-88857142D01*
X122714285Y-88761904D01*
X122714285Y-88523809D01*
X122761904Y-88428571D01*
X122809523Y-88380952D01*
X122904761Y-88333333D01*
X123095238Y-88333333D01*
X123190476Y-88380952D01*
X123238095Y-88428571D01*
X123285714Y-88523809D01*
G04 #@! TO.C,D7*
X127038095Y-103652380D02*
X127038095Y-102652380D01*
X126800000Y-102652380D01*
X126657142Y-102700000D01*
X126561904Y-102795238D01*
X126514285Y-102890476D01*
X126466666Y-103080952D01*
X126466666Y-103223809D01*
X126514285Y-103414285D01*
X126561904Y-103509523D01*
X126657142Y-103604761D01*
X126800000Y-103652380D01*
X127038095Y-103652380D01*
X126133333Y-102652380D02*
X125466666Y-102652380D01*
X125895238Y-103652380D01*
G04 #@! TO.C,R15*
X163242857Y-62852380D02*
X163576190Y-62376190D01*
X163814285Y-62852380D02*
X163814285Y-61852380D01*
X163433333Y-61852380D01*
X163338095Y-61900000D01*
X163290476Y-61947619D01*
X163242857Y-62042857D01*
X163242857Y-62185714D01*
X163290476Y-62280952D01*
X163338095Y-62328571D01*
X163433333Y-62376190D01*
X163814285Y-62376190D01*
X162290476Y-62852380D02*
X162861904Y-62852380D01*
X162576190Y-62852380D02*
X162576190Y-61852380D01*
X162671428Y-61995238D01*
X162766666Y-62090476D01*
X162861904Y-62138095D01*
X161385714Y-61852380D02*
X161861904Y-61852380D01*
X161909523Y-62328571D01*
X161861904Y-62280952D01*
X161766666Y-62233333D01*
X161528571Y-62233333D01*
X161433333Y-62280952D01*
X161385714Y-62328571D01*
X161338095Y-62423809D01*
X161338095Y-62661904D01*
X161385714Y-62757142D01*
X161433333Y-62804761D01*
X161528571Y-62852380D01*
X161766666Y-62852380D01*
X161861904Y-62804761D01*
X161909523Y-62757142D01*
G04 #@! TO.C,R17*
X125152380Y-93657142D02*
X124676190Y-93323809D01*
X125152380Y-93085714D02*
X124152380Y-93085714D01*
X124152380Y-93466666D01*
X124200000Y-93561904D01*
X124247619Y-93609523D01*
X124342857Y-93657142D01*
X124485714Y-93657142D01*
X124580952Y-93609523D01*
X124628571Y-93561904D01*
X124676190Y-93466666D01*
X124676190Y-93085714D01*
X125152380Y-94609523D02*
X125152380Y-94038095D01*
X125152380Y-94323809D02*
X124152380Y-94323809D01*
X124295238Y-94228571D01*
X124390476Y-94133333D01*
X124438095Y-94038095D01*
X124152380Y-94942857D02*
X124152380Y-95609523D01*
X125152380Y-95180952D01*
G04 #@! TO.C,R18*
X125102380Y-97082142D02*
X124626190Y-96748809D01*
X125102380Y-96510714D02*
X124102380Y-96510714D01*
X124102380Y-96891666D01*
X124150000Y-96986904D01*
X124197619Y-97034523D01*
X124292857Y-97082142D01*
X124435714Y-97082142D01*
X124530952Y-97034523D01*
X124578571Y-96986904D01*
X124626190Y-96891666D01*
X124626190Y-96510714D01*
X125102380Y-98034523D02*
X125102380Y-97463095D01*
X125102380Y-97748809D02*
X124102380Y-97748809D01*
X124245238Y-97653571D01*
X124340476Y-97558333D01*
X124388095Y-97463095D01*
X124530952Y-98605952D02*
X124483333Y-98510714D01*
X124435714Y-98463095D01*
X124340476Y-98415476D01*
X124292857Y-98415476D01*
X124197619Y-98463095D01*
X124150000Y-98510714D01*
X124102380Y-98605952D01*
X124102380Y-98796428D01*
X124150000Y-98891666D01*
X124197619Y-98939285D01*
X124292857Y-98986904D01*
X124340476Y-98986904D01*
X124435714Y-98939285D01*
X124483333Y-98891666D01*
X124530952Y-98796428D01*
X124530952Y-98605952D01*
X124578571Y-98510714D01*
X124626190Y-98463095D01*
X124721428Y-98415476D01*
X124911904Y-98415476D01*
X125007142Y-98463095D01*
X125054761Y-98510714D01*
X125102380Y-98605952D01*
X125102380Y-98796428D01*
X125054761Y-98891666D01*
X125007142Y-98939285D01*
X124911904Y-98986904D01*
X124721428Y-98986904D01*
X124626190Y-98939285D01*
X124578571Y-98891666D01*
X124530952Y-98796428D01*
G04 #@! TD*
M02*
