G04 #@! TF.GenerationSoftware,KiCad,Pcbnew,(5.0.0)*
G04 #@! TF.CreationDate,2019-12-21T17:29:24+07:00*
G04 #@! TF.ProjectId,mrbot,6D72626F742E6B696361645F70636200,rev?*
G04 #@! TF.SameCoordinates,Original*
G04 #@! TF.FileFunction,Soldermask,Bot*
G04 #@! TF.FilePolarity,Negative*
%FSLAX46Y46*%
G04 Gerber Fmt 4.6, Leading zero omitted, Abs format (unit mm)*
G04 Created by KiCad (PCBNEW (5.0.0)) date 12/21/19 17:29:24*
%MOMM*%
%LPD*%
G01*
G04 APERTURE LIST*
%ADD10C,1.900000*%
%ADD11O,2.400000X4.900000*%
%ADD12R,1.000000X3.400000*%
%ADD13C,1.400000*%
%ADD14C,0.100000*%
%ADD15C,1.550000*%
%ADD16C,1.700000*%
%ADD17R,2.100000X2.400000*%
%ADD18O,2.100000X2.400000*%
%ADD19R,2.100000X2.100000*%
%ADD20O,2.100000X2.100000*%
%ADD21C,2.500000*%
%ADD22C,2.150000*%
G04 APERTURE END LIST*
D10*
G04 #@! TO.C,U4*
X127750000Y-52000000D03*
X127750000Y-50750000D03*
X168250000Y-52250000D03*
X168250000Y-51000000D03*
X168250000Y-52750000D03*
X168250000Y-50250000D03*
X168250000Y-32750000D03*
X168250000Y-32250000D03*
X168250000Y-30250000D03*
X168250000Y-30750000D03*
X127750000Y-52750000D03*
X127750000Y-50250000D03*
X127750000Y-32000000D03*
D11*
X127750000Y-51500000D03*
X168250000Y-51500000D03*
X127750000Y-31500000D03*
X168250000Y-31500000D03*
D12*
X144000000Y-31500000D03*
X145000000Y-31500000D03*
X146000000Y-31500000D03*
X147000000Y-31500000D03*
X152000000Y-31500000D03*
X151000000Y-31500000D03*
X148000000Y-31500000D03*
X149000000Y-31500000D03*
X150000000Y-31500000D03*
D10*
X127750000Y-30250000D03*
X127750000Y-32750000D03*
X127750000Y-30750000D03*
G04 #@! TD*
D13*
G04 #@! TO.C,J1*
X153450000Y-102850000D03*
X161450000Y-102850000D03*
G04 #@! TD*
D14*
G04 #@! TO.C,C23*
G36*
X154946071Y-27601623D02*
X154978781Y-27606475D01*
X155010857Y-27614509D01*
X155041991Y-27625649D01*
X155071884Y-27639787D01*
X155100247Y-27656787D01*
X155126807Y-27676485D01*
X155151308Y-27698692D01*
X155173515Y-27723193D01*
X155193213Y-27749753D01*
X155210213Y-27778116D01*
X155224351Y-27808009D01*
X155235491Y-27839143D01*
X155243525Y-27871219D01*
X155248377Y-27903929D01*
X155250000Y-27936956D01*
X155250000Y-29063044D01*
X155248377Y-29096071D01*
X155243525Y-29128781D01*
X155235491Y-29160857D01*
X155224351Y-29191991D01*
X155210213Y-29221884D01*
X155193213Y-29250247D01*
X155173515Y-29276807D01*
X155151308Y-29301308D01*
X155126807Y-29323515D01*
X155100247Y-29343213D01*
X155071884Y-29360213D01*
X155041991Y-29374351D01*
X155010857Y-29385491D01*
X154978781Y-29393525D01*
X154946071Y-29398377D01*
X154913044Y-29400000D01*
X154036956Y-29400000D01*
X154003929Y-29398377D01*
X153971219Y-29393525D01*
X153939143Y-29385491D01*
X153908009Y-29374351D01*
X153878116Y-29360213D01*
X153849753Y-29343213D01*
X153823193Y-29323515D01*
X153798692Y-29301308D01*
X153776485Y-29276807D01*
X153756787Y-29250247D01*
X153739787Y-29221884D01*
X153725649Y-29191991D01*
X153714509Y-29160857D01*
X153706475Y-29128781D01*
X153701623Y-29096071D01*
X153700000Y-29063044D01*
X153700000Y-27936956D01*
X153701623Y-27903929D01*
X153706475Y-27871219D01*
X153714509Y-27839143D01*
X153725649Y-27808009D01*
X153739787Y-27778116D01*
X153756787Y-27749753D01*
X153776485Y-27723193D01*
X153798692Y-27698692D01*
X153823193Y-27676485D01*
X153849753Y-27656787D01*
X153878116Y-27639787D01*
X153908009Y-27625649D01*
X153939143Y-27614509D01*
X153971219Y-27606475D01*
X154003929Y-27601623D01*
X154036956Y-27600000D01*
X154913044Y-27600000D01*
X154946071Y-27601623D01*
X154946071Y-27601623D01*
G37*
D15*
X154475000Y-28500000D03*
D14*
G36*
X156996071Y-27601623D02*
X157028781Y-27606475D01*
X157060857Y-27614509D01*
X157091991Y-27625649D01*
X157121884Y-27639787D01*
X157150247Y-27656787D01*
X157176807Y-27676485D01*
X157201308Y-27698692D01*
X157223515Y-27723193D01*
X157243213Y-27749753D01*
X157260213Y-27778116D01*
X157274351Y-27808009D01*
X157285491Y-27839143D01*
X157293525Y-27871219D01*
X157298377Y-27903929D01*
X157300000Y-27936956D01*
X157300000Y-29063044D01*
X157298377Y-29096071D01*
X157293525Y-29128781D01*
X157285491Y-29160857D01*
X157274351Y-29191991D01*
X157260213Y-29221884D01*
X157243213Y-29250247D01*
X157223515Y-29276807D01*
X157201308Y-29301308D01*
X157176807Y-29323515D01*
X157150247Y-29343213D01*
X157121884Y-29360213D01*
X157091991Y-29374351D01*
X157060857Y-29385491D01*
X157028781Y-29393525D01*
X156996071Y-29398377D01*
X156963044Y-29400000D01*
X156086956Y-29400000D01*
X156053929Y-29398377D01*
X156021219Y-29393525D01*
X155989143Y-29385491D01*
X155958009Y-29374351D01*
X155928116Y-29360213D01*
X155899753Y-29343213D01*
X155873193Y-29323515D01*
X155848692Y-29301308D01*
X155826485Y-29276807D01*
X155806787Y-29250247D01*
X155789787Y-29221884D01*
X155775649Y-29191991D01*
X155764509Y-29160857D01*
X155756475Y-29128781D01*
X155751623Y-29096071D01*
X155750000Y-29063044D01*
X155750000Y-27936956D01*
X155751623Y-27903929D01*
X155756475Y-27871219D01*
X155764509Y-27839143D01*
X155775649Y-27808009D01*
X155789787Y-27778116D01*
X155806787Y-27749753D01*
X155826485Y-27723193D01*
X155848692Y-27698692D01*
X155873193Y-27676485D01*
X155899753Y-27656787D01*
X155928116Y-27639787D01*
X155958009Y-27625649D01*
X155989143Y-27614509D01*
X156021219Y-27606475D01*
X156053929Y-27601623D01*
X156086956Y-27600000D01*
X156963044Y-27600000D01*
X156996071Y-27601623D01*
X156996071Y-27601623D01*
G37*
D15*
X156525000Y-28500000D03*
G04 #@! TD*
D14*
G04 #@! TO.C,D2*
G36*
X164055121Y-36176574D02*
X164086857Y-36181282D01*
X164117978Y-36189077D01*
X164148185Y-36199886D01*
X164177187Y-36213603D01*
X164204706Y-36230096D01*
X164230475Y-36249208D01*
X164254246Y-36270754D01*
X164275792Y-36294525D01*
X164294904Y-36320294D01*
X164311397Y-36347813D01*
X164325114Y-36376815D01*
X164335923Y-36407022D01*
X164343718Y-36438143D01*
X164348426Y-36469879D01*
X164350000Y-36501923D01*
X164350000Y-37573077D01*
X164348426Y-37605121D01*
X164343718Y-37636857D01*
X164335923Y-37667978D01*
X164325114Y-37698185D01*
X164311397Y-37727187D01*
X164294904Y-37754706D01*
X164275792Y-37780475D01*
X164254246Y-37804246D01*
X164230475Y-37825792D01*
X164204706Y-37844904D01*
X164177187Y-37861397D01*
X164148185Y-37875114D01*
X164117978Y-37885923D01*
X164086857Y-37893718D01*
X164055121Y-37898426D01*
X164023077Y-37900000D01*
X162976923Y-37900000D01*
X162944879Y-37898426D01*
X162913143Y-37893718D01*
X162882022Y-37885923D01*
X162851815Y-37875114D01*
X162822813Y-37861397D01*
X162795294Y-37844904D01*
X162769525Y-37825792D01*
X162745754Y-37804246D01*
X162724208Y-37780475D01*
X162705096Y-37754706D01*
X162688603Y-37727187D01*
X162674886Y-37698185D01*
X162664077Y-37667978D01*
X162656282Y-37636857D01*
X162651574Y-37605121D01*
X162650000Y-37573077D01*
X162650000Y-36501923D01*
X162651574Y-36469879D01*
X162656282Y-36438143D01*
X162664077Y-36407022D01*
X162674886Y-36376815D01*
X162688603Y-36347813D01*
X162705096Y-36320294D01*
X162724208Y-36294525D01*
X162745754Y-36270754D01*
X162769525Y-36249208D01*
X162795294Y-36230096D01*
X162822813Y-36213603D01*
X162851815Y-36199886D01*
X162882022Y-36189077D01*
X162913143Y-36181282D01*
X162944879Y-36176574D01*
X162976923Y-36175000D01*
X164023077Y-36175000D01*
X164055121Y-36176574D01*
X164055121Y-36176574D01*
G37*
D16*
X163500000Y-37037500D03*
D14*
G36*
X164055121Y-38101574D02*
X164086857Y-38106282D01*
X164117978Y-38114077D01*
X164148185Y-38124886D01*
X164177187Y-38138603D01*
X164204706Y-38155096D01*
X164230475Y-38174208D01*
X164254246Y-38195754D01*
X164275792Y-38219525D01*
X164294904Y-38245294D01*
X164311397Y-38272813D01*
X164325114Y-38301815D01*
X164335923Y-38332022D01*
X164343718Y-38363143D01*
X164348426Y-38394879D01*
X164350000Y-38426923D01*
X164350000Y-39498077D01*
X164348426Y-39530121D01*
X164343718Y-39561857D01*
X164335923Y-39592978D01*
X164325114Y-39623185D01*
X164311397Y-39652187D01*
X164294904Y-39679706D01*
X164275792Y-39705475D01*
X164254246Y-39729246D01*
X164230475Y-39750792D01*
X164204706Y-39769904D01*
X164177187Y-39786397D01*
X164148185Y-39800114D01*
X164117978Y-39810923D01*
X164086857Y-39818718D01*
X164055121Y-39823426D01*
X164023077Y-39825000D01*
X162976923Y-39825000D01*
X162944879Y-39823426D01*
X162913143Y-39818718D01*
X162882022Y-39810923D01*
X162851815Y-39800114D01*
X162822813Y-39786397D01*
X162795294Y-39769904D01*
X162769525Y-39750792D01*
X162745754Y-39729246D01*
X162724208Y-39705475D01*
X162705096Y-39679706D01*
X162688603Y-39652187D01*
X162674886Y-39623185D01*
X162664077Y-39592978D01*
X162656282Y-39561857D01*
X162651574Y-39530121D01*
X162650000Y-39498077D01*
X162650000Y-38426923D01*
X162651574Y-38394879D01*
X162656282Y-38363143D01*
X162664077Y-38332022D01*
X162674886Y-38301815D01*
X162688603Y-38272813D01*
X162705096Y-38245294D01*
X162724208Y-38219525D01*
X162745754Y-38195754D01*
X162769525Y-38174208D01*
X162795294Y-38155096D01*
X162822813Y-38138603D01*
X162851815Y-38124886D01*
X162882022Y-38114077D01*
X162913143Y-38106282D01*
X162944879Y-38101574D01*
X162976923Y-38100000D01*
X164023077Y-38100000D01*
X164055121Y-38101574D01*
X164055121Y-38101574D01*
G37*
D16*
X163500000Y-38962500D03*
G04 #@! TD*
D14*
G04 #@! TO.C,D3*
G36*
X164005121Y-53176574D02*
X164036857Y-53181282D01*
X164067978Y-53189077D01*
X164098185Y-53199886D01*
X164127187Y-53213603D01*
X164154706Y-53230096D01*
X164180475Y-53249208D01*
X164204246Y-53270754D01*
X164225792Y-53294525D01*
X164244904Y-53320294D01*
X164261397Y-53347813D01*
X164275114Y-53376815D01*
X164285923Y-53407022D01*
X164293718Y-53438143D01*
X164298426Y-53469879D01*
X164300000Y-53501923D01*
X164300000Y-54573077D01*
X164298426Y-54605121D01*
X164293718Y-54636857D01*
X164285923Y-54667978D01*
X164275114Y-54698185D01*
X164261397Y-54727187D01*
X164244904Y-54754706D01*
X164225792Y-54780475D01*
X164204246Y-54804246D01*
X164180475Y-54825792D01*
X164154706Y-54844904D01*
X164127187Y-54861397D01*
X164098185Y-54875114D01*
X164067978Y-54885923D01*
X164036857Y-54893718D01*
X164005121Y-54898426D01*
X163973077Y-54900000D01*
X162926923Y-54900000D01*
X162894879Y-54898426D01*
X162863143Y-54893718D01*
X162832022Y-54885923D01*
X162801815Y-54875114D01*
X162772813Y-54861397D01*
X162745294Y-54844904D01*
X162719525Y-54825792D01*
X162695754Y-54804246D01*
X162674208Y-54780475D01*
X162655096Y-54754706D01*
X162638603Y-54727187D01*
X162624886Y-54698185D01*
X162614077Y-54667978D01*
X162606282Y-54636857D01*
X162601574Y-54605121D01*
X162600000Y-54573077D01*
X162600000Y-53501923D01*
X162601574Y-53469879D01*
X162606282Y-53438143D01*
X162614077Y-53407022D01*
X162624886Y-53376815D01*
X162638603Y-53347813D01*
X162655096Y-53320294D01*
X162674208Y-53294525D01*
X162695754Y-53270754D01*
X162719525Y-53249208D01*
X162745294Y-53230096D01*
X162772813Y-53213603D01*
X162801815Y-53199886D01*
X162832022Y-53189077D01*
X162863143Y-53181282D01*
X162894879Y-53176574D01*
X162926923Y-53175000D01*
X163973077Y-53175000D01*
X164005121Y-53176574D01*
X164005121Y-53176574D01*
G37*
D16*
X163450000Y-54037500D03*
D14*
G36*
X164005121Y-55101574D02*
X164036857Y-55106282D01*
X164067978Y-55114077D01*
X164098185Y-55124886D01*
X164127187Y-55138603D01*
X164154706Y-55155096D01*
X164180475Y-55174208D01*
X164204246Y-55195754D01*
X164225792Y-55219525D01*
X164244904Y-55245294D01*
X164261397Y-55272813D01*
X164275114Y-55301815D01*
X164285923Y-55332022D01*
X164293718Y-55363143D01*
X164298426Y-55394879D01*
X164300000Y-55426923D01*
X164300000Y-56498077D01*
X164298426Y-56530121D01*
X164293718Y-56561857D01*
X164285923Y-56592978D01*
X164275114Y-56623185D01*
X164261397Y-56652187D01*
X164244904Y-56679706D01*
X164225792Y-56705475D01*
X164204246Y-56729246D01*
X164180475Y-56750792D01*
X164154706Y-56769904D01*
X164127187Y-56786397D01*
X164098185Y-56800114D01*
X164067978Y-56810923D01*
X164036857Y-56818718D01*
X164005121Y-56823426D01*
X163973077Y-56825000D01*
X162926923Y-56825000D01*
X162894879Y-56823426D01*
X162863143Y-56818718D01*
X162832022Y-56810923D01*
X162801815Y-56800114D01*
X162772813Y-56786397D01*
X162745294Y-56769904D01*
X162719525Y-56750792D01*
X162695754Y-56729246D01*
X162674208Y-56705475D01*
X162655096Y-56679706D01*
X162638603Y-56652187D01*
X162624886Y-56623185D01*
X162614077Y-56592978D01*
X162606282Y-56561857D01*
X162601574Y-56530121D01*
X162600000Y-56498077D01*
X162600000Y-55426923D01*
X162601574Y-55394879D01*
X162606282Y-55363143D01*
X162614077Y-55332022D01*
X162624886Y-55301815D01*
X162638603Y-55272813D01*
X162655096Y-55245294D01*
X162674208Y-55219525D01*
X162695754Y-55195754D01*
X162719525Y-55174208D01*
X162745294Y-55155096D01*
X162772813Y-55138603D01*
X162801815Y-55124886D01*
X162832022Y-55114077D01*
X162863143Y-55106282D01*
X162894879Y-55101574D01*
X162926923Y-55100000D01*
X163973077Y-55100000D01*
X164005121Y-55101574D01*
X164005121Y-55101574D01*
G37*
D16*
X163450000Y-55962500D03*
G04 #@! TD*
D14*
G04 #@! TO.C,D4*
G36*
X133055121Y-38101574D02*
X133086857Y-38106282D01*
X133117978Y-38114077D01*
X133148185Y-38124886D01*
X133177187Y-38138603D01*
X133204706Y-38155096D01*
X133230475Y-38174208D01*
X133254246Y-38195754D01*
X133275792Y-38219525D01*
X133294904Y-38245294D01*
X133311397Y-38272813D01*
X133325114Y-38301815D01*
X133335923Y-38332022D01*
X133343718Y-38363143D01*
X133348426Y-38394879D01*
X133350000Y-38426923D01*
X133350000Y-39498077D01*
X133348426Y-39530121D01*
X133343718Y-39561857D01*
X133335923Y-39592978D01*
X133325114Y-39623185D01*
X133311397Y-39652187D01*
X133294904Y-39679706D01*
X133275792Y-39705475D01*
X133254246Y-39729246D01*
X133230475Y-39750792D01*
X133204706Y-39769904D01*
X133177187Y-39786397D01*
X133148185Y-39800114D01*
X133117978Y-39810923D01*
X133086857Y-39818718D01*
X133055121Y-39823426D01*
X133023077Y-39825000D01*
X131976923Y-39825000D01*
X131944879Y-39823426D01*
X131913143Y-39818718D01*
X131882022Y-39810923D01*
X131851815Y-39800114D01*
X131822813Y-39786397D01*
X131795294Y-39769904D01*
X131769525Y-39750792D01*
X131745754Y-39729246D01*
X131724208Y-39705475D01*
X131705096Y-39679706D01*
X131688603Y-39652187D01*
X131674886Y-39623185D01*
X131664077Y-39592978D01*
X131656282Y-39561857D01*
X131651574Y-39530121D01*
X131650000Y-39498077D01*
X131650000Y-38426923D01*
X131651574Y-38394879D01*
X131656282Y-38363143D01*
X131664077Y-38332022D01*
X131674886Y-38301815D01*
X131688603Y-38272813D01*
X131705096Y-38245294D01*
X131724208Y-38219525D01*
X131745754Y-38195754D01*
X131769525Y-38174208D01*
X131795294Y-38155096D01*
X131822813Y-38138603D01*
X131851815Y-38124886D01*
X131882022Y-38114077D01*
X131913143Y-38106282D01*
X131944879Y-38101574D01*
X131976923Y-38100000D01*
X133023077Y-38100000D01*
X133055121Y-38101574D01*
X133055121Y-38101574D01*
G37*
D16*
X132500000Y-38962500D03*
D14*
G36*
X133055121Y-36176574D02*
X133086857Y-36181282D01*
X133117978Y-36189077D01*
X133148185Y-36199886D01*
X133177187Y-36213603D01*
X133204706Y-36230096D01*
X133230475Y-36249208D01*
X133254246Y-36270754D01*
X133275792Y-36294525D01*
X133294904Y-36320294D01*
X133311397Y-36347813D01*
X133325114Y-36376815D01*
X133335923Y-36407022D01*
X133343718Y-36438143D01*
X133348426Y-36469879D01*
X133350000Y-36501923D01*
X133350000Y-37573077D01*
X133348426Y-37605121D01*
X133343718Y-37636857D01*
X133335923Y-37667978D01*
X133325114Y-37698185D01*
X133311397Y-37727187D01*
X133294904Y-37754706D01*
X133275792Y-37780475D01*
X133254246Y-37804246D01*
X133230475Y-37825792D01*
X133204706Y-37844904D01*
X133177187Y-37861397D01*
X133148185Y-37875114D01*
X133117978Y-37885923D01*
X133086857Y-37893718D01*
X133055121Y-37898426D01*
X133023077Y-37900000D01*
X131976923Y-37900000D01*
X131944879Y-37898426D01*
X131913143Y-37893718D01*
X131882022Y-37885923D01*
X131851815Y-37875114D01*
X131822813Y-37861397D01*
X131795294Y-37844904D01*
X131769525Y-37825792D01*
X131745754Y-37804246D01*
X131724208Y-37780475D01*
X131705096Y-37754706D01*
X131688603Y-37727187D01*
X131674886Y-37698185D01*
X131664077Y-37667978D01*
X131656282Y-37636857D01*
X131651574Y-37605121D01*
X131650000Y-37573077D01*
X131650000Y-36501923D01*
X131651574Y-36469879D01*
X131656282Y-36438143D01*
X131664077Y-36407022D01*
X131674886Y-36376815D01*
X131688603Y-36347813D01*
X131705096Y-36320294D01*
X131724208Y-36294525D01*
X131745754Y-36270754D01*
X131769525Y-36249208D01*
X131795294Y-36230096D01*
X131822813Y-36213603D01*
X131851815Y-36199886D01*
X131882022Y-36189077D01*
X131913143Y-36181282D01*
X131944879Y-36176574D01*
X131976923Y-36175000D01*
X133023077Y-36175000D01*
X133055121Y-36176574D01*
X133055121Y-36176574D01*
G37*
D16*
X132500000Y-37037500D03*
G04 #@! TD*
D14*
G04 #@! TO.C,D5*
G36*
X133055121Y-55101574D02*
X133086857Y-55106282D01*
X133117978Y-55114077D01*
X133148185Y-55124886D01*
X133177187Y-55138603D01*
X133204706Y-55155096D01*
X133230475Y-55174208D01*
X133254246Y-55195754D01*
X133275792Y-55219525D01*
X133294904Y-55245294D01*
X133311397Y-55272813D01*
X133325114Y-55301815D01*
X133335923Y-55332022D01*
X133343718Y-55363143D01*
X133348426Y-55394879D01*
X133350000Y-55426923D01*
X133350000Y-56498077D01*
X133348426Y-56530121D01*
X133343718Y-56561857D01*
X133335923Y-56592978D01*
X133325114Y-56623185D01*
X133311397Y-56652187D01*
X133294904Y-56679706D01*
X133275792Y-56705475D01*
X133254246Y-56729246D01*
X133230475Y-56750792D01*
X133204706Y-56769904D01*
X133177187Y-56786397D01*
X133148185Y-56800114D01*
X133117978Y-56810923D01*
X133086857Y-56818718D01*
X133055121Y-56823426D01*
X133023077Y-56825000D01*
X131976923Y-56825000D01*
X131944879Y-56823426D01*
X131913143Y-56818718D01*
X131882022Y-56810923D01*
X131851815Y-56800114D01*
X131822813Y-56786397D01*
X131795294Y-56769904D01*
X131769525Y-56750792D01*
X131745754Y-56729246D01*
X131724208Y-56705475D01*
X131705096Y-56679706D01*
X131688603Y-56652187D01*
X131674886Y-56623185D01*
X131664077Y-56592978D01*
X131656282Y-56561857D01*
X131651574Y-56530121D01*
X131650000Y-56498077D01*
X131650000Y-55426923D01*
X131651574Y-55394879D01*
X131656282Y-55363143D01*
X131664077Y-55332022D01*
X131674886Y-55301815D01*
X131688603Y-55272813D01*
X131705096Y-55245294D01*
X131724208Y-55219525D01*
X131745754Y-55195754D01*
X131769525Y-55174208D01*
X131795294Y-55155096D01*
X131822813Y-55138603D01*
X131851815Y-55124886D01*
X131882022Y-55114077D01*
X131913143Y-55106282D01*
X131944879Y-55101574D01*
X131976923Y-55100000D01*
X133023077Y-55100000D01*
X133055121Y-55101574D01*
X133055121Y-55101574D01*
G37*
D16*
X132500000Y-55962500D03*
D14*
G36*
X133055121Y-53176574D02*
X133086857Y-53181282D01*
X133117978Y-53189077D01*
X133148185Y-53199886D01*
X133177187Y-53213603D01*
X133204706Y-53230096D01*
X133230475Y-53249208D01*
X133254246Y-53270754D01*
X133275792Y-53294525D01*
X133294904Y-53320294D01*
X133311397Y-53347813D01*
X133325114Y-53376815D01*
X133335923Y-53407022D01*
X133343718Y-53438143D01*
X133348426Y-53469879D01*
X133350000Y-53501923D01*
X133350000Y-54573077D01*
X133348426Y-54605121D01*
X133343718Y-54636857D01*
X133335923Y-54667978D01*
X133325114Y-54698185D01*
X133311397Y-54727187D01*
X133294904Y-54754706D01*
X133275792Y-54780475D01*
X133254246Y-54804246D01*
X133230475Y-54825792D01*
X133204706Y-54844904D01*
X133177187Y-54861397D01*
X133148185Y-54875114D01*
X133117978Y-54885923D01*
X133086857Y-54893718D01*
X133055121Y-54898426D01*
X133023077Y-54900000D01*
X131976923Y-54900000D01*
X131944879Y-54898426D01*
X131913143Y-54893718D01*
X131882022Y-54885923D01*
X131851815Y-54875114D01*
X131822813Y-54861397D01*
X131795294Y-54844904D01*
X131769525Y-54825792D01*
X131745754Y-54804246D01*
X131724208Y-54780475D01*
X131705096Y-54754706D01*
X131688603Y-54727187D01*
X131674886Y-54698185D01*
X131664077Y-54667978D01*
X131656282Y-54636857D01*
X131651574Y-54605121D01*
X131650000Y-54573077D01*
X131650000Y-53501923D01*
X131651574Y-53469879D01*
X131656282Y-53438143D01*
X131664077Y-53407022D01*
X131674886Y-53376815D01*
X131688603Y-53347813D01*
X131705096Y-53320294D01*
X131724208Y-53294525D01*
X131745754Y-53270754D01*
X131769525Y-53249208D01*
X131795294Y-53230096D01*
X131822813Y-53213603D01*
X131851815Y-53199886D01*
X131882022Y-53189077D01*
X131913143Y-53181282D01*
X131944879Y-53176574D01*
X131976923Y-53175000D01*
X133023077Y-53175000D01*
X133055121Y-53176574D01*
X133055121Y-53176574D01*
G37*
D16*
X132500000Y-54037500D03*
G04 #@! TD*
D14*
G04 #@! TO.C,D6*
G36*
X123605121Y-89651574D02*
X123636857Y-89656282D01*
X123667978Y-89664077D01*
X123698185Y-89674886D01*
X123727187Y-89688603D01*
X123754706Y-89705096D01*
X123780475Y-89724208D01*
X123804246Y-89745754D01*
X123825792Y-89769525D01*
X123844904Y-89795294D01*
X123861397Y-89822813D01*
X123875114Y-89851815D01*
X123885923Y-89882022D01*
X123893718Y-89913143D01*
X123898426Y-89944879D01*
X123900000Y-89976923D01*
X123900000Y-91023077D01*
X123898426Y-91055121D01*
X123893718Y-91086857D01*
X123885923Y-91117978D01*
X123875114Y-91148185D01*
X123861397Y-91177187D01*
X123844904Y-91204706D01*
X123825792Y-91230475D01*
X123804246Y-91254246D01*
X123780475Y-91275792D01*
X123754706Y-91294904D01*
X123727187Y-91311397D01*
X123698185Y-91325114D01*
X123667978Y-91335923D01*
X123636857Y-91343718D01*
X123605121Y-91348426D01*
X123573077Y-91350000D01*
X122501923Y-91350000D01*
X122469879Y-91348426D01*
X122438143Y-91343718D01*
X122407022Y-91335923D01*
X122376815Y-91325114D01*
X122347813Y-91311397D01*
X122320294Y-91294904D01*
X122294525Y-91275792D01*
X122270754Y-91254246D01*
X122249208Y-91230475D01*
X122230096Y-91204706D01*
X122213603Y-91177187D01*
X122199886Y-91148185D01*
X122189077Y-91117978D01*
X122181282Y-91086857D01*
X122176574Y-91055121D01*
X122175000Y-91023077D01*
X122175000Y-89976923D01*
X122176574Y-89944879D01*
X122181282Y-89913143D01*
X122189077Y-89882022D01*
X122199886Y-89851815D01*
X122213603Y-89822813D01*
X122230096Y-89795294D01*
X122249208Y-89769525D01*
X122270754Y-89745754D01*
X122294525Y-89724208D01*
X122320294Y-89705096D01*
X122347813Y-89688603D01*
X122376815Y-89674886D01*
X122407022Y-89664077D01*
X122438143Y-89656282D01*
X122469879Y-89651574D01*
X122501923Y-89650000D01*
X123573077Y-89650000D01*
X123605121Y-89651574D01*
X123605121Y-89651574D01*
G37*
D16*
X123037500Y-90500000D03*
D14*
G36*
X125530121Y-89651574D02*
X125561857Y-89656282D01*
X125592978Y-89664077D01*
X125623185Y-89674886D01*
X125652187Y-89688603D01*
X125679706Y-89705096D01*
X125705475Y-89724208D01*
X125729246Y-89745754D01*
X125750792Y-89769525D01*
X125769904Y-89795294D01*
X125786397Y-89822813D01*
X125800114Y-89851815D01*
X125810923Y-89882022D01*
X125818718Y-89913143D01*
X125823426Y-89944879D01*
X125825000Y-89976923D01*
X125825000Y-91023077D01*
X125823426Y-91055121D01*
X125818718Y-91086857D01*
X125810923Y-91117978D01*
X125800114Y-91148185D01*
X125786397Y-91177187D01*
X125769904Y-91204706D01*
X125750792Y-91230475D01*
X125729246Y-91254246D01*
X125705475Y-91275792D01*
X125679706Y-91294904D01*
X125652187Y-91311397D01*
X125623185Y-91325114D01*
X125592978Y-91335923D01*
X125561857Y-91343718D01*
X125530121Y-91348426D01*
X125498077Y-91350000D01*
X124426923Y-91350000D01*
X124394879Y-91348426D01*
X124363143Y-91343718D01*
X124332022Y-91335923D01*
X124301815Y-91325114D01*
X124272813Y-91311397D01*
X124245294Y-91294904D01*
X124219525Y-91275792D01*
X124195754Y-91254246D01*
X124174208Y-91230475D01*
X124155096Y-91204706D01*
X124138603Y-91177187D01*
X124124886Y-91148185D01*
X124114077Y-91117978D01*
X124106282Y-91086857D01*
X124101574Y-91055121D01*
X124100000Y-91023077D01*
X124100000Y-89976923D01*
X124101574Y-89944879D01*
X124106282Y-89913143D01*
X124114077Y-89882022D01*
X124124886Y-89851815D01*
X124138603Y-89822813D01*
X124155096Y-89795294D01*
X124174208Y-89769525D01*
X124195754Y-89745754D01*
X124219525Y-89724208D01*
X124245294Y-89705096D01*
X124272813Y-89688603D01*
X124301815Y-89674886D01*
X124332022Y-89664077D01*
X124363143Y-89656282D01*
X124394879Y-89651574D01*
X124426923Y-89650000D01*
X125498077Y-89650000D01*
X125530121Y-89651574D01*
X125530121Y-89651574D01*
G37*
D16*
X124962500Y-90500000D03*
G04 #@! TD*
D14*
G04 #@! TO.C,D7*
G36*
X123642621Y-100401574D02*
X123674357Y-100406282D01*
X123705478Y-100414077D01*
X123735685Y-100424886D01*
X123764687Y-100438603D01*
X123792206Y-100455096D01*
X123817975Y-100474208D01*
X123841746Y-100495754D01*
X123863292Y-100519525D01*
X123882404Y-100545294D01*
X123898897Y-100572813D01*
X123912614Y-100601815D01*
X123923423Y-100632022D01*
X123931218Y-100663143D01*
X123935926Y-100694879D01*
X123937500Y-100726923D01*
X123937500Y-101773077D01*
X123935926Y-101805121D01*
X123931218Y-101836857D01*
X123923423Y-101867978D01*
X123912614Y-101898185D01*
X123898897Y-101927187D01*
X123882404Y-101954706D01*
X123863292Y-101980475D01*
X123841746Y-102004246D01*
X123817975Y-102025792D01*
X123792206Y-102044904D01*
X123764687Y-102061397D01*
X123735685Y-102075114D01*
X123705478Y-102085923D01*
X123674357Y-102093718D01*
X123642621Y-102098426D01*
X123610577Y-102100000D01*
X122539423Y-102100000D01*
X122507379Y-102098426D01*
X122475643Y-102093718D01*
X122444522Y-102085923D01*
X122414315Y-102075114D01*
X122385313Y-102061397D01*
X122357794Y-102044904D01*
X122332025Y-102025792D01*
X122308254Y-102004246D01*
X122286708Y-101980475D01*
X122267596Y-101954706D01*
X122251103Y-101927187D01*
X122237386Y-101898185D01*
X122226577Y-101867978D01*
X122218782Y-101836857D01*
X122214074Y-101805121D01*
X122212500Y-101773077D01*
X122212500Y-100726923D01*
X122214074Y-100694879D01*
X122218782Y-100663143D01*
X122226577Y-100632022D01*
X122237386Y-100601815D01*
X122251103Y-100572813D01*
X122267596Y-100545294D01*
X122286708Y-100519525D01*
X122308254Y-100495754D01*
X122332025Y-100474208D01*
X122357794Y-100455096D01*
X122385313Y-100438603D01*
X122414315Y-100424886D01*
X122444522Y-100414077D01*
X122475643Y-100406282D01*
X122507379Y-100401574D01*
X122539423Y-100400000D01*
X123610577Y-100400000D01*
X123642621Y-100401574D01*
X123642621Y-100401574D01*
G37*
D16*
X123075000Y-101250000D03*
D14*
G36*
X125567621Y-100401574D02*
X125599357Y-100406282D01*
X125630478Y-100414077D01*
X125660685Y-100424886D01*
X125689687Y-100438603D01*
X125717206Y-100455096D01*
X125742975Y-100474208D01*
X125766746Y-100495754D01*
X125788292Y-100519525D01*
X125807404Y-100545294D01*
X125823897Y-100572813D01*
X125837614Y-100601815D01*
X125848423Y-100632022D01*
X125856218Y-100663143D01*
X125860926Y-100694879D01*
X125862500Y-100726923D01*
X125862500Y-101773077D01*
X125860926Y-101805121D01*
X125856218Y-101836857D01*
X125848423Y-101867978D01*
X125837614Y-101898185D01*
X125823897Y-101927187D01*
X125807404Y-101954706D01*
X125788292Y-101980475D01*
X125766746Y-102004246D01*
X125742975Y-102025792D01*
X125717206Y-102044904D01*
X125689687Y-102061397D01*
X125660685Y-102075114D01*
X125630478Y-102085923D01*
X125599357Y-102093718D01*
X125567621Y-102098426D01*
X125535577Y-102100000D01*
X124464423Y-102100000D01*
X124432379Y-102098426D01*
X124400643Y-102093718D01*
X124369522Y-102085923D01*
X124339315Y-102075114D01*
X124310313Y-102061397D01*
X124282794Y-102044904D01*
X124257025Y-102025792D01*
X124233254Y-102004246D01*
X124211708Y-101980475D01*
X124192596Y-101954706D01*
X124176103Y-101927187D01*
X124162386Y-101898185D01*
X124151577Y-101867978D01*
X124143782Y-101836857D01*
X124139074Y-101805121D01*
X124137500Y-101773077D01*
X124137500Y-100726923D01*
X124139074Y-100694879D01*
X124143782Y-100663143D01*
X124151577Y-100632022D01*
X124162386Y-100601815D01*
X124176103Y-100572813D01*
X124192596Y-100545294D01*
X124211708Y-100519525D01*
X124233254Y-100495754D01*
X124257025Y-100474208D01*
X124282794Y-100455096D01*
X124310313Y-100438603D01*
X124339315Y-100424886D01*
X124369522Y-100414077D01*
X124400643Y-100406282D01*
X124432379Y-100401574D01*
X124464423Y-100400000D01*
X125535577Y-100400000D01*
X125567621Y-100401574D01*
X125567621Y-100401574D01*
G37*
D16*
X125000000Y-101250000D03*
G04 #@! TD*
D17*
G04 #@! TO.C,J2*
X146500000Y-105000000D03*
D18*
X144000000Y-105000000D03*
G04 #@! TD*
D13*
G04 #@! TO.C,J3*
X126000000Y-93800000D03*
X126000000Y-98200000D03*
G04 #@! TD*
D17*
G04 #@! TO.C,J4*
X130000000Y-105000000D03*
D18*
X127500000Y-105000000D03*
G04 #@! TD*
D19*
G04 #@! TO.C,J5*
X166630000Y-66750000D03*
D20*
X164090000Y-66750000D03*
X161550000Y-66750000D03*
X159010000Y-66750000D03*
G04 #@! TD*
G04 #@! TO.C,J6*
X150390000Y-84950000D03*
X147850000Y-84950000D03*
X145310000Y-84950000D03*
D19*
X142770000Y-84950000D03*
G04 #@! TD*
D14*
G04 #@! TO.C,R15*
G36*
X164096071Y-59701623D02*
X164128781Y-59706475D01*
X164160857Y-59714509D01*
X164191991Y-59725649D01*
X164221884Y-59739787D01*
X164250247Y-59756787D01*
X164276807Y-59776485D01*
X164301308Y-59798692D01*
X164323515Y-59823193D01*
X164343213Y-59849753D01*
X164360213Y-59878116D01*
X164374351Y-59908009D01*
X164385491Y-59939143D01*
X164393525Y-59971219D01*
X164398377Y-60003929D01*
X164400000Y-60036956D01*
X164400000Y-61163044D01*
X164398377Y-61196071D01*
X164393525Y-61228781D01*
X164385491Y-61260857D01*
X164374351Y-61291991D01*
X164360213Y-61321884D01*
X164343213Y-61350247D01*
X164323515Y-61376807D01*
X164301308Y-61401308D01*
X164276807Y-61423515D01*
X164250247Y-61443213D01*
X164221884Y-61460213D01*
X164191991Y-61474351D01*
X164160857Y-61485491D01*
X164128781Y-61493525D01*
X164096071Y-61498377D01*
X164063044Y-61500000D01*
X163186956Y-61500000D01*
X163153929Y-61498377D01*
X163121219Y-61493525D01*
X163089143Y-61485491D01*
X163058009Y-61474351D01*
X163028116Y-61460213D01*
X162999753Y-61443213D01*
X162973193Y-61423515D01*
X162948692Y-61401308D01*
X162926485Y-61376807D01*
X162906787Y-61350247D01*
X162889787Y-61321884D01*
X162875649Y-61291991D01*
X162864509Y-61260857D01*
X162856475Y-61228781D01*
X162851623Y-61196071D01*
X162850000Y-61163044D01*
X162850000Y-60036956D01*
X162851623Y-60003929D01*
X162856475Y-59971219D01*
X162864509Y-59939143D01*
X162875649Y-59908009D01*
X162889787Y-59878116D01*
X162906787Y-59849753D01*
X162926485Y-59823193D01*
X162948692Y-59798692D01*
X162973193Y-59776485D01*
X162999753Y-59756787D01*
X163028116Y-59739787D01*
X163058009Y-59725649D01*
X163089143Y-59714509D01*
X163121219Y-59706475D01*
X163153929Y-59701623D01*
X163186956Y-59700000D01*
X164063044Y-59700000D01*
X164096071Y-59701623D01*
X164096071Y-59701623D01*
G37*
D15*
X163625000Y-60600000D03*
D14*
G36*
X162046071Y-59701623D02*
X162078781Y-59706475D01*
X162110857Y-59714509D01*
X162141991Y-59725649D01*
X162171884Y-59739787D01*
X162200247Y-59756787D01*
X162226807Y-59776485D01*
X162251308Y-59798692D01*
X162273515Y-59823193D01*
X162293213Y-59849753D01*
X162310213Y-59878116D01*
X162324351Y-59908009D01*
X162335491Y-59939143D01*
X162343525Y-59971219D01*
X162348377Y-60003929D01*
X162350000Y-60036956D01*
X162350000Y-61163044D01*
X162348377Y-61196071D01*
X162343525Y-61228781D01*
X162335491Y-61260857D01*
X162324351Y-61291991D01*
X162310213Y-61321884D01*
X162293213Y-61350247D01*
X162273515Y-61376807D01*
X162251308Y-61401308D01*
X162226807Y-61423515D01*
X162200247Y-61443213D01*
X162171884Y-61460213D01*
X162141991Y-61474351D01*
X162110857Y-61485491D01*
X162078781Y-61493525D01*
X162046071Y-61498377D01*
X162013044Y-61500000D01*
X161136956Y-61500000D01*
X161103929Y-61498377D01*
X161071219Y-61493525D01*
X161039143Y-61485491D01*
X161008009Y-61474351D01*
X160978116Y-61460213D01*
X160949753Y-61443213D01*
X160923193Y-61423515D01*
X160898692Y-61401308D01*
X160876485Y-61376807D01*
X160856787Y-61350247D01*
X160839787Y-61321884D01*
X160825649Y-61291991D01*
X160814509Y-61260857D01*
X160806475Y-61228781D01*
X160801623Y-61196071D01*
X160800000Y-61163044D01*
X160800000Y-60036956D01*
X160801623Y-60003929D01*
X160806475Y-59971219D01*
X160814509Y-59939143D01*
X160825649Y-59908009D01*
X160839787Y-59878116D01*
X160856787Y-59849753D01*
X160876485Y-59823193D01*
X160898692Y-59798692D01*
X160923193Y-59776485D01*
X160949753Y-59756787D01*
X160978116Y-59739787D01*
X161008009Y-59725649D01*
X161039143Y-59714509D01*
X161071219Y-59706475D01*
X161103929Y-59701623D01*
X161136956Y-59700000D01*
X162013044Y-59700000D01*
X162046071Y-59701623D01*
X162046071Y-59701623D01*
G37*
D15*
X161575000Y-60600000D03*
G04 #@! TD*
D14*
G04 #@! TO.C,R17*
G36*
X123596071Y-94001623D02*
X123628781Y-94006475D01*
X123660857Y-94014509D01*
X123691991Y-94025649D01*
X123721884Y-94039787D01*
X123750247Y-94056787D01*
X123776807Y-94076485D01*
X123801308Y-94098692D01*
X123823515Y-94123193D01*
X123843213Y-94149753D01*
X123860213Y-94178116D01*
X123874351Y-94208009D01*
X123885491Y-94239143D01*
X123893525Y-94271219D01*
X123898377Y-94303929D01*
X123900000Y-94336956D01*
X123900000Y-95213044D01*
X123898377Y-95246071D01*
X123893525Y-95278781D01*
X123885491Y-95310857D01*
X123874351Y-95341991D01*
X123860213Y-95371884D01*
X123843213Y-95400247D01*
X123823515Y-95426807D01*
X123801308Y-95451308D01*
X123776807Y-95473515D01*
X123750247Y-95493213D01*
X123721884Y-95510213D01*
X123691991Y-95524351D01*
X123660857Y-95535491D01*
X123628781Y-95543525D01*
X123596071Y-95548377D01*
X123563044Y-95550000D01*
X122436956Y-95550000D01*
X122403929Y-95548377D01*
X122371219Y-95543525D01*
X122339143Y-95535491D01*
X122308009Y-95524351D01*
X122278116Y-95510213D01*
X122249753Y-95493213D01*
X122223193Y-95473515D01*
X122198692Y-95451308D01*
X122176485Y-95426807D01*
X122156787Y-95400247D01*
X122139787Y-95371884D01*
X122125649Y-95341991D01*
X122114509Y-95310857D01*
X122106475Y-95278781D01*
X122101623Y-95246071D01*
X122100000Y-95213044D01*
X122100000Y-94336956D01*
X122101623Y-94303929D01*
X122106475Y-94271219D01*
X122114509Y-94239143D01*
X122125649Y-94208009D01*
X122139787Y-94178116D01*
X122156787Y-94149753D01*
X122176485Y-94123193D01*
X122198692Y-94098692D01*
X122223193Y-94076485D01*
X122249753Y-94056787D01*
X122278116Y-94039787D01*
X122308009Y-94025649D01*
X122339143Y-94014509D01*
X122371219Y-94006475D01*
X122403929Y-94001623D01*
X122436956Y-94000000D01*
X123563044Y-94000000D01*
X123596071Y-94001623D01*
X123596071Y-94001623D01*
G37*
D15*
X123000000Y-94775000D03*
D14*
G36*
X123596071Y-91951623D02*
X123628781Y-91956475D01*
X123660857Y-91964509D01*
X123691991Y-91975649D01*
X123721884Y-91989787D01*
X123750247Y-92006787D01*
X123776807Y-92026485D01*
X123801308Y-92048692D01*
X123823515Y-92073193D01*
X123843213Y-92099753D01*
X123860213Y-92128116D01*
X123874351Y-92158009D01*
X123885491Y-92189143D01*
X123893525Y-92221219D01*
X123898377Y-92253929D01*
X123900000Y-92286956D01*
X123900000Y-93163044D01*
X123898377Y-93196071D01*
X123893525Y-93228781D01*
X123885491Y-93260857D01*
X123874351Y-93291991D01*
X123860213Y-93321884D01*
X123843213Y-93350247D01*
X123823515Y-93376807D01*
X123801308Y-93401308D01*
X123776807Y-93423515D01*
X123750247Y-93443213D01*
X123721884Y-93460213D01*
X123691991Y-93474351D01*
X123660857Y-93485491D01*
X123628781Y-93493525D01*
X123596071Y-93498377D01*
X123563044Y-93500000D01*
X122436956Y-93500000D01*
X122403929Y-93498377D01*
X122371219Y-93493525D01*
X122339143Y-93485491D01*
X122308009Y-93474351D01*
X122278116Y-93460213D01*
X122249753Y-93443213D01*
X122223193Y-93423515D01*
X122198692Y-93401308D01*
X122176485Y-93376807D01*
X122156787Y-93350247D01*
X122139787Y-93321884D01*
X122125649Y-93291991D01*
X122114509Y-93260857D01*
X122106475Y-93228781D01*
X122101623Y-93196071D01*
X122100000Y-93163044D01*
X122100000Y-92286956D01*
X122101623Y-92253929D01*
X122106475Y-92221219D01*
X122114509Y-92189143D01*
X122125649Y-92158009D01*
X122139787Y-92128116D01*
X122156787Y-92099753D01*
X122176485Y-92073193D01*
X122198692Y-92048692D01*
X122223193Y-92026485D01*
X122249753Y-92006787D01*
X122278116Y-91989787D01*
X122308009Y-91975649D01*
X122339143Y-91964509D01*
X122371219Y-91956475D01*
X122403929Y-91951623D01*
X122436956Y-91950000D01*
X123563044Y-91950000D01*
X123596071Y-91951623D01*
X123596071Y-91951623D01*
G37*
D15*
X123000000Y-92725000D03*
G04 #@! TD*
D14*
G04 #@! TO.C,R18*
G36*
X123596071Y-95926623D02*
X123628781Y-95931475D01*
X123660857Y-95939509D01*
X123691991Y-95950649D01*
X123721884Y-95964787D01*
X123750247Y-95981787D01*
X123776807Y-96001485D01*
X123801308Y-96023692D01*
X123823515Y-96048193D01*
X123843213Y-96074753D01*
X123860213Y-96103116D01*
X123874351Y-96133009D01*
X123885491Y-96164143D01*
X123893525Y-96196219D01*
X123898377Y-96228929D01*
X123900000Y-96261956D01*
X123900000Y-97138044D01*
X123898377Y-97171071D01*
X123893525Y-97203781D01*
X123885491Y-97235857D01*
X123874351Y-97266991D01*
X123860213Y-97296884D01*
X123843213Y-97325247D01*
X123823515Y-97351807D01*
X123801308Y-97376308D01*
X123776807Y-97398515D01*
X123750247Y-97418213D01*
X123721884Y-97435213D01*
X123691991Y-97449351D01*
X123660857Y-97460491D01*
X123628781Y-97468525D01*
X123596071Y-97473377D01*
X123563044Y-97475000D01*
X122436956Y-97475000D01*
X122403929Y-97473377D01*
X122371219Y-97468525D01*
X122339143Y-97460491D01*
X122308009Y-97449351D01*
X122278116Y-97435213D01*
X122249753Y-97418213D01*
X122223193Y-97398515D01*
X122198692Y-97376308D01*
X122176485Y-97351807D01*
X122156787Y-97325247D01*
X122139787Y-97296884D01*
X122125649Y-97266991D01*
X122114509Y-97235857D01*
X122106475Y-97203781D01*
X122101623Y-97171071D01*
X122100000Y-97138044D01*
X122100000Y-96261956D01*
X122101623Y-96228929D01*
X122106475Y-96196219D01*
X122114509Y-96164143D01*
X122125649Y-96133009D01*
X122139787Y-96103116D01*
X122156787Y-96074753D01*
X122176485Y-96048193D01*
X122198692Y-96023692D01*
X122223193Y-96001485D01*
X122249753Y-95981787D01*
X122278116Y-95964787D01*
X122308009Y-95950649D01*
X122339143Y-95939509D01*
X122371219Y-95931475D01*
X122403929Y-95926623D01*
X122436956Y-95925000D01*
X123563044Y-95925000D01*
X123596071Y-95926623D01*
X123596071Y-95926623D01*
G37*
D15*
X123000000Y-96700000D03*
D14*
G36*
X123596071Y-97976623D02*
X123628781Y-97981475D01*
X123660857Y-97989509D01*
X123691991Y-98000649D01*
X123721884Y-98014787D01*
X123750247Y-98031787D01*
X123776807Y-98051485D01*
X123801308Y-98073692D01*
X123823515Y-98098193D01*
X123843213Y-98124753D01*
X123860213Y-98153116D01*
X123874351Y-98183009D01*
X123885491Y-98214143D01*
X123893525Y-98246219D01*
X123898377Y-98278929D01*
X123900000Y-98311956D01*
X123900000Y-99188044D01*
X123898377Y-99221071D01*
X123893525Y-99253781D01*
X123885491Y-99285857D01*
X123874351Y-99316991D01*
X123860213Y-99346884D01*
X123843213Y-99375247D01*
X123823515Y-99401807D01*
X123801308Y-99426308D01*
X123776807Y-99448515D01*
X123750247Y-99468213D01*
X123721884Y-99485213D01*
X123691991Y-99499351D01*
X123660857Y-99510491D01*
X123628781Y-99518525D01*
X123596071Y-99523377D01*
X123563044Y-99525000D01*
X122436956Y-99525000D01*
X122403929Y-99523377D01*
X122371219Y-99518525D01*
X122339143Y-99510491D01*
X122308009Y-99499351D01*
X122278116Y-99485213D01*
X122249753Y-99468213D01*
X122223193Y-99448515D01*
X122198692Y-99426308D01*
X122176485Y-99401807D01*
X122156787Y-99375247D01*
X122139787Y-99346884D01*
X122125649Y-99316991D01*
X122114509Y-99285857D01*
X122106475Y-99253781D01*
X122101623Y-99221071D01*
X122100000Y-99188044D01*
X122100000Y-98311956D01*
X122101623Y-98278929D01*
X122106475Y-98246219D01*
X122114509Y-98214143D01*
X122125649Y-98183009D01*
X122139787Y-98153116D01*
X122156787Y-98124753D01*
X122176485Y-98098193D01*
X122198692Y-98073692D01*
X122223193Y-98051485D01*
X122249753Y-98031787D01*
X122278116Y-98014787D01*
X122308009Y-98000649D01*
X122339143Y-97989509D01*
X122371219Y-97981475D01*
X122403929Y-97976623D01*
X122436956Y-97975000D01*
X123563044Y-97975000D01*
X123596071Y-97976623D01*
X123596071Y-97976623D01*
G37*
D15*
X123000000Y-98750000D03*
G04 #@! TD*
D21*
G04 #@! TO.C,SW1*
X125990000Y-80240000D03*
D22*
X123500000Y-81500000D03*
X123500000Y-86000000D03*
D21*
X125990000Y-87250000D03*
G04 #@! TD*
G04 #@! TO.C,SW2*
X170010000Y-92250000D03*
D22*
X172500000Y-93500000D03*
X172500000Y-98000000D03*
D21*
X170010000Y-99260000D03*
G04 #@! TD*
G04 #@! TO.C,SW3*
X170010000Y-88760000D03*
D22*
X172500000Y-87500000D03*
X172500000Y-83000000D03*
D21*
X170010000Y-81750000D03*
G04 #@! TD*
G04 #@! TO.C,SW4*
X170010000Y-71250000D03*
D22*
X172500000Y-72500000D03*
X172500000Y-77000000D03*
D21*
X170010000Y-78260000D03*
G04 #@! TD*
D18*
G04 #@! TO.C,SW5*
X135700000Y-105000000D03*
D17*
X138200000Y-105000000D03*
G04 #@! TD*
D10*
G04 #@! TO.C,Y1*
X150000000Y-57000000D03*
X145120000Y-57000000D03*
G04 #@! TD*
M02*
