G04 #@! TF.GenerationSoftware,KiCad,Pcbnew,(5.0.0)*
G04 #@! TF.CreationDate,2019-12-21T17:29:24+07:00*
G04 #@! TF.ProjectId,mrbot,6D72626F742E6B696361645F70636200,rev?*
G04 #@! TF.SameCoordinates,Original*
G04 #@! TF.FileFunction,Copper,L2,Bot,Signal*
G04 #@! TF.FilePolarity,Positive*
%FSLAX46Y46*%
G04 Gerber Fmt 4.6, Leading zero omitted, Abs format (unit mm)*
G04 Created by KiCad (PCBNEW (5.0.0)) date 12/21/19 17:29:24*
%MOMM*%
%LPD*%
G01*
G04 APERTURE LIST*
G04 #@! TA.AperFunction,ViaPad*
%ADD10C,2.000000*%
G04 #@! TD*
G04 #@! TA.AperFunction,SMDPad,CuDef*
%ADD11R,0.600000X3.000000*%
G04 #@! TD*
G04 #@! TA.AperFunction,Conductor*
%ADD12C,0.100000*%
G04 #@! TD*
G04 #@! TA.AperFunction,SMDPad,CuDef*
%ADD13C,1.150000*%
G04 #@! TD*
G04 #@! TA.AperFunction,SMDPad,CuDef*
%ADD14C,1.300000*%
G04 #@! TD*
G04 #@! TA.AperFunction,ComponentPad*
%ADD15R,1.700000X2.000000*%
G04 #@! TD*
G04 #@! TA.AperFunction,ComponentPad*
%ADD16O,1.700000X2.000000*%
G04 #@! TD*
G04 #@! TA.AperFunction,ComponentPad*
%ADD17R,1.700000X1.700000*%
G04 #@! TD*
G04 #@! TA.AperFunction,ComponentPad*
%ADD18O,1.700000X1.700000*%
G04 #@! TD*
G04 #@! TA.AperFunction,ComponentPad*
%ADD19C,2.100000*%
G04 #@! TD*
G04 #@! TA.AperFunction,ComponentPad*
%ADD20C,1.750000*%
G04 #@! TD*
G04 #@! TA.AperFunction,ComponentPad*
%ADD21C,1.500000*%
G04 #@! TD*
G04 #@! TA.AperFunction,ViaPad*
%ADD22C,1.108000*%
G04 #@! TD*
G04 #@! TA.AperFunction,Conductor*
%ADD23C,0.300000*%
G04 #@! TD*
G04 #@! TA.AperFunction,Conductor*
%ADD24C,0.600000*%
G04 #@! TD*
G04 #@! TA.AperFunction,Conductor*
%ADD25C,0.400000*%
G04 #@! TD*
G04 #@! TA.AperFunction,Conductor*
%ADD26C,0.254000*%
G04 #@! TD*
G04 APERTURE END LIST*
D10*
G04 #@! TO.N,*
G04 #@! TO.C,U4*
X130750000Y-61500000D03*
D11*
G04 #@! TD*
G04 #@! TO.P,U4,9*
G04 #@! TO.N,+3V3*
X144000000Y-31500000D03*
G04 #@! TO.P,U4,8*
G04 #@! TO.N,/LCD_CLK*
X145000000Y-31500000D03*
G04 #@! TO.P,U4,7*
G04 #@! TO.N,/LCD_DIN*
X146000000Y-31500000D03*
G04 #@! TO.P,U4,6*
G04 #@! TO.N,/LCD_DC*
X147000000Y-31500000D03*
G04 #@! TO.P,U4,1*
G04 #@! TO.N,/LCD_RST*
X152000000Y-31500000D03*
G04 #@! TO.P,U4,2*
G04 #@! TO.N,Net-(C23-Pad1)*
X151000000Y-31500000D03*
G04 #@! TO.P,U4,5*
G04 #@! TO.N,/LCD_CE*
X148000000Y-31500000D03*
G04 #@! TO.P,U4,4*
G04 #@! TO.N,+3V3*
X149000000Y-31500000D03*
G04 #@! TO.P,U4,3*
G04 #@! TO.N,GND*
X150000000Y-31500000D03*
D10*
G04 #@! TD*
G04 #@! TO.N,*
G04 #@! TO.C,U4*
X165250000Y-35000000D03*
D12*
G04 #@! TO.N,Net-(C23-Pad1)*
G04 #@! TO.C,C23*
G36*
X154824505Y-27801204D02*
X154848773Y-27804804D01*
X154872572Y-27810765D01*
X154895671Y-27819030D01*
X154917850Y-27829520D01*
X154938893Y-27842132D01*
X154958599Y-27856747D01*
X154976777Y-27873223D01*
X154993253Y-27891401D01*
X155007868Y-27911107D01*
X155020480Y-27932150D01*
X155030970Y-27954329D01*
X155039235Y-27977428D01*
X155045196Y-28001227D01*
X155048796Y-28025495D01*
X155050000Y-28049999D01*
X155050000Y-28950001D01*
X155048796Y-28974505D01*
X155045196Y-28998773D01*
X155039235Y-29022572D01*
X155030970Y-29045671D01*
X155020480Y-29067850D01*
X155007868Y-29088893D01*
X154993253Y-29108599D01*
X154976777Y-29126777D01*
X154958599Y-29143253D01*
X154938893Y-29157868D01*
X154917850Y-29170480D01*
X154895671Y-29180970D01*
X154872572Y-29189235D01*
X154848773Y-29195196D01*
X154824505Y-29198796D01*
X154800001Y-29200000D01*
X154149999Y-29200000D01*
X154125495Y-29198796D01*
X154101227Y-29195196D01*
X154077428Y-29189235D01*
X154054329Y-29180970D01*
X154032150Y-29170480D01*
X154011107Y-29157868D01*
X153991401Y-29143253D01*
X153973223Y-29126777D01*
X153956747Y-29108599D01*
X153942132Y-29088893D01*
X153929520Y-29067850D01*
X153919030Y-29045671D01*
X153910765Y-29022572D01*
X153904804Y-28998773D01*
X153901204Y-28974505D01*
X153900000Y-28950001D01*
X153900000Y-28049999D01*
X153901204Y-28025495D01*
X153904804Y-28001227D01*
X153910765Y-27977428D01*
X153919030Y-27954329D01*
X153929520Y-27932150D01*
X153942132Y-27911107D01*
X153956747Y-27891401D01*
X153973223Y-27873223D01*
X153991401Y-27856747D01*
X154011107Y-27842132D01*
X154032150Y-27829520D01*
X154054329Y-27819030D01*
X154077428Y-27810765D01*
X154101227Y-27804804D01*
X154125495Y-27801204D01*
X154149999Y-27800000D01*
X154800001Y-27800000D01*
X154824505Y-27801204D01*
X154824505Y-27801204D01*
G37*
D13*
G04 #@! TD*
G04 #@! TO.P,C23,1*
G04 #@! TO.N,Net-(C23-Pad1)*
X154475000Y-28500000D03*
D12*
G04 #@! TO.N,GND*
G04 #@! TO.C,C23*
G36*
X156874505Y-27801204D02*
X156898773Y-27804804D01*
X156922572Y-27810765D01*
X156945671Y-27819030D01*
X156967850Y-27829520D01*
X156988893Y-27842132D01*
X157008599Y-27856747D01*
X157026777Y-27873223D01*
X157043253Y-27891401D01*
X157057868Y-27911107D01*
X157070480Y-27932150D01*
X157080970Y-27954329D01*
X157089235Y-27977428D01*
X157095196Y-28001227D01*
X157098796Y-28025495D01*
X157100000Y-28049999D01*
X157100000Y-28950001D01*
X157098796Y-28974505D01*
X157095196Y-28998773D01*
X157089235Y-29022572D01*
X157080970Y-29045671D01*
X157070480Y-29067850D01*
X157057868Y-29088893D01*
X157043253Y-29108599D01*
X157026777Y-29126777D01*
X157008599Y-29143253D01*
X156988893Y-29157868D01*
X156967850Y-29170480D01*
X156945671Y-29180970D01*
X156922572Y-29189235D01*
X156898773Y-29195196D01*
X156874505Y-29198796D01*
X156850001Y-29200000D01*
X156199999Y-29200000D01*
X156175495Y-29198796D01*
X156151227Y-29195196D01*
X156127428Y-29189235D01*
X156104329Y-29180970D01*
X156082150Y-29170480D01*
X156061107Y-29157868D01*
X156041401Y-29143253D01*
X156023223Y-29126777D01*
X156006747Y-29108599D01*
X155992132Y-29088893D01*
X155979520Y-29067850D01*
X155969030Y-29045671D01*
X155960765Y-29022572D01*
X155954804Y-28998773D01*
X155951204Y-28974505D01*
X155950000Y-28950001D01*
X155950000Y-28049999D01*
X155951204Y-28025495D01*
X155954804Y-28001227D01*
X155960765Y-27977428D01*
X155969030Y-27954329D01*
X155979520Y-27932150D01*
X155992132Y-27911107D01*
X156006747Y-27891401D01*
X156023223Y-27873223D01*
X156041401Y-27856747D01*
X156061107Y-27842132D01*
X156082150Y-27829520D01*
X156104329Y-27819030D01*
X156127428Y-27810765D01*
X156151227Y-27804804D01*
X156175495Y-27801204D01*
X156199999Y-27800000D01*
X156850001Y-27800000D01*
X156874505Y-27801204D01*
X156874505Y-27801204D01*
G37*
D13*
G04 #@! TD*
G04 #@! TO.P,C23,2*
G04 #@! TO.N,GND*
X156525000Y-28500000D03*
D12*
G04 #@! TO.N,Net-(D2-Pad2)*
G04 #@! TO.C,D2*
G36*
X163924504Y-36376204D02*
X163948773Y-36379804D01*
X163972571Y-36385765D01*
X163995671Y-36394030D01*
X164017849Y-36404520D01*
X164038893Y-36417133D01*
X164058598Y-36431747D01*
X164076777Y-36448223D01*
X164093253Y-36466402D01*
X164107867Y-36486107D01*
X164120480Y-36507151D01*
X164130970Y-36529329D01*
X164139235Y-36552429D01*
X164145196Y-36576227D01*
X164148796Y-36600496D01*
X164150000Y-36625000D01*
X164150000Y-37450000D01*
X164148796Y-37474504D01*
X164145196Y-37498773D01*
X164139235Y-37522571D01*
X164130970Y-37545671D01*
X164120480Y-37567849D01*
X164107867Y-37588893D01*
X164093253Y-37608598D01*
X164076777Y-37626777D01*
X164058598Y-37643253D01*
X164038893Y-37657867D01*
X164017849Y-37670480D01*
X163995671Y-37680970D01*
X163972571Y-37689235D01*
X163948773Y-37695196D01*
X163924504Y-37698796D01*
X163900000Y-37700000D01*
X163100000Y-37700000D01*
X163075496Y-37698796D01*
X163051227Y-37695196D01*
X163027429Y-37689235D01*
X163004329Y-37680970D01*
X162982151Y-37670480D01*
X162961107Y-37657867D01*
X162941402Y-37643253D01*
X162923223Y-37626777D01*
X162906747Y-37608598D01*
X162892133Y-37588893D01*
X162879520Y-37567849D01*
X162869030Y-37545671D01*
X162860765Y-37522571D01*
X162854804Y-37498773D01*
X162851204Y-37474504D01*
X162850000Y-37450000D01*
X162850000Y-36625000D01*
X162851204Y-36600496D01*
X162854804Y-36576227D01*
X162860765Y-36552429D01*
X162869030Y-36529329D01*
X162879520Y-36507151D01*
X162892133Y-36486107D01*
X162906747Y-36466402D01*
X162923223Y-36448223D01*
X162941402Y-36431747D01*
X162961107Y-36417133D01*
X162982151Y-36404520D01*
X163004329Y-36394030D01*
X163027429Y-36385765D01*
X163051227Y-36379804D01*
X163075496Y-36376204D01*
X163100000Y-36375000D01*
X163900000Y-36375000D01*
X163924504Y-36376204D01*
X163924504Y-36376204D01*
G37*
D14*
G04 #@! TD*
G04 #@! TO.P,D2,2*
G04 #@! TO.N,Net-(D2-Pad2)*
X163500000Y-37037500D03*
D12*
G04 #@! TO.N,GND*
G04 #@! TO.C,D2*
G36*
X163924504Y-38301204D02*
X163948773Y-38304804D01*
X163972571Y-38310765D01*
X163995671Y-38319030D01*
X164017849Y-38329520D01*
X164038893Y-38342133D01*
X164058598Y-38356747D01*
X164076777Y-38373223D01*
X164093253Y-38391402D01*
X164107867Y-38411107D01*
X164120480Y-38432151D01*
X164130970Y-38454329D01*
X164139235Y-38477429D01*
X164145196Y-38501227D01*
X164148796Y-38525496D01*
X164150000Y-38550000D01*
X164150000Y-39375000D01*
X164148796Y-39399504D01*
X164145196Y-39423773D01*
X164139235Y-39447571D01*
X164130970Y-39470671D01*
X164120480Y-39492849D01*
X164107867Y-39513893D01*
X164093253Y-39533598D01*
X164076777Y-39551777D01*
X164058598Y-39568253D01*
X164038893Y-39582867D01*
X164017849Y-39595480D01*
X163995671Y-39605970D01*
X163972571Y-39614235D01*
X163948773Y-39620196D01*
X163924504Y-39623796D01*
X163900000Y-39625000D01*
X163100000Y-39625000D01*
X163075496Y-39623796D01*
X163051227Y-39620196D01*
X163027429Y-39614235D01*
X163004329Y-39605970D01*
X162982151Y-39595480D01*
X162961107Y-39582867D01*
X162941402Y-39568253D01*
X162923223Y-39551777D01*
X162906747Y-39533598D01*
X162892133Y-39513893D01*
X162879520Y-39492849D01*
X162869030Y-39470671D01*
X162860765Y-39447571D01*
X162854804Y-39423773D01*
X162851204Y-39399504D01*
X162850000Y-39375000D01*
X162850000Y-38550000D01*
X162851204Y-38525496D01*
X162854804Y-38501227D01*
X162860765Y-38477429D01*
X162869030Y-38454329D01*
X162879520Y-38432151D01*
X162892133Y-38411107D01*
X162906747Y-38391402D01*
X162923223Y-38373223D01*
X162941402Y-38356747D01*
X162961107Y-38342133D01*
X162982151Y-38329520D01*
X163004329Y-38319030D01*
X163027429Y-38310765D01*
X163051227Y-38304804D01*
X163075496Y-38301204D01*
X163100000Y-38300000D01*
X163900000Y-38300000D01*
X163924504Y-38301204D01*
X163924504Y-38301204D01*
G37*
D14*
G04 #@! TD*
G04 #@! TO.P,D2,1*
G04 #@! TO.N,GND*
X163500000Y-38962500D03*
D12*
G04 #@! TO.N,GND*
G04 #@! TO.C,D3*
G36*
X163874504Y-53376204D02*
X163898773Y-53379804D01*
X163922571Y-53385765D01*
X163945671Y-53394030D01*
X163967849Y-53404520D01*
X163988893Y-53417133D01*
X164008598Y-53431747D01*
X164026777Y-53448223D01*
X164043253Y-53466402D01*
X164057867Y-53486107D01*
X164070480Y-53507151D01*
X164080970Y-53529329D01*
X164089235Y-53552429D01*
X164095196Y-53576227D01*
X164098796Y-53600496D01*
X164100000Y-53625000D01*
X164100000Y-54450000D01*
X164098796Y-54474504D01*
X164095196Y-54498773D01*
X164089235Y-54522571D01*
X164080970Y-54545671D01*
X164070480Y-54567849D01*
X164057867Y-54588893D01*
X164043253Y-54608598D01*
X164026777Y-54626777D01*
X164008598Y-54643253D01*
X163988893Y-54657867D01*
X163967849Y-54670480D01*
X163945671Y-54680970D01*
X163922571Y-54689235D01*
X163898773Y-54695196D01*
X163874504Y-54698796D01*
X163850000Y-54700000D01*
X163050000Y-54700000D01*
X163025496Y-54698796D01*
X163001227Y-54695196D01*
X162977429Y-54689235D01*
X162954329Y-54680970D01*
X162932151Y-54670480D01*
X162911107Y-54657867D01*
X162891402Y-54643253D01*
X162873223Y-54626777D01*
X162856747Y-54608598D01*
X162842133Y-54588893D01*
X162829520Y-54567849D01*
X162819030Y-54545671D01*
X162810765Y-54522571D01*
X162804804Y-54498773D01*
X162801204Y-54474504D01*
X162800000Y-54450000D01*
X162800000Y-53625000D01*
X162801204Y-53600496D01*
X162804804Y-53576227D01*
X162810765Y-53552429D01*
X162819030Y-53529329D01*
X162829520Y-53507151D01*
X162842133Y-53486107D01*
X162856747Y-53466402D01*
X162873223Y-53448223D01*
X162891402Y-53431747D01*
X162911107Y-53417133D01*
X162932151Y-53404520D01*
X162954329Y-53394030D01*
X162977429Y-53385765D01*
X163001227Y-53379804D01*
X163025496Y-53376204D01*
X163050000Y-53375000D01*
X163850000Y-53375000D01*
X163874504Y-53376204D01*
X163874504Y-53376204D01*
G37*
D14*
G04 #@! TD*
G04 #@! TO.P,D3,1*
G04 #@! TO.N,GND*
X163450000Y-54037500D03*
D12*
G04 #@! TO.N,Net-(D2-Pad2)*
G04 #@! TO.C,D3*
G36*
X163874504Y-55301204D02*
X163898773Y-55304804D01*
X163922571Y-55310765D01*
X163945671Y-55319030D01*
X163967849Y-55329520D01*
X163988893Y-55342133D01*
X164008598Y-55356747D01*
X164026777Y-55373223D01*
X164043253Y-55391402D01*
X164057867Y-55411107D01*
X164070480Y-55432151D01*
X164080970Y-55454329D01*
X164089235Y-55477429D01*
X164095196Y-55501227D01*
X164098796Y-55525496D01*
X164100000Y-55550000D01*
X164100000Y-56375000D01*
X164098796Y-56399504D01*
X164095196Y-56423773D01*
X164089235Y-56447571D01*
X164080970Y-56470671D01*
X164070480Y-56492849D01*
X164057867Y-56513893D01*
X164043253Y-56533598D01*
X164026777Y-56551777D01*
X164008598Y-56568253D01*
X163988893Y-56582867D01*
X163967849Y-56595480D01*
X163945671Y-56605970D01*
X163922571Y-56614235D01*
X163898773Y-56620196D01*
X163874504Y-56623796D01*
X163850000Y-56625000D01*
X163050000Y-56625000D01*
X163025496Y-56623796D01*
X163001227Y-56620196D01*
X162977429Y-56614235D01*
X162954329Y-56605970D01*
X162932151Y-56595480D01*
X162911107Y-56582867D01*
X162891402Y-56568253D01*
X162873223Y-56551777D01*
X162856747Y-56533598D01*
X162842133Y-56513893D01*
X162829520Y-56492849D01*
X162819030Y-56470671D01*
X162810765Y-56447571D01*
X162804804Y-56423773D01*
X162801204Y-56399504D01*
X162800000Y-56375000D01*
X162800000Y-55550000D01*
X162801204Y-55525496D01*
X162804804Y-55501227D01*
X162810765Y-55477429D01*
X162819030Y-55454329D01*
X162829520Y-55432151D01*
X162842133Y-55411107D01*
X162856747Y-55391402D01*
X162873223Y-55373223D01*
X162891402Y-55356747D01*
X162911107Y-55342133D01*
X162932151Y-55329520D01*
X162954329Y-55319030D01*
X162977429Y-55310765D01*
X163001227Y-55304804D01*
X163025496Y-55301204D01*
X163050000Y-55300000D01*
X163850000Y-55300000D01*
X163874504Y-55301204D01*
X163874504Y-55301204D01*
G37*
D14*
G04 #@! TD*
G04 #@! TO.P,D3,2*
G04 #@! TO.N,Net-(D2-Pad2)*
X163450000Y-55962500D03*
D12*
G04 #@! TO.N,GND*
G04 #@! TO.C,D4*
G36*
X132924504Y-38301204D02*
X132948773Y-38304804D01*
X132972571Y-38310765D01*
X132995671Y-38319030D01*
X133017849Y-38329520D01*
X133038893Y-38342133D01*
X133058598Y-38356747D01*
X133076777Y-38373223D01*
X133093253Y-38391402D01*
X133107867Y-38411107D01*
X133120480Y-38432151D01*
X133130970Y-38454329D01*
X133139235Y-38477429D01*
X133145196Y-38501227D01*
X133148796Y-38525496D01*
X133150000Y-38550000D01*
X133150000Y-39375000D01*
X133148796Y-39399504D01*
X133145196Y-39423773D01*
X133139235Y-39447571D01*
X133130970Y-39470671D01*
X133120480Y-39492849D01*
X133107867Y-39513893D01*
X133093253Y-39533598D01*
X133076777Y-39551777D01*
X133058598Y-39568253D01*
X133038893Y-39582867D01*
X133017849Y-39595480D01*
X132995671Y-39605970D01*
X132972571Y-39614235D01*
X132948773Y-39620196D01*
X132924504Y-39623796D01*
X132900000Y-39625000D01*
X132100000Y-39625000D01*
X132075496Y-39623796D01*
X132051227Y-39620196D01*
X132027429Y-39614235D01*
X132004329Y-39605970D01*
X131982151Y-39595480D01*
X131961107Y-39582867D01*
X131941402Y-39568253D01*
X131923223Y-39551777D01*
X131906747Y-39533598D01*
X131892133Y-39513893D01*
X131879520Y-39492849D01*
X131869030Y-39470671D01*
X131860765Y-39447571D01*
X131854804Y-39423773D01*
X131851204Y-39399504D01*
X131850000Y-39375000D01*
X131850000Y-38550000D01*
X131851204Y-38525496D01*
X131854804Y-38501227D01*
X131860765Y-38477429D01*
X131869030Y-38454329D01*
X131879520Y-38432151D01*
X131892133Y-38411107D01*
X131906747Y-38391402D01*
X131923223Y-38373223D01*
X131941402Y-38356747D01*
X131961107Y-38342133D01*
X131982151Y-38329520D01*
X132004329Y-38319030D01*
X132027429Y-38310765D01*
X132051227Y-38304804D01*
X132075496Y-38301204D01*
X132100000Y-38300000D01*
X132900000Y-38300000D01*
X132924504Y-38301204D01*
X132924504Y-38301204D01*
G37*
D14*
G04 #@! TD*
G04 #@! TO.P,D4,1*
G04 #@! TO.N,GND*
X132500000Y-38962500D03*
D12*
G04 #@! TO.N,Net-(D2-Pad2)*
G04 #@! TO.C,D4*
G36*
X132924504Y-36376204D02*
X132948773Y-36379804D01*
X132972571Y-36385765D01*
X132995671Y-36394030D01*
X133017849Y-36404520D01*
X133038893Y-36417133D01*
X133058598Y-36431747D01*
X133076777Y-36448223D01*
X133093253Y-36466402D01*
X133107867Y-36486107D01*
X133120480Y-36507151D01*
X133130970Y-36529329D01*
X133139235Y-36552429D01*
X133145196Y-36576227D01*
X133148796Y-36600496D01*
X133150000Y-36625000D01*
X133150000Y-37450000D01*
X133148796Y-37474504D01*
X133145196Y-37498773D01*
X133139235Y-37522571D01*
X133130970Y-37545671D01*
X133120480Y-37567849D01*
X133107867Y-37588893D01*
X133093253Y-37608598D01*
X133076777Y-37626777D01*
X133058598Y-37643253D01*
X133038893Y-37657867D01*
X133017849Y-37670480D01*
X132995671Y-37680970D01*
X132972571Y-37689235D01*
X132948773Y-37695196D01*
X132924504Y-37698796D01*
X132900000Y-37700000D01*
X132100000Y-37700000D01*
X132075496Y-37698796D01*
X132051227Y-37695196D01*
X132027429Y-37689235D01*
X132004329Y-37680970D01*
X131982151Y-37670480D01*
X131961107Y-37657867D01*
X131941402Y-37643253D01*
X131923223Y-37626777D01*
X131906747Y-37608598D01*
X131892133Y-37588893D01*
X131879520Y-37567849D01*
X131869030Y-37545671D01*
X131860765Y-37522571D01*
X131854804Y-37498773D01*
X131851204Y-37474504D01*
X131850000Y-37450000D01*
X131850000Y-36625000D01*
X131851204Y-36600496D01*
X131854804Y-36576227D01*
X131860765Y-36552429D01*
X131869030Y-36529329D01*
X131879520Y-36507151D01*
X131892133Y-36486107D01*
X131906747Y-36466402D01*
X131923223Y-36448223D01*
X131941402Y-36431747D01*
X131961107Y-36417133D01*
X131982151Y-36404520D01*
X132004329Y-36394030D01*
X132027429Y-36385765D01*
X132051227Y-36379804D01*
X132075496Y-36376204D01*
X132100000Y-36375000D01*
X132900000Y-36375000D01*
X132924504Y-36376204D01*
X132924504Y-36376204D01*
G37*
D14*
G04 #@! TD*
G04 #@! TO.P,D4,2*
G04 #@! TO.N,Net-(D2-Pad2)*
X132500000Y-37037500D03*
D12*
G04 #@! TO.N,Net-(D2-Pad2)*
G04 #@! TO.C,D5*
G36*
X132924504Y-55301204D02*
X132948773Y-55304804D01*
X132972571Y-55310765D01*
X132995671Y-55319030D01*
X133017849Y-55329520D01*
X133038893Y-55342133D01*
X133058598Y-55356747D01*
X133076777Y-55373223D01*
X133093253Y-55391402D01*
X133107867Y-55411107D01*
X133120480Y-55432151D01*
X133130970Y-55454329D01*
X133139235Y-55477429D01*
X133145196Y-55501227D01*
X133148796Y-55525496D01*
X133150000Y-55550000D01*
X133150000Y-56375000D01*
X133148796Y-56399504D01*
X133145196Y-56423773D01*
X133139235Y-56447571D01*
X133130970Y-56470671D01*
X133120480Y-56492849D01*
X133107867Y-56513893D01*
X133093253Y-56533598D01*
X133076777Y-56551777D01*
X133058598Y-56568253D01*
X133038893Y-56582867D01*
X133017849Y-56595480D01*
X132995671Y-56605970D01*
X132972571Y-56614235D01*
X132948773Y-56620196D01*
X132924504Y-56623796D01*
X132900000Y-56625000D01*
X132100000Y-56625000D01*
X132075496Y-56623796D01*
X132051227Y-56620196D01*
X132027429Y-56614235D01*
X132004329Y-56605970D01*
X131982151Y-56595480D01*
X131961107Y-56582867D01*
X131941402Y-56568253D01*
X131923223Y-56551777D01*
X131906747Y-56533598D01*
X131892133Y-56513893D01*
X131879520Y-56492849D01*
X131869030Y-56470671D01*
X131860765Y-56447571D01*
X131854804Y-56423773D01*
X131851204Y-56399504D01*
X131850000Y-56375000D01*
X131850000Y-55550000D01*
X131851204Y-55525496D01*
X131854804Y-55501227D01*
X131860765Y-55477429D01*
X131869030Y-55454329D01*
X131879520Y-55432151D01*
X131892133Y-55411107D01*
X131906747Y-55391402D01*
X131923223Y-55373223D01*
X131941402Y-55356747D01*
X131961107Y-55342133D01*
X131982151Y-55329520D01*
X132004329Y-55319030D01*
X132027429Y-55310765D01*
X132051227Y-55304804D01*
X132075496Y-55301204D01*
X132100000Y-55300000D01*
X132900000Y-55300000D01*
X132924504Y-55301204D01*
X132924504Y-55301204D01*
G37*
D14*
G04 #@! TD*
G04 #@! TO.P,D5,2*
G04 #@! TO.N,Net-(D2-Pad2)*
X132500000Y-55962500D03*
D12*
G04 #@! TO.N,GND*
G04 #@! TO.C,D5*
G36*
X132924504Y-53376204D02*
X132948773Y-53379804D01*
X132972571Y-53385765D01*
X132995671Y-53394030D01*
X133017849Y-53404520D01*
X133038893Y-53417133D01*
X133058598Y-53431747D01*
X133076777Y-53448223D01*
X133093253Y-53466402D01*
X133107867Y-53486107D01*
X133120480Y-53507151D01*
X133130970Y-53529329D01*
X133139235Y-53552429D01*
X133145196Y-53576227D01*
X133148796Y-53600496D01*
X133150000Y-53625000D01*
X133150000Y-54450000D01*
X133148796Y-54474504D01*
X133145196Y-54498773D01*
X133139235Y-54522571D01*
X133130970Y-54545671D01*
X133120480Y-54567849D01*
X133107867Y-54588893D01*
X133093253Y-54608598D01*
X133076777Y-54626777D01*
X133058598Y-54643253D01*
X133038893Y-54657867D01*
X133017849Y-54670480D01*
X132995671Y-54680970D01*
X132972571Y-54689235D01*
X132948773Y-54695196D01*
X132924504Y-54698796D01*
X132900000Y-54700000D01*
X132100000Y-54700000D01*
X132075496Y-54698796D01*
X132051227Y-54695196D01*
X132027429Y-54689235D01*
X132004329Y-54680970D01*
X131982151Y-54670480D01*
X131961107Y-54657867D01*
X131941402Y-54643253D01*
X131923223Y-54626777D01*
X131906747Y-54608598D01*
X131892133Y-54588893D01*
X131879520Y-54567849D01*
X131869030Y-54545671D01*
X131860765Y-54522571D01*
X131854804Y-54498773D01*
X131851204Y-54474504D01*
X131850000Y-54450000D01*
X131850000Y-53625000D01*
X131851204Y-53600496D01*
X131854804Y-53576227D01*
X131860765Y-53552429D01*
X131869030Y-53529329D01*
X131879520Y-53507151D01*
X131892133Y-53486107D01*
X131906747Y-53466402D01*
X131923223Y-53448223D01*
X131941402Y-53431747D01*
X131961107Y-53417133D01*
X131982151Y-53404520D01*
X132004329Y-53394030D01*
X132027429Y-53385765D01*
X132051227Y-53379804D01*
X132075496Y-53376204D01*
X132100000Y-53375000D01*
X132900000Y-53375000D01*
X132924504Y-53376204D01*
X132924504Y-53376204D01*
G37*
D14*
G04 #@! TD*
G04 #@! TO.P,D5,1*
G04 #@! TO.N,GND*
X132500000Y-54037500D03*
D12*
G04 #@! TO.N,Net-(D6-Pad1)*
G04 #@! TO.C,D6*
G36*
X123474504Y-89851204D02*
X123498773Y-89854804D01*
X123522571Y-89860765D01*
X123545671Y-89869030D01*
X123567849Y-89879520D01*
X123588893Y-89892133D01*
X123608598Y-89906747D01*
X123626777Y-89923223D01*
X123643253Y-89941402D01*
X123657867Y-89961107D01*
X123670480Y-89982151D01*
X123680970Y-90004329D01*
X123689235Y-90027429D01*
X123695196Y-90051227D01*
X123698796Y-90075496D01*
X123700000Y-90100000D01*
X123700000Y-90900000D01*
X123698796Y-90924504D01*
X123695196Y-90948773D01*
X123689235Y-90972571D01*
X123680970Y-90995671D01*
X123670480Y-91017849D01*
X123657867Y-91038893D01*
X123643253Y-91058598D01*
X123626777Y-91076777D01*
X123608598Y-91093253D01*
X123588893Y-91107867D01*
X123567849Y-91120480D01*
X123545671Y-91130970D01*
X123522571Y-91139235D01*
X123498773Y-91145196D01*
X123474504Y-91148796D01*
X123450000Y-91150000D01*
X122625000Y-91150000D01*
X122600496Y-91148796D01*
X122576227Y-91145196D01*
X122552429Y-91139235D01*
X122529329Y-91130970D01*
X122507151Y-91120480D01*
X122486107Y-91107867D01*
X122466402Y-91093253D01*
X122448223Y-91076777D01*
X122431747Y-91058598D01*
X122417133Y-91038893D01*
X122404520Y-91017849D01*
X122394030Y-90995671D01*
X122385765Y-90972571D01*
X122379804Y-90948773D01*
X122376204Y-90924504D01*
X122375000Y-90900000D01*
X122375000Y-90100000D01*
X122376204Y-90075496D01*
X122379804Y-90051227D01*
X122385765Y-90027429D01*
X122394030Y-90004329D01*
X122404520Y-89982151D01*
X122417133Y-89961107D01*
X122431747Y-89941402D01*
X122448223Y-89923223D01*
X122466402Y-89906747D01*
X122486107Y-89892133D01*
X122507151Y-89879520D01*
X122529329Y-89869030D01*
X122552429Y-89860765D01*
X122576227Y-89854804D01*
X122600496Y-89851204D01*
X122625000Y-89850000D01*
X123450000Y-89850000D01*
X123474504Y-89851204D01*
X123474504Y-89851204D01*
G37*
D14*
G04 #@! TD*
G04 #@! TO.P,D6,1*
G04 #@! TO.N,Net-(D6-Pad1)*
X123037500Y-90500000D03*
D12*
G04 #@! TO.N,Net-(C24-Pad1)*
G04 #@! TO.C,D6*
G36*
X125399504Y-89851204D02*
X125423773Y-89854804D01*
X125447571Y-89860765D01*
X125470671Y-89869030D01*
X125492849Y-89879520D01*
X125513893Y-89892133D01*
X125533598Y-89906747D01*
X125551777Y-89923223D01*
X125568253Y-89941402D01*
X125582867Y-89961107D01*
X125595480Y-89982151D01*
X125605970Y-90004329D01*
X125614235Y-90027429D01*
X125620196Y-90051227D01*
X125623796Y-90075496D01*
X125625000Y-90100000D01*
X125625000Y-90900000D01*
X125623796Y-90924504D01*
X125620196Y-90948773D01*
X125614235Y-90972571D01*
X125605970Y-90995671D01*
X125595480Y-91017849D01*
X125582867Y-91038893D01*
X125568253Y-91058598D01*
X125551777Y-91076777D01*
X125533598Y-91093253D01*
X125513893Y-91107867D01*
X125492849Y-91120480D01*
X125470671Y-91130970D01*
X125447571Y-91139235D01*
X125423773Y-91145196D01*
X125399504Y-91148796D01*
X125375000Y-91150000D01*
X124550000Y-91150000D01*
X124525496Y-91148796D01*
X124501227Y-91145196D01*
X124477429Y-91139235D01*
X124454329Y-91130970D01*
X124432151Y-91120480D01*
X124411107Y-91107867D01*
X124391402Y-91093253D01*
X124373223Y-91076777D01*
X124356747Y-91058598D01*
X124342133Y-91038893D01*
X124329520Y-91017849D01*
X124319030Y-90995671D01*
X124310765Y-90972571D01*
X124304804Y-90948773D01*
X124301204Y-90924504D01*
X124300000Y-90900000D01*
X124300000Y-90100000D01*
X124301204Y-90075496D01*
X124304804Y-90051227D01*
X124310765Y-90027429D01*
X124319030Y-90004329D01*
X124329520Y-89982151D01*
X124342133Y-89961107D01*
X124356747Y-89941402D01*
X124373223Y-89923223D01*
X124391402Y-89906747D01*
X124411107Y-89892133D01*
X124432151Y-89879520D01*
X124454329Y-89869030D01*
X124477429Y-89860765D01*
X124501227Y-89854804D01*
X124525496Y-89851204D01*
X124550000Y-89850000D01*
X125375000Y-89850000D01*
X125399504Y-89851204D01*
X125399504Y-89851204D01*
G37*
D14*
G04 #@! TD*
G04 #@! TO.P,D6,2*
G04 #@! TO.N,Net-(C24-Pad1)*
X124962500Y-90500000D03*
D12*
G04 #@! TO.N,Net-(D7-Pad1)*
G04 #@! TO.C,D7*
G36*
X123512004Y-100601204D02*
X123536273Y-100604804D01*
X123560071Y-100610765D01*
X123583171Y-100619030D01*
X123605349Y-100629520D01*
X123626393Y-100642133D01*
X123646098Y-100656747D01*
X123664277Y-100673223D01*
X123680753Y-100691402D01*
X123695367Y-100711107D01*
X123707980Y-100732151D01*
X123718470Y-100754329D01*
X123726735Y-100777429D01*
X123732696Y-100801227D01*
X123736296Y-100825496D01*
X123737500Y-100850000D01*
X123737500Y-101650000D01*
X123736296Y-101674504D01*
X123732696Y-101698773D01*
X123726735Y-101722571D01*
X123718470Y-101745671D01*
X123707980Y-101767849D01*
X123695367Y-101788893D01*
X123680753Y-101808598D01*
X123664277Y-101826777D01*
X123646098Y-101843253D01*
X123626393Y-101857867D01*
X123605349Y-101870480D01*
X123583171Y-101880970D01*
X123560071Y-101889235D01*
X123536273Y-101895196D01*
X123512004Y-101898796D01*
X123487500Y-101900000D01*
X122662500Y-101900000D01*
X122637996Y-101898796D01*
X122613727Y-101895196D01*
X122589929Y-101889235D01*
X122566829Y-101880970D01*
X122544651Y-101870480D01*
X122523607Y-101857867D01*
X122503902Y-101843253D01*
X122485723Y-101826777D01*
X122469247Y-101808598D01*
X122454633Y-101788893D01*
X122442020Y-101767849D01*
X122431530Y-101745671D01*
X122423265Y-101722571D01*
X122417304Y-101698773D01*
X122413704Y-101674504D01*
X122412500Y-101650000D01*
X122412500Y-100850000D01*
X122413704Y-100825496D01*
X122417304Y-100801227D01*
X122423265Y-100777429D01*
X122431530Y-100754329D01*
X122442020Y-100732151D01*
X122454633Y-100711107D01*
X122469247Y-100691402D01*
X122485723Y-100673223D01*
X122503902Y-100656747D01*
X122523607Y-100642133D01*
X122544651Y-100629520D01*
X122566829Y-100619030D01*
X122589929Y-100610765D01*
X122613727Y-100604804D01*
X122637996Y-100601204D01*
X122662500Y-100600000D01*
X123487500Y-100600000D01*
X123512004Y-100601204D01*
X123512004Y-100601204D01*
G37*
D14*
G04 #@! TD*
G04 #@! TO.P,D7,1*
G04 #@! TO.N,Net-(D7-Pad1)*
X123075000Y-101250000D03*
D12*
G04 #@! TO.N,Net-(D7-Pad2)*
G04 #@! TO.C,D7*
G36*
X125437004Y-100601204D02*
X125461273Y-100604804D01*
X125485071Y-100610765D01*
X125508171Y-100619030D01*
X125530349Y-100629520D01*
X125551393Y-100642133D01*
X125571098Y-100656747D01*
X125589277Y-100673223D01*
X125605753Y-100691402D01*
X125620367Y-100711107D01*
X125632980Y-100732151D01*
X125643470Y-100754329D01*
X125651735Y-100777429D01*
X125657696Y-100801227D01*
X125661296Y-100825496D01*
X125662500Y-100850000D01*
X125662500Y-101650000D01*
X125661296Y-101674504D01*
X125657696Y-101698773D01*
X125651735Y-101722571D01*
X125643470Y-101745671D01*
X125632980Y-101767849D01*
X125620367Y-101788893D01*
X125605753Y-101808598D01*
X125589277Y-101826777D01*
X125571098Y-101843253D01*
X125551393Y-101857867D01*
X125530349Y-101870480D01*
X125508171Y-101880970D01*
X125485071Y-101889235D01*
X125461273Y-101895196D01*
X125437004Y-101898796D01*
X125412500Y-101900000D01*
X124587500Y-101900000D01*
X124562996Y-101898796D01*
X124538727Y-101895196D01*
X124514929Y-101889235D01*
X124491829Y-101880970D01*
X124469651Y-101870480D01*
X124448607Y-101857867D01*
X124428902Y-101843253D01*
X124410723Y-101826777D01*
X124394247Y-101808598D01*
X124379633Y-101788893D01*
X124367020Y-101767849D01*
X124356530Y-101745671D01*
X124348265Y-101722571D01*
X124342304Y-101698773D01*
X124338704Y-101674504D01*
X124337500Y-101650000D01*
X124337500Y-100850000D01*
X124338704Y-100825496D01*
X124342304Y-100801227D01*
X124348265Y-100777429D01*
X124356530Y-100754329D01*
X124367020Y-100732151D01*
X124379633Y-100711107D01*
X124394247Y-100691402D01*
X124410723Y-100673223D01*
X124428902Y-100656747D01*
X124448607Y-100642133D01*
X124469651Y-100629520D01*
X124491829Y-100619030D01*
X124514929Y-100610765D01*
X124538727Y-100604804D01*
X124562996Y-100601204D01*
X124587500Y-100600000D01*
X125412500Y-100600000D01*
X125437004Y-100601204D01*
X125437004Y-100601204D01*
G37*
D14*
G04 #@! TD*
G04 #@! TO.P,D7,2*
G04 #@! TO.N,Net-(D7-Pad2)*
X125000000Y-101250000D03*
D15*
G04 #@! TO.P,J2,1*
G04 #@! TO.N,Net-(J2-Pad1)*
X146500000Y-105000000D03*
D16*
G04 #@! TO.P,J2,2*
G04 #@! TO.N,Net-(J2-Pad2)*
X144000000Y-105000000D03*
G04 #@! TD*
D15*
G04 #@! TO.P,J4,1*
G04 #@! TO.N,Net-(C25-Pad1)*
X130000000Y-105000000D03*
D16*
G04 #@! TO.P,J4,2*
G04 #@! TO.N,GND*
X127500000Y-105000000D03*
G04 #@! TD*
D17*
G04 #@! TO.P,J5,1*
G04 #@! TO.N,+3V3*
X166630000Y-66750000D03*
D18*
G04 #@! TO.P,J5,2*
G04 #@! TO.N,/SWDIO*
X164090000Y-66750000D03*
G04 #@! TO.P,J5,3*
G04 #@! TO.N,/SWCLK*
X161550000Y-66750000D03*
G04 #@! TO.P,J5,4*
G04 #@! TO.N,GND*
X159010000Y-66750000D03*
G04 #@! TD*
G04 #@! TO.P,J6,4*
G04 #@! TO.N,GND*
X150390000Y-84950000D03*
G04 #@! TO.P,J6,3*
G04 #@! TO.N,/USB-*
X147850000Y-84950000D03*
G04 #@! TO.P,J6,2*
G04 #@! TO.N,/USB+*
X145310000Y-84950000D03*
D17*
G04 #@! TO.P,J6,1*
G04 #@! TO.N,/VIN-BAT*
X142770000Y-84950000D03*
G04 #@! TD*
D12*
G04 #@! TO.N,Net-(D2-Pad2)*
G04 #@! TO.C,R15*
G36*
X163974505Y-59901204D02*
X163998773Y-59904804D01*
X164022572Y-59910765D01*
X164045671Y-59919030D01*
X164067850Y-59929520D01*
X164088893Y-59942132D01*
X164108599Y-59956747D01*
X164126777Y-59973223D01*
X164143253Y-59991401D01*
X164157868Y-60011107D01*
X164170480Y-60032150D01*
X164180970Y-60054329D01*
X164189235Y-60077428D01*
X164195196Y-60101227D01*
X164198796Y-60125495D01*
X164200000Y-60149999D01*
X164200000Y-61050001D01*
X164198796Y-61074505D01*
X164195196Y-61098773D01*
X164189235Y-61122572D01*
X164180970Y-61145671D01*
X164170480Y-61167850D01*
X164157868Y-61188893D01*
X164143253Y-61208599D01*
X164126777Y-61226777D01*
X164108599Y-61243253D01*
X164088893Y-61257868D01*
X164067850Y-61270480D01*
X164045671Y-61280970D01*
X164022572Y-61289235D01*
X163998773Y-61295196D01*
X163974505Y-61298796D01*
X163950001Y-61300000D01*
X163299999Y-61300000D01*
X163275495Y-61298796D01*
X163251227Y-61295196D01*
X163227428Y-61289235D01*
X163204329Y-61280970D01*
X163182150Y-61270480D01*
X163161107Y-61257868D01*
X163141401Y-61243253D01*
X163123223Y-61226777D01*
X163106747Y-61208599D01*
X163092132Y-61188893D01*
X163079520Y-61167850D01*
X163069030Y-61145671D01*
X163060765Y-61122572D01*
X163054804Y-61098773D01*
X163051204Y-61074505D01*
X163050000Y-61050001D01*
X163050000Y-60149999D01*
X163051204Y-60125495D01*
X163054804Y-60101227D01*
X163060765Y-60077428D01*
X163069030Y-60054329D01*
X163079520Y-60032150D01*
X163092132Y-60011107D01*
X163106747Y-59991401D01*
X163123223Y-59973223D01*
X163141401Y-59956747D01*
X163161107Y-59942132D01*
X163182150Y-59929520D01*
X163204329Y-59919030D01*
X163227428Y-59910765D01*
X163251227Y-59904804D01*
X163275495Y-59901204D01*
X163299999Y-59900000D01*
X163950001Y-59900000D01*
X163974505Y-59901204D01*
X163974505Y-59901204D01*
G37*
D13*
G04 #@! TD*
G04 #@! TO.P,R15,2*
G04 #@! TO.N,Net-(D2-Pad2)*
X163625000Y-60600000D03*
D12*
G04 #@! TO.N,/LCD_LED*
G04 #@! TO.C,R15*
G36*
X161924505Y-59901204D02*
X161948773Y-59904804D01*
X161972572Y-59910765D01*
X161995671Y-59919030D01*
X162017850Y-59929520D01*
X162038893Y-59942132D01*
X162058599Y-59956747D01*
X162076777Y-59973223D01*
X162093253Y-59991401D01*
X162107868Y-60011107D01*
X162120480Y-60032150D01*
X162130970Y-60054329D01*
X162139235Y-60077428D01*
X162145196Y-60101227D01*
X162148796Y-60125495D01*
X162150000Y-60149999D01*
X162150000Y-61050001D01*
X162148796Y-61074505D01*
X162145196Y-61098773D01*
X162139235Y-61122572D01*
X162130970Y-61145671D01*
X162120480Y-61167850D01*
X162107868Y-61188893D01*
X162093253Y-61208599D01*
X162076777Y-61226777D01*
X162058599Y-61243253D01*
X162038893Y-61257868D01*
X162017850Y-61270480D01*
X161995671Y-61280970D01*
X161972572Y-61289235D01*
X161948773Y-61295196D01*
X161924505Y-61298796D01*
X161900001Y-61300000D01*
X161249999Y-61300000D01*
X161225495Y-61298796D01*
X161201227Y-61295196D01*
X161177428Y-61289235D01*
X161154329Y-61280970D01*
X161132150Y-61270480D01*
X161111107Y-61257868D01*
X161091401Y-61243253D01*
X161073223Y-61226777D01*
X161056747Y-61208599D01*
X161042132Y-61188893D01*
X161029520Y-61167850D01*
X161019030Y-61145671D01*
X161010765Y-61122572D01*
X161004804Y-61098773D01*
X161001204Y-61074505D01*
X161000000Y-61050001D01*
X161000000Y-60149999D01*
X161001204Y-60125495D01*
X161004804Y-60101227D01*
X161010765Y-60077428D01*
X161019030Y-60054329D01*
X161029520Y-60032150D01*
X161042132Y-60011107D01*
X161056747Y-59991401D01*
X161073223Y-59973223D01*
X161091401Y-59956747D01*
X161111107Y-59942132D01*
X161132150Y-59929520D01*
X161154329Y-59919030D01*
X161177428Y-59910765D01*
X161201227Y-59904804D01*
X161225495Y-59901204D01*
X161249999Y-59900000D01*
X161900001Y-59900000D01*
X161924505Y-59901204D01*
X161924505Y-59901204D01*
G37*
D13*
G04 #@! TD*
G04 #@! TO.P,R15,1*
G04 #@! TO.N,/LCD_LED*
X161575000Y-60600000D03*
D12*
G04 #@! TO.N,Net-(D7-Pad2)*
G04 #@! TO.C,R17*
G36*
X123474505Y-94201204D02*
X123498773Y-94204804D01*
X123522572Y-94210765D01*
X123545671Y-94219030D01*
X123567850Y-94229520D01*
X123588893Y-94242132D01*
X123608599Y-94256747D01*
X123626777Y-94273223D01*
X123643253Y-94291401D01*
X123657868Y-94311107D01*
X123670480Y-94332150D01*
X123680970Y-94354329D01*
X123689235Y-94377428D01*
X123695196Y-94401227D01*
X123698796Y-94425495D01*
X123700000Y-94449999D01*
X123700000Y-95100001D01*
X123698796Y-95124505D01*
X123695196Y-95148773D01*
X123689235Y-95172572D01*
X123680970Y-95195671D01*
X123670480Y-95217850D01*
X123657868Y-95238893D01*
X123643253Y-95258599D01*
X123626777Y-95276777D01*
X123608599Y-95293253D01*
X123588893Y-95307868D01*
X123567850Y-95320480D01*
X123545671Y-95330970D01*
X123522572Y-95339235D01*
X123498773Y-95345196D01*
X123474505Y-95348796D01*
X123450001Y-95350000D01*
X122549999Y-95350000D01*
X122525495Y-95348796D01*
X122501227Y-95345196D01*
X122477428Y-95339235D01*
X122454329Y-95330970D01*
X122432150Y-95320480D01*
X122411107Y-95307868D01*
X122391401Y-95293253D01*
X122373223Y-95276777D01*
X122356747Y-95258599D01*
X122342132Y-95238893D01*
X122329520Y-95217850D01*
X122319030Y-95195671D01*
X122310765Y-95172572D01*
X122304804Y-95148773D01*
X122301204Y-95124505D01*
X122300000Y-95100001D01*
X122300000Y-94449999D01*
X122301204Y-94425495D01*
X122304804Y-94401227D01*
X122310765Y-94377428D01*
X122319030Y-94354329D01*
X122329520Y-94332150D01*
X122342132Y-94311107D01*
X122356747Y-94291401D01*
X122373223Y-94273223D01*
X122391401Y-94256747D01*
X122411107Y-94242132D01*
X122432150Y-94229520D01*
X122454329Y-94219030D01*
X122477428Y-94210765D01*
X122501227Y-94204804D01*
X122525495Y-94201204D01*
X122549999Y-94200000D01*
X123450001Y-94200000D01*
X123474505Y-94201204D01*
X123474505Y-94201204D01*
G37*
D13*
G04 #@! TD*
G04 #@! TO.P,R17,2*
G04 #@! TO.N,Net-(D7-Pad2)*
X123000000Y-94775000D03*
D12*
G04 #@! TO.N,Net-(D6-Pad1)*
G04 #@! TO.C,R17*
G36*
X123474505Y-92151204D02*
X123498773Y-92154804D01*
X123522572Y-92160765D01*
X123545671Y-92169030D01*
X123567850Y-92179520D01*
X123588893Y-92192132D01*
X123608599Y-92206747D01*
X123626777Y-92223223D01*
X123643253Y-92241401D01*
X123657868Y-92261107D01*
X123670480Y-92282150D01*
X123680970Y-92304329D01*
X123689235Y-92327428D01*
X123695196Y-92351227D01*
X123698796Y-92375495D01*
X123700000Y-92399999D01*
X123700000Y-93050001D01*
X123698796Y-93074505D01*
X123695196Y-93098773D01*
X123689235Y-93122572D01*
X123680970Y-93145671D01*
X123670480Y-93167850D01*
X123657868Y-93188893D01*
X123643253Y-93208599D01*
X123626777Y-93226777D01*
X123608599Y-93243253D01*
X123588893Y-93257868D01*
X123567850Y-93270480D01*
X123545671Y-93280970D01*
X123522572Y-93289235D01*
X123498773Y-93295196D01*
X123474505Y-93298796D01*
X123450001Y-93300000D01*
X122549999Y-93300000D01*
X122525495Y-93298796D01*
X122501227Y-93295196D01*
X122477428Y-93289235D01*
X122454329Y-93280970D01*
X122432150Y-93270480D01*
X122411107Y-93257868D01*
X122391401Y-93243253D01*
X122373223Y-93226777D01*
X122356747Y-93208599D01*
X122342132Y-93188893D01*
X122329520Y-93167850D01*
X122319030Y-93145671D01*
X122310765Y-93122572D01*
X122304804Y-93098773D01*
X122301204Y-93074505D01*
X122300000Y-93050001D01*
X122300000Y-92399999D01*
X122301204Y-92375495D01*
X122304804Y-92351227D01*
X122310765Y-92327428D01*
X122319030Y-92304329D01*
X122329520Y-92282150D01*
X122342132Y-92261107D01*
X122356747Y-92241401D01*
X122373223Y-92223223D01*
X122391401Y-92206747D01*
X122411107Y-92192132D01*
X122432150Y-92179520D01*
X122454329Y-92169030D01*
X122477428Y-92160765D01*
X122501227Y-92154804D01*
X122525495Y-92151204D01*
X122549999Y-92150000D01*
X123450001Y-92150000D01*
X123474505Y-92151204D01*
X123474505Y-92151204D01*
G37*
D13*
G04 #@! TD*
G04 #@! TO.P,R17,1*
G04 #@! TO.N,Net-(D6-Pad1)*
X123000000Y-92725000D03*
D12*
G04 #@! TO.N,GND*
G04 #@! TO.C,R18*
G36*
X123474505Y-96126204D02*
X123498773Y-96129804D01*
X123522572Y-96135765D01*
X123545671Y-96144030D01*
X123567850Y-96154520D01*
X123588893Y-96167132D01*
X123608599Y-96181747D01*
X123626777Y-96198223D01*
X123643253Y-96216401D01*
X123657868Y-96236107D01*
X123670480Y-96257150D01*
X123680970Y-96279329D01*
X123689235Y-96302428D01*
X123695196Y-96326227D01*
X123698796Y-96350495D01*
X123700000Y-96374999D01*
X123700000Y-97025001D01*
X123698796Y-97049505D01*
X123695196Y-97073773D01*
X123689235Y-97097572D01*
X123680970Y-97120671D01*
X123670480Y-97142850D01*
X123657868Y-97163893D01*
X123643253Y-97183599D01*
X123626777Y-97201777D01*
X123608599Y-97218253D01*
X123588893Y-97232868D01*
X123567850Y-97245480D01*
X123545671Y-97255970D01*
X123522572Y-97264235D01*
X123498773Y-97270196D01*
X123474505Y-97273796D01*
X123450001Y-97275000D01*
X122549999Y-97275000D01*
X122525495Y-97273796D01*
X122501227Y-97270196D01*
X122477428Y-97264235D01*
X122454329Y-97255970D01*
X122432150Y-97245480D01*
X122411107Y-97232868D01*
X122391401Y-97218253D01*
X122373223Y-97201777D01*
X122356747Y-97183599D01*
X122342132Y-97163893D01*
X122329520Y-97142850D01*
X122319030Y-97120671D01*
X122310765Y-97097572D01*
X122304804Y-97073773D01*
X122301204Y-97049505D01*
X122300000Y-97025001D01*
X122300000Y-96374999D01*
X122301204Y-96350495D01*
X122304804Y-96326227D01*
X122310765Y-96302428D01*
X122319030Y-96279329D01*
X122329520Y-96257150D01*
X122342132Y-96236107D01*
X122356747Y-96216401D01*
X122373223Y-96198223D01*
X122391401Y-96181747D01*
X122411107Y-96167132D01*
X122432150Y-96154520D01*
X122454329Y-96144030D01*
X122477428Y-96135765D01*
X122501227Y-96129804D01*
X122525495Y-96126204D01*
X122549999Y-96125000D01*
X123450001Y-96125000D01*
X123474505Y-96126204D01*
X123474505Y-96126204D01*
G37*
D13*
G04 #@! TD*
G04 #@! TO.P,R18,2*
G04 #@! TO.N,GND*
X123000000Y-96700000D03*
D12*
G04 #@! TO.N,Net-(D7-Pad1)*
G04 #@! TO.C,R18*
G36*
X123474505Y-98176204D02*
X123498773Y-98179804D01*
X123522572Y-98185765D01*
X123545671Y-98194030D01*
X123567850Y-98204520D01*
X123588893Y-98217132D01*
X123608599Y-98231747D01*
X123626777Y-98248223D01*
X123643253Y-98266401D01*
X123657868Y-98286107D01*
X123670480Y-98307150D01*
X123680970Y-98329329D01*
X123689235Y-98352428D01*
X123695196Y-98376227D01*
X123698796Y-98400495D01*
X123700000Y-98424999D01*
X123700000Y-99075001D01*
X123698796Y-99099505D01*
X123695196Y-99123773D01*
X123689235Y-99147572D01*
X123680970Y-99170671D01*
X123670480Y-99192850D01*
X123657868Y-99213893D01*
X123643253Y-99233599D01*
X123626777Y-99251777D01*
X123608599Y-99268253D01*
X123588893Y-99282868D01*
X123567850Y-99295480D01*
X123545671Y-99305970D01*
X123522572Y-99314235D01*
X123498773Y-99320196D01*
X123474505Y-99323796D01*
X123450001Y-99325000D01*
X122549999Y-99325000D01*
X122525495Y-99323796D01*
X122501227Y-99320196D01*
X122477428Y-99314235D01*
X122454329Y-99305970D01*
X122432150Y-99295480D01*
X122411107Y-99282868D01*
X122391401Y-99268253D01*
X122373223Y-99251777D01*
X122356747Y-99233599D01*
X122342132Y-99213893D01*
X122329520Y-99192850D01*
X122319030Y-99170671D01*
X122310765Y-99147572D01*
X122304804Y-99123773D01*
X122301204Y-99099505D01*
X122300000Y-99075001D01*
X122300000Y-98424999D01*
X122301204Y-98400495D01*
X122304804Y-98376227D01*
X122310765Y-98352428D01*
X122319030Y-98329329D01*
X122329520Y-98307150D01*
X122342132Y-98286107D01*
X122356747Y-98266401D01*
X122373223Y-98248223D01*
X122391401Y-98231747D01*
X122411107Y-98217132D01*
X122432150Y-98204520D01*
X122454329Y-98194030D01*
X122477428Y-98185765D01*
X122501227Y-98179804D01*
X122525495Y-98176204D01*
X122549999Y-98175000D01*
X123450001Y-98175000D01*
X123474505Y-98176204D01*
X123474505Y-98176204D01*
G37*
D13*
G04 #@! TD*
G04 #@! TO.P,R18,1*
G04 #@! TO.N,Net-(D7-Pad1)*
X123000000Y-98750000D03*
D19*
G04 #@! TO.P,SW1,*
G04 #@! TO.N,*
X125990000Y-80240000D03*
D20*
G04 #@! TO.P,SW1,2*
G04 #@! TO.N,Net-(SW1-Pad2)*
X123500000Y-81500000D03*
G04 #@! TO.P,SW1,1*
G04 #@! TO.N,GND*
X123500000Y-86000000D03*
D19*
G04 #@! TO.P,SW1,*
G04 #@! TO.N,*
X125990000Y-87250000D03*
G04 #@! TD*
G04 #@! TO.P,SW2,*
G04 #@! TO.N,*
X170010000Y-92250000D03*
D20*
G04 #@! TO.P,SW2,1*
G04 #@! TO.N,GND*
X172500000Y-93500000D03*
G04 #@! TO.P,SW2,2*
G04 #@! TO.N,Net-(SW2-Pad2)*
X172500000Y-98000000D03*
D19*
G04 #@! TO.P,SW2,*
G04 #@! TO.N,*
X170010000Y-99260000D03*
G04 #@! TD*
G04 #@! TO.P,SW3,*
G04 #@! TO.N,*
X170010000Y-88760000D03*
D20*
G04 #@! TO.P,SW3,2*
G04 #@! TO.N,Net-(SW3-Pad2)*
X172500000Y-87500000D03*
G04 #@! TO.P,SW3,1*
G04 #@! TO.N,GND*
X172500000Y-83000000D03*
D19*
G04 #@! TO.P,SW3,*
G04 #@! TO.N,*
X170010000Y-81750000D03*
G04 #@! TD*
G04 #@! TO.P,SW4,*
G04 #@! TO.N,*
X170010000Y-71250000D03*
D20*
G04 #@! TO.P,SW4,1*
G04 #@! TO.N,GND*
X172500000Y-72500000D03*
G04 #@! TO.P,SW4,2*
G04 #@! TO.N,Net-(SW4-Pad2)*
X172500000Y-77000000D03*
D19*
G04 #@! TO.P,SW4,*
G04 #@! TO.N,*
X170010000Y-78260000D03*
G04 #@! TD*
D16*
G04 #@! TO.P,SW5,2*
G04 #@! TO.N,/VIN-BAT*
X135700000Y-105000000D03*
D15*
G04 #@! TO.P,SW5,1*
G04 #@! TO.N,Net-(C25-Pad1)*
X138200000Y-105000000D03*
G04 #@! TD*
D21*
G04 #@! TO.P,Y1,1*
G04 #@! TO.N,Net-(C1-Pad2)*
X150000000Y-57000000D03*
G04 #@! TO.P,Y1,2*
G04 #@! TO.N,Net-(C2-Pad2)*
X145120000Y-57000000D03*
G04 #@! TD*
D22*
G04 #@! TO.N,Net-(J1-Pad7)*
X145500000Y-88900000D03*
X153900000Y-89850000D03*
G04 #@! TO.N,GND*
X124950000Y-96550000D03*
X133500000Y-101000000D03*
X130800000Y-101550000D03*
X136900000Y-89800000D03*
X131700000Y-89150000D03*
X141650000Y-95600000D03*
X156200000Y-89800000D03*
X159450000Y-86550000D03*
X166700000Y-86500000D03*
X161400000Y-75400000D03*
X135050000Y-72500000D03*
X133300000Y-69700000D03*
X133450000Y-66500000D03*
X132500000Y-51700000D03*
X132500000Y-41350000D03*
X161450000Y-50850000D03*
X163500000Y-41200000D03*
X156100000Y-70950000D03*
X152600000Y-59500000D03*
X153500000Y-54950000D03*
X132750000Y-59400000D03*
X138300000Y-51350000D03*
X143250000Y-64300000D03*
X142850000Y-82450000D03*
X155500000Y-86350000D03*
X149400000Y-34250000D03*
X145100000Y-68750000D03*
X159950000Y-64100000D03*
X154100000Y-62700000D03*
X161250000Y-69350000D03*
G04 #@! TO.N,Net-(J1-Pad5)*
X145500000Y-91900000D03*
X156300000Y-94950000D03*
G04 #@! TO.N,Net-(J1-Pad3)*
X145450000Y-90350000D03*
X158400000Y-89800000D03*
G04 #@! TO.N,+3V3*
X141700000Y-32600000D03*
X137250000Y-56500000D03*
X136000000Y-53000000D03*
X137750000Y-72500000D03*
X139500000Y-70750000D03*
X138600000Y-95450000D03*
X129400000Y-78000000D03*
X155650000Y-81050000D03*
X149250000Y-71250000D03*
X142450000Y-28800000D03*
G04 #@! TO.N,/3V-OUT*
X135300000Y-77450000D03*
X129600000Y-89200000D03*
X153350000Y-87800000D03*
X146600000Y-78650000D03*
G04 #@! TO.N,Net-(C24-Pad1)*
X131450000Y-94800000D03*
G04 #@! TO.N,Net-(C25-Pad1)*
X133450000Y-95000000D03*
X128100000Y-102450000D03*
G04 #@! TO.N,/VIN-BAT*
X135200000Y-88100000D03*
G04 #@! TO.N,Net-(D2-Pad2)*
X139600000Y-49450000D03*
X162700000Y-49450000D03*
G04 #@! TO.N,Net-(D7-Pad2)*
X141850000Y-97200000D03*
G04 #@! TO.N,/LCD_LED*
X157000000Y-68250000D03*
G04 #@! TO.N,/YX_TX*
X131400000Y-69800000D03*
X132500000Y-72218990D03*
G04 #@! TO.N,/YX_RX*
X129950000Y-69800000D03*
X131050000Y-72500000D03*
G04 #@! TO.N,/LCD_CLK*
X153350000Y-61400000D03*
G04 #@! TO.N,/LCD_DIN*
X155550000Y-62150000D03*
G04 #@! TO.N,/LCD_DC*
X156849145Y-61997955D03*
G04 #@! TO.N,/LCD_RST*
X159450000Y-62050000D03*
G04 #@! TO.N,/LCD_CE*
X158000000Y-62650000D03*
G04 #@! TO.N,/BLE_RX*
X140350000Y-61350000D03*
X153650000Y-41050000D03*
G04 #@! TO.N,/BLE_TX*
X139200000Y-62450000D03*
X150350000Y-42350000D03*
G04 #@! TO.N,/BLE_EN*
X137800000Y-63000000D03*
X153400000Y-39300000D03*
G04 #@! TO.N,/BLE_PWR*
X136300000Y-63600000D03*
X152300000Y-38200000D03*
G04 #@! TO.N,/BLE_RST*
X134750000Y-63650000D03*
X153350000Y-36450000D03*
G04 #@! TO.N,/TX1*
X143800000Y-73100000D03*
X160950000Y-72250000D03*
G04 #@! TO.N,/RX1*
X145550000Y-73000000D03*
X159650000Y-71550000D03*
G04 #@! TD*
D23*
G04 #@! TO.N,Net-(J1-Pad7)*
X145500000Y-88900000D02*
X146450000Y-89850000D01*
X146450000Y-89850000D02*
X153900000Y-89850000D01*
G04 #@! TO.N,GND*
X123000000Y-96700000D02*
X124800000Y-96700000D01*
X124800000Y-96700000D02*
X124950000Y-96550000D01*
D24*
X133500000Y-101000000D02*
X131350000Y-101000000D01*
X131350000Y-101000000D02*
X130800000Y-101550000D01*
X136900000Y-89800000D02*
X133600000Y-89800000D01*
X133600000Y-89800000D02*
X132950000Y-89150000D01*
X132950000Y-89150000D02*
X131700000Y-89150000D01*
X137050000Y-89650000D02*
X136900000Y-89800000D01*
X140300000Y-89650000D02*
X137050000Y-89650000D01*
X141096001Y-90446001D02*
X140300000Y-89650000D01*
X141650000Y-95600000D02*
X141096001Y-95046001D01*
X141096001Y-95046001D02*
X141096001Y-90446001D01*
X141100000Y-96150000D02*
X141650000Y-95600000D01*
X140350000Y-96150000D02*
X141100000Y-96150000D01*
X139950000Y-96550000D02*
X140350000Y-96150000D01*
X139950000Y-99700000D02*
X139950000Y-96550000D01*
X133500000Y-101000000D02*
X138650000Y-101000000D01*
X138650000Y-101000000D02*
X139950000Y-99700000D01*
D25*
X156200000Y-89800000D02*
X156753999Y-89246001D01*
D24*
X172500000Y-84200000D02*
X172500000Y-83000000D01*
X171600000Y-85100000D02*
X172500000Y-84200000D01*
X168883474Y-85100000D02*
X171600000Y-85100000D01*
X166700000Y-86500000D02*
X167483474Y-86500000D01*
X167833474Y-86150000D02*
X167833474Y-93783474D01*
X167483474Y-86500000D02*
X167833474Y-86150000D01*
X167833474Y-86150000D02*
X168883474Y-85100000D01*
X167833474Y-93783474D02*
X168850000Y-94800000D01*
X171200000Y-94800000D02*
X172500000Y-93500000D01*
X168850000Y-94800000D02*
X171200000Y-94800000D01*
X171900000Y-72500000D02*
X172500000Y-72500000D01*
X167833474Y-86150000D02*
X168050000Y-85933474D01*
X168050000Y-85933474D02*
X168050000Y-76350000D01*
D23*
X168146001Y-74846001D02*
X168850000Y-75550000D01*
X161400000Y-75400000D02*
X161953999Y-74846001D01*
D24*
X168050000Y-76350000D02*
X168850000Y-75550000D01*
X168850000Y-75550000D02*
X171900000Y-72500000D01*
D23*
X134496001Y-71946001D02*
X134146001Y-71946001D01*
X135050000Y-72500000D02*
X134496001Y-71946001D01*
X134146001Y-71946001D02*
X133300000Y-71100000D01*
X133300000Y-71100000D02*
X133300000Y-69700000D01*
X133300000Y-69700000D02*
X133300000Y-66650000D01*
X133300000Y-66650000D02*
X133450000Y-66500000D01*
X132500000Y-54037500D02*
X132500000Y-51700000D01*
D24*
X132500000Y-41350000D02*
X132500000Y-38962500D01*
X163450000Y-54037500D02*
X163450000Y-52850000D01*
X163450000Y-52850000D02*
X161450000Y-50850000D01*
X163500000Y-38962500D02*
X163500000Y-41200000D01*
X160812500Y-38962500D02*
X163500000Y-38962500D01*
X159700000Y-37850000D02*
X160812500Y-38962500D01*
X159700000Y-29400000D02*
X159700000Y-37850000D01*
X156525000Y-28500000D02*
X158800000Y-28500000D01*
X158800000Y-28500000D02*
X159700000Y-29400000D01*
D25*
X159010000Y-66750000D02*
X159010000Y-69190000D01*
X157250000Y-70950000D02*
X156100000Y-70950000D01*
D26*
X152600000Y-59500000D02*
X153500000Y-58600000D01*
X153500000Y-58600000D02*
X153500000Y-54950000D01*
X135700000Y-51350000D02*
X138300000Y-51350000D01*
X134400000Y-52650000D02*
X135700000Y-51350000D01*
X134400000Y-58533474D02*
X134400000Y-52650000D01*
X132750000Y-59400000D02*
X133533474Y-59400000D01*
X133533474Y-59400000D02*
X134400000Y-58533474D01*
D25*
X157750000Y-70450000D02*
X160750000Y-70450000D01*
X159010000Y-69190000D02*
X157750000Y-70450000D01*
X157750000Y-70450000D02*
X157250000Y-70950000D01*
X162250000Y-71950000D02*
X162250000Y-74846001D01*
X160750000Y-70450000D02*
X162250000Y-71950000D01*
D23*
X161953999Y-74846001D02*
X162250000Y-74846001D01*
X162250000Y-74846001D02*
X168146001Y-74846001D01*
D24*
X133600000Y-89800000D02*
X133600000Y-86550000D01*
X133600000Y-86550000D02*
X134650000Y-85500000D01*
X134650000Y-85500000D02*
X140100000Y-85500000D01*
X140100000Y-85500000D02*
X140950000Y-84650000D01*
X140950000Y-84650000D02*
X140950000Y-83150000D01*
X140950000Y-83150000D02*
X141650000Y-82450000D01*
X141650000Y-82450000D02*
X142850000Y-82450000D01*
D25*
X156753999Y-89246001D02*
X159450000Y-86550000D01*
D23*
X150390000Y-87440000D02*
X150390000Y-84950000D01*
X151750000Y-88800000D02*
X150390000Y-87440000D01*
X154400000Y-88800000D02*
X151750000Y-88800000D01*
X155500000Y-86350000D02*
X155500000Y-87700000D01*
X155500000Y-87700000D02*
X154400000Y-88800000D01*
D26*
X150000000Y-31500000D02*
X150000000Y-33254000D01*
X150000000Y-33254000D02*
X150000000Y-33650000D01*
X150000000Y-33650000D02*
X149400000Y-34250000D01*
X145100000Y-68750000D02*
X144316526Y-68750000D01*
X144316526Y-68750000D02*
X143250000Y-68750000D01*
X143250000Y-64300000D02*
X143250000Y-68750000D01*
X136250000Y-73700000D02*
X135050000Y-72500000D01*
X139950000Y-73700000D02*
X136250000Y-73700000D01*
X141450000Y-72200000D02*
X139950000Y-73700000D01*
X141450000Y-69800000D02*
X141450000Y-72200000D01*
X143250000Y-68750000D02*
X142500000Y-68750000D01*
X142500000Y-68750000D02*
X141450000Y-69800000D01*
D23*
X154600000Y-62700000D02*
X154100000Y-62700000D01*
X159950000Y-64100000D02*
X156000000Y-64100000D01*
X156000000Y-64100000D02*
X154600000Y-62700000D01*
D25*
X160696001Y-70396001D02*
X160750000Y-70450000D01*
X160696001Y-69903999D02*
X160696001Y-70396001D01*
X161250000Y-69350000D02*
X160696001Y-69903999D01*
D23*
G04 #@! TO.N,Net-(J1-Pad5)*
X156250000Y-94950000D02*
X156300000Y-94950000D01*
X145500000Y-91900000D02*
X153200000Y-91900000D01*
X153200000Y-91900000D02*
X156250000Y-94950000D01*
G04 #@! TO.N,Net-(J1-Pad3)*
X158400000Y-90050000D02*
X158400000Y-89800000D01*
X157450000Y-91000000D02*
X158400000Y-90050000D01*
X146883474Y-91000000D02*
X157450000Y-91000000D01*
X145450000Y-90350000D02*
X146233474Y-90350000D01*
X146233474Y-90350000D02*
X146883474Y-91000000D01*
D25*
G04 #@! TO.N,+3V3*
X149000000Y-31500000D02*
X149000000Y-29000000D01*
X149000000Y-29000000D02*
X148700000Y-28700000D01*
X148700000Y-28700000D02*
X144400000Y-28700000D01*
X144000000Y-29100000D02*
X144000000Y-31500000D01*
X144400000Y-28700000D02*
X144000000Y-29100000D01*
D24*
X144000000Y-31500000D02*
X142800000Y-31500000D01*
X142800000Y-31500000D02*
X141700000Y-32600000D01*
D26*
X137750000Y-72500000D02*
X139500000Y-70750000D01*
D25*
X138600000Y-94666526D02*
X139250000Y-94016526D01*
X138600000Y-95450000D02*
X138600000Y-94666526D01*
X139250000Y-94016526D02*
X139250000Y-91900000D01*
X139250000Y-91900000D02*
X138700000Y-91350000D01*
X138700000Y-91350000D02*
X129150000Y-91350000D01*
X129150000Y-91350000D02*
X128050000Y-90250000D01*
X128050000Y-90250000D02*
X128050000Y-88650000D01*
X128050000Y-88650000D02*
X128750000Y-87950000D01*
X128750000Y-87950000D02*
X128750000Y-78650000D01*
X128750000Y-78650000D02*
X129400000Y-78000000D01*
D24*
X128750000Y-78650000D02*
X128100000Y-78650000D01*
X128100000Y-78650000D02*
X127150000Y-77700000D01*
X127150000Y-77700000D02*
X127150000Y-66750000D01*
X127150000Y-66750000D02*
X129850000Y-64050000D01*
X129850000Y-64050000D02*
X131750000Y-64050000D01*
X131750000Y-64050000D02*
X133450000Y-62350000D01*
X133450000Y-62350000D02*
X133450000Y-61300000D01*
X133450000Y-61300000D02*
X135750000Y-59000000D01*
X135750000Y-56500000D02*
X136500000Y-55750000D01*
X135750000Y-59000000D02*
X135750000Y-56500000D01*
X137250000Y-56500000D02*
X136500000Y-55750000D01*
X136000000Y-55250000D02*
X136000000Y-53000000D01*
X136500000Y-55750000D02*
X136000000Y-55250000D01*
X156203999Y-80496001D02*
X156203999Y-76303999D01*
X155650000Y-81050000D02*
X156203999Y-80496001D01*
X156203999Y-76303999D02*
X153950000Y-74050000D01*
X153950000Y-74050000D02*
X150450000Y-74050000D01*
X150450000Y-74050000D02*
X149250000Y-72850000D01*
X149250000Y-72850000D02*
X149250000Y-71250000D01*
X144000000Y-29100000D02*
X142750000Y-29100000D01*
X142750000Y-29100000D02*
X142450000Y-28800000D01*
D25*
G04 #@! TO.N,/3V-OUT*
X134550000Y-78200000D02*
X135300000Y-77450000D01*
X131200000Y-78200000D02*
X134550000Y-78200000D01*
X130153999Y-79246001D02*
X131200000Y-78200000D01*
X129600000Y-89200000D02*
X130153999Y-88646001D01*
X130153999Y-88646001D02*
X130153999Y-79246001D01*
X153350000Y-87800000D02*
X153350000Y-85400000D01*
X147153999Y-79203999D02*
X146600000Y-78650000D01*
X153350000Y-85400000D02*
X147153999Y-79203999D01*
D23*
X145400000Y-77450000D02*
X146046001Y-78096001D01*
X135300000Y-77450000D02*
X145400000Y-77450000D01*
X146046001Y-78096001D02*
X146600000Y-78650000D01*
D26*
G04 #@! TO.N,Net-(C23-Pad1)*
X153800000Y-28500000D02*
X154475000Y-28500000D01*
X152246000Y-28500000D02*
X153800000Y-28500000D01*
X151000000Y-29746000D02*
X152246000Y-28500000D01*
X151000000Y-31500000D02*
X151000000Y-29746000D01*
D23*
G04 #@! TO.N,Net-(C24-Pad1)*
X125725000Y-90500000D02*
X127575000Y-92350000D01*
X124962500Y-90500000D02*
X125725000Y-90500000D01*
X127575000Y-92350000D02*
X130600000Y-92350000D01*
X130600000Y-92350000D02*
X131450000Y-93200000D01*
X131450000Y-93200000D02*
X131450000Y-94800000D01*
D25*
G04 #@! TO.N,Net-(C25-Pad1)*
X138200000Y-103600000D02*
X138200000Y-105000000D01*
X137850000Y-103250000D02*
X138200000Y-103600000D01*
X130350000Y-103250000D02*
X137850000Y-103250000D01*
X130000000Y-103600000D02*
X130350000Y-103250000D01*
X130000000Y-105000000D02*
X130000000Y-103600000D01*
X133450000Y-95783474D02*
X131733474Y-97500000D01*
X133450000Y-95000000D02*
X133450000Y-95783474D01*
X131733474Y-97500000D02*
X130000000Y-97500000D01*
X130000000Y-97500000D02*
X129150000Y-98350000D01*
X129150000Y-98350000D02*
X129150000Y-101400000D01*
X129150000Y-101400000D02*
X128100000Y-102450000D01*
G04 #@! TO.N,/VIN-BAT*
X135753999Y-87546001D02*
X141703999Y-87546001D01*
X135200000Y-88100000D02*
X135753999Y-87546001D01*
X142770000Y-86480000D02*
X142770000Y-84950000D01*
X141703999Y-87546001D02*
X142770000Y-86480000D01*
D26*
G04 #@! TO.N,Net-(D2-Pad2)*
X163625000Y-56137500D02*
X163450000Y-55962500D01*
X163625000Y-60600000D02*
X163625000Y-56137500D01*
D25*
X163450000Y-55962500D02*
X164687500Y-55962500D01*
X164687500Y-55962500D02*
X165200000Y-55450000D01*
X164637500Y-37037500D02*
X163500000Y-37037500D01*
X165200000Y-37600000D02*
X164637500Y-37037500D01*
X131750000Y-55962500D02*
X130850000Y-55062500D01*
X132500000Y-55962500D02*
X131750000Y-55962500D01*
X131562500Y-37037500D02*
X132500000Y-37037500D01*
X130850000Y-37750000D02*
X131562500Y-37037500D01*
X139550000Y-49500000D02*
X139600000Y-49450000D01*
X130850000Y-49500000D02*
X139550000Y-49500000D01*
X130850000Y-55062500D02*
X130850000Y-49500000D01*
X130850000Y-49500000D02*
X130850000Y-37750000D01*
X163883474Y-49850000D02*
X165200000Y-49850000D01*
X163483474Y-49450000D02*
X163883474Y-49850000D01*
X162700000Y-49450000D02*
X163483474Y-49450000D01*
X165200000Y-55450000D02*
X165200000Y-49850000D01*
X165200000Y-49850000D02*
X165200000Y-37600000D01*
D23*
G04 #@! TO.N,Net-(D6-Pad1)*
X123037500Y-92687500D02*
X123000000Y-92725000D01*
X123037500Y-90500000D02*
X123037500Y-92687500D01*
G04 #@! TO.N,Net-(D7-Pad1)*
X123000000Y-101175000D02*
X123075000Y-101250000D01*
X123000000Y-98750000D02*
X123000000Y-101175000D01*
G04 #@! TO.N,Net-(D7-Pad2)*
X123623372Y-95398372D02*
X127548372Y-95398372D01*
X123000000Y-94775000D02*
X123623372Y-95398372D01*
D26*
X128300000Y-96050000D02*
X128300000Y-99600000D01*
X127548372Y-95398372D02*
X127648372Y-95398372D01*
X127648372Y-95398372D02*
X128300000Y-96050000D01*
D23*
X125850000Y-101250000D02*
X125000000Y-101250000D01*
X128300000Y-99600000D02*
X126650000Y-101250000D01*
X126650000Y-101250000D02*
X125850000Y-101250000D01*
X140750000Y-102650000D02*
X141850000Y-101550000D01*
X141850000Y-101550000D02*
X141850000Y-97200000D01*
X129350000Y-102650000D02*
X140750000Y-102650000D01*
X129350000Y-102650000D02*
X129300000Y-102650000D01*
X129350000Y-102650000D02*
X129250000Y-102650000D01*
X129250000Y-102650000D02*
X128450000Y-103450000D01*
X128450000Y-103450000D02*
X126450000Y-103450000D01*
X125000000Y-102000000D02*
X125000000Y-101250000D01*
X126450000Y-103450000D02*
X125000000Y-102000000D01*
D26*
G04 #@! TO.N,/LCD_LED*
X161575000Y-64325000D02*
X161575000Y-60600000D01*
X157000000Y-67684315D02*
X157300000Y-67384315D01*
X157000000Y-68250000D02*
X157000000Y-67684315D01*
X157300000Y-67384315D02*
X157300000Y-65600000D01*
X157300000Y-65600000D02*
X157800000Y-65100000D01*
X157800000Y-65100000D02*
X160800000Y-65100000D01*
X160800000Y-65100000D02*
X161575000Y-64325000D01*
G04 #@! TO.N,/YX_TX*
X131400000Y-69800000D02*
X132500000Y-70900000D01*
X132500000Y-70900000D02*
X132500000Y-71435516D01*
X132500000Y-71435516D02*
X132500000Y-72218990D01*
G04 #@! TO.N,/YX_RX*
X131050000Y-71716526D02*
X131050000Y-72500000D01*
X131050000Y-71600000D02*
X131050000Y-71716526D01*
X129950000Y-69800000D02*
X129950000Y-70500000D01*
X129950000Y-70500000D02*
X131050000Y-71600000D01*
G04 #@! TO.N,/LCD_CLK*
X145000000Y-34500000D02*
X145000000Y-31500000D01*
X146000000Y-35500000D02*
X145850000Y-35350000D01*
X145850000Y-35350000D02*
X145000000Y-34500000D01*
X147350000Y-36850000D02*
X145850000Y-35350000D01*
X150850000Y-36850000D02*
X147350000Y-36850000D01*
X153350000Y-60616526D02*
X154950000Y-59016526D01*
X153350000Y-61400000D02*
X153350000Y-60616526D01*
X154950000Y-59016526D02*
X154950000Y-36350000D01*
X154950000Y-36350000D02*
X154100000Y-35500000D01*
X154100000Y-35500000D02*
X152200000Y-35500000D01*
X152200000Y-35500000D02*
X150850000Y-36850000D01*
G04 #@! TO.N,/LCD_DIN*
X146000000Y-33254000D02*
X146000000Y-31500000D01*
X146000000Y-34750000D02*
X146000000Y-33254000D01*
X147500000Y-36250000D02*
X146000000Y-34750000D01*
X155550000Y-61700000D02*
X155450000Y-61600000D01*
X150700000Y-36250000D02*
X147500000Y-36250000D01*
X155550000Y-62150000D02*
X155550000Y-61700000D01*
X155450000Y-61600000D02*
X155450000Y-36150000D01*
X155450000Y-36150000D02*
X154300000Y-35000000D01*
X154300000Y-35000000D02*
X151950000Y-35000000D01*
X151950000Y-35000000D02*
X150700000Y-36250000D01*
G04 #@! TO.N,/LCD_DC*
X147000000Y-33254000D02*
X147000000Y-31500000D01*
X147000000Y-34950000D02*
X147000000Y-33254000D01*
X147800000Y-35750000D02*
X147000000Y-34950000D01*
X150500000Y-35750000D02*
X147800000Y-35750000D01*
X156849145Y-61399145D02*
X155950000Y-60500000D01*
X156849145Y-61997955D02*
X156849145Y-61399145D01*
X155950000Y-60500000D02*
X155950000Y-35950000D01*
X155950000Y-35950000D02*
X154500000Y-34500000D01*
X154500000Y-34500000D02*
X151750000Y-34500000D01*
X151750000Y-34500000D02*
X150500000Y-35750000D01*
G04 #@! TO.N,/LCD_RST*
X152950000Y-31500000D02*
X152000000Y-31500000D01*
X156950000Y-35500000D02*
X152950000Y-31500000D01*
X156950000Y-58400000D02*
X156950000Y-35500000D01*
X159450000Y-62050000D02*
X159450000Y-60900000D01*
X159450000Y-60900000D02*
X156950000Y-58400000D01*
G04 #@! TO.N,/LCD_CE*
X148000000Y-33550000D02*
X148000000Y-31500000D01*
X148000000Y-34700000D02*
X148000000Y-33550000D01*
X150300000Y-35200000D02*
X148500000Y-35200000D01*
X158000000Y-60750000D02*
X156450000Y-59200000D01*
X158000000Y-62650000D02*
X158000000Y-60750000D01*
X156450000Y-59200000D02*
X156450000Y-35750000D01*
X156450000Y-35750000D02*
X154700000Y-34000000D01*
X154700000Y-34000000D02*
X151500000Y-34000000D01*
X148500000Y-35200000D02*
X148000000Y-34700000D01*
X151500000Y-34000000D02*
X150300000Y-35200000D01*
G04 #@! TO.N,/BLE_RX*
X140903999Y-60796001D02*
X142703999Y-60796001D01*
X140350000Y-61350000D02*
X140903999Y-60796001D01*
X142703999Y-60796001D02*
X143450000Y-60050000D01*
X143450000Y-60050000D02*
X143450000Y-51250000D01*
X143450000Y-51250000D02*
X153650000Y-41050000D01*
G04 #@! TO.N,/BLE_TX*
X139200000Y-62450000D02*
X139200000Y-61666526D01*
X139200000Y-61666526D02*
X139200000Y-60750000D01*
X139200000Y-60750000D02*
X139950000Y-60000000D01*
X139950000Y-60000000D02*
X142400000Y-60000000D01*
X142400000Y-60000000D02*
X142900000Y-59500000D01*
X142900000Y-59500000D02*
X142900000Y-51050000D01*
X142900000Y-51050000D02*
X150350000Y-43600000D01*
X150350000Y-43600000D02*
X150350000Y-42350000D01*
G04 #@! TO.N,/BLE_EN*
X137800000Y-62216526D02*
X138500000Y-61516526D01*
X137800000Y-63000000D02*
X137800000Y-62216526D01*
X138500000Y-61516526D02*
X138500000Y-60550000D01*
X138500000Y-60550000D02*
X139600000Y-59450000D01*
X139600000Y-59450000D02*
X142050000Y-59450000D01*
X142050000Y-59450000D02*
X142350000Y-59150000D01*
X142350000Y-59150000D02*
X142350000Y-50850000D01*
X142350000Y-50850000D02*
X149200000Y-44000000D01*
X149200000Y-44000000D02*
X149200000Y-41450000D01*
X149200000Y-41450000D02*
X150050000Y-40600000D01*
X150050000Y-40600000D02*
X152100000Y-40600000D01*
X152100000Y-40600000D02*
X153400000Y-39300000D01*
G04 #@! TO.N,/BLE_PWR*
X136300000Y-62816526D02*
X137950000Y-61166526D01*
X136300000Y-63600000D02*
X136300000Y-62816526D01*
X137950000Y-61166526D02*
X137950000Y-60300000D01*
X137950000Y-60300000D02*
X139350000Y-58900000D01*
X139350000Y-58900000D02*
X141650000Y-58900000D01*
X141650000Y-58900000D02*
X141800000Y-58750000D01*
X141800000Y-58750000D02*
X141800000Y-50600000D01*
X141800000Y-50600000D02*
X148600000Y-43800000D01*
X148600000Y-43800000D02*
X148600000Y-41150000D01*
X148600000Y-41150000D02*
X149750000Y-40000000D01*
X149750000Y-40000000D02*
X151750000Y-40000000D01*
X151750000Y-40000000D02*
X152300000Y-39450000D01*
X152300000Y-39450000D02*
X152300000Y-38200000D01*
G04 #@! TO.N,/BLE_RST*
X134750000Y-62866526D02*
X137300000Y-60316526D01*
X134750000Y-63650000D02*
X134750000Y-62866526D01*
X137300000Y-60316526D02*
X137300000Y-60100000D01*
X137300000Y-60100000D02*
X139100000Y-58300000D01*
X139100000Y-58300000D02*
X141050000Y-58300000D01*
X141050000Y-58300000D02*
X141250000Y-58100000D01*
X141250000Y-58100000D02*
X141250000Y-50300000D01*
X141250000Y-50300000D02*
X147950000Y-43600000D01*
X147950000Y-43600000D02*
X147950000Y-40900000D01*
X147950000Y-40900000D02*
X149700000Y-39150000D01*
X149700000Y-39150000D02*
X150800000Y-39150000D01*
X150800000Y-39150000D02*
X151250000Y-38700000D01*
X151250000Y-38700000D02*
X151250000Y-37400000D01*
X151250000Y-37400000D02*
X152200000Y-36450000D01*
X152200000Y-36450000D02*
X153350000Y-36450000D01*
G04 #@! TO.N,/TX1*
X159150000Y-74050000D02*
X159800000Y-73400000D01*
X159150000Y-81850000D02*
X159150000Y-74050000D01*
X157200000Y-83800000D02*
X159150000Y-81850000D01*
X147250000Y-76550000D02*
X149850000Y-76550000D01*
X143800000Y-73100000D02*
X147250000Y-76550000D01*
X149850000Y-76550000D02*
X152950000Y-79650000D01*
X152950000Y-79650000D02*
X152950000Y-82400000D01*
X152950000Y-82400000D02*
X154350000Y-83800000D01*
X159800000Y-73400000D02*
X160950000Y-72250000D01*
X154350000Y-83800000D02*
X157200000Y-83800000D01*
G04 #@! TO.N,/RX1*
X145550000Y-73783474D02*
X147616526Y-75850000D01*
X145550000Y-73000000D02*
X145550000Y-73783474D01*
X147616526Y-75850000D02*
X150200000Y-75850000D01*
X150200000Y-75850000D02*
X153600000Y-79250000D01*
X153600000Y-79250000D02*
X153600000Y-82100000D01*
X153600000Y-82100000D02*
X154700000Y-83200000D01*
X154700000Y-83200000D02*
X156900000Y-83200000D01*
X156900000Y-83200000D02*
X158600000Y-81500000D01*
X158600000Y-73600000D02*
X158600000Y-73450000D01*
X158600000Y-81500000D02*
X158600000Y-73600000D01*
X158600000Y-73450000D02*
X159650000Y-72400000D01*
X159650000Y-72400000D02*
X159650000Y-71550000D01*
G04 #@! TD*
G04 #@! TO.N,GND*
G36*
X168360027Y-27768803D02*
X168691110Y-27919338D01*
X168966639Y-28156749D01*
X169164456Y-28461944D01*
X169274751Y-28830742D01*
X169069926Y-28790000D01*
X169069925Y-28790000D01*
X169000000Y-28776091D01*
X168930074Y-28790000D01*
X167569926Y-28790000D01*
X167500000Y-28776091D01*
X167430075Y-28790000D01*
X167430074Y-28790000D01*
X167222972Y-28831195D01*
X166988119Y-28988119D01*
X166831195Y-29222972D01*
X166776091Y-29500000D01*
X166790001Y-29569930D01*
X166790000Y-33430074D01*
X166776091Y-33500000D01*
X166831195Y-33777028D01*
X166988119Y-34011881D01*
X167195770Y-34150629D01*
X167222972Y-34168805D01*
X167500000Y-34223909D01*
X167569925Y-34210000D01*
X168930075Y-34210000D01*
X169000000Y-34223909D01*
X169265000Y-34171197D01*
X169265001Y-42072388D01*
X169290000Y-42198066D01*
X169290001Y-48823830D01*
X169119926Y-48790000D01*
X169119925Y-48790000D01*
X169050000Y-48776091D01*
X168980074Y-48790000D01*
X167519926Y-48790000D01*
X167450000Y-48776091D01*
X167380075Y-48790000D01*
X167380074Y-48790000D01*
X167172972Y-48831195D01*
X166938119Y-48988119D01*
X166781195Y-49222972D01*
X166726091Y-49500000D01*
X166740001Y-49569930D01*
X166740000Y-53430074D01*
X166726091Y-53500000D01*
X166781195Y-53777028D01*
X166938119Y-54011881D01*
X167172972Y-54168805D01*
X167274500Y-54189000D01*
X167450000Y-54223909D01*
X167519925Y-54210000D01*
X168980075Y-54210000D01*
X169050000Y-54223909D01*
X169225501Y-54189000D01*
X169265000Y-54181143D01*
X169265001Y-62072388D01*
X169290000Y-62198066D01*
X169290001Y-64430070D01*
X169276091Y-64500000D01*
X169331195Y-64777028D01*
X169488119Y-65011881D01*
X169722972Y-65168805D01*
X169930074Y-65210000D01*
X169930075Y-65210000D01*
X170000000Y-65223909D01*
X170069926Y-65210000D01*
X170719502Y-65210000D01*
X170473460Y-65374400D01*
X170029203Y-65956517D01*
X169797455Y-66651151D01*
X169803206Y-67383402D01*
X170045836Y-68074311D01*
X170499182Y-68649377D01*
X171114360Y-69046593D01*
X171825036Y-69223126D01*
X172554578Y-69159940D01*
X173224321Y-68863850D01*
X173762046Y-68366783D01*
X173790000Y-68314975D01*
X173790000Y-71692365D01*
X173562060Y-71617545D01*
X172679605Y-72500000D01*
X173562060Y-73382455D01*
X173790000Y-73307635D01*
X173790000Y-76168517D01*
X173780116Y-76144654D01*
X173355346Y-75719884D01*
X172800358Y-75490000D01*
X172199642Y-75490000D01*
X171644654Y-75719884D01*
X171219884Y-76144654D01*
X170990000Y-76699642D01*
X170990000Y-76857050D01*
X170964476Y-76831526D01*
X170345167Y-76575000D01*
X169674833Y-76575000D01*
X169055524Y-76831526D01*
X168581526Y-77305524D01*
X168325000Y-77924833D01*
X168325000Y-78595167D01*
X168581526Y-79214476D01*
X169055524Y-79688474D01*
X169674833Y-79945000D01*
X170345167Y-79945000D01*
X170964476Y-79688474D01*
X171438474Y-79214476D01*
X171695000Y-78595167D01*
X171695000Y-78300970D01*
X172199642Y-78510000D01*
X172800358Y-78510000D01*
X173355346Y-78280116D01*
X173780116Y-77855346D01*
X173790000Y-77831483D01*
X173790000Y-82192365D01*
X173562060Y-82117545D01*
X172679605Y-83000000D01*
X173562060Y-83882455D01*
X173790000Y-83807635D01*
X173790001Y-86668517D01*
X173780116Y-86644654D01*
X173355346Y-86219884D01*
X172800358Y-85990000D01*
X172199642Y-85990000D01*
X171644654Y-86219884D01*
X171219884Y-86644654D01*
X170990000Y-87199642D01*
X170990000Y-87357050D01*
X170964476Y-87331526D01*
X170345167Y-87075000D01*
X169674833Y-87075000D01*
X169055524Y-87331526D01*
X168581526Y-87805524D01*
X168325000Y-88424833D01*
X168325000Y-89095167D01*
X168581526Y-89714476D01*
X169055524Y-90188474D01*
X169674833Y-90445000D01*
X170345167Y-90445000D01*
X170964476Y-90188474D01*
X171438474Y-89714476D01*
X171695000Y-89095167D01*
X171695000Y-88800970D01*
X172199642Y-89010000D01*
X172800358Y-89010000D01*
X173355346Y-88780116D01*
X173780116Y-88355346D01*
X173790001Y-88331483D01*
X173790001Y-92692365D01*
X173562060Y-92617545D01*
X172679605Y-93500000D01*
X173562060Y-94382455D01*
X173790001Y-94307635D01*
X173790001Y-97168518D01*
X173780116Y-97144654D01*
X173355346Y-96719884D01*
X172800358Y-96490000D01*
X172199642Y-96490000D01*
X171644654Y-96719884D01*
X171219884Y-97144654D01*
X170990000Y-97699642D01*
X170990000Y-97857050D01*
X170964476Y-97831526D01*
X170345167Y-97575000D01*
X169674833Y-97575000D01*
X169055524Y-97831526D01*
X168581526Y-98305524D01*
X168325000Y-98924833D01*
X168325000Y-99595167D01*
X168581526Y-100214476D01*
X169055524Y-100688474D01*
X169674833Y-100945000D01*
X170345167Y-100945000D01*
X170964476Y-100688474D01*
X171438474Y-100214476D01*
X171695000Y-99595167D01*
X171695000Y-99300970D01*
X172199642Y-99510000D01*
X172800358Y-99510000D01*
X173355346Y-99280116D01*
X173780116Y-98855346D01*
X173790001Y-98831482D01*
X173790001Y-103367534D01*
X173673410Y-103159346D01*
X173148927Y-102689580D01*
X172500557Y-102415031D01*
X171798212Y-102365302D01*
X171117625Y-102545756D01*
X170532185Y-102936935D01*
X170105017Y-103496658D01*
X169882185Y-104164571D01*
X169887715Y-104868653D01*
X170121011Y-105532983D01*
X170556917Y-106085927D01*
X170872970Y-106290000D01*
X147919936Y-106290000D01*
X147948157Y-106247765D01*
X147997440Y-106000000D01*
X147997440Y-104000000D01*
X147948157Y-103752235D01*
X147807809Y-103542191D01*
X147597765Y-103401843D01*
X147350000Y-103352560D01*
X145650000Y-103352560D01*
X145402235Y-103401843D01*
X145192191Y-103542191D01*
X145051843Y-103752235D01*
X145049281Y-103765114D01*
X144579418Y-103451161D01*
X144000000Y-103335908D01*
X143420583Y-103451161D01*
X142929375Y-103779375D01*
X142601161Y-104270582D01*
X142515000Y-104703744D01*
X142515000Y-105296255D01*
X142601161Y-105729417D01*
X142929375Y-106220625D01*
X143033202Y-106290000D01*
X139619936Y-106290000D01*
X139648157Y-106247765D01*
X139697440Y-106000000D01*
X139697440Y-104000000D01*
X139648157Y-103752235D01*
X139507809Y-103542191D01*
X139347388Y-103435000D01*
X140672688Y-103435000D01*
X140750000Y-103450378D01*
X140827312Y-103435000D01*
X140827316Y-103435000D01*
X141056292Y-103389454D01*
X141315953Y-103215953D01*
X141359749Y-103150408D01*
X141885923Y-102624234D01*
X152315000Y-102624234D01*
X152315000Y-103075766D01*
X152487793Y-103492926D01*
X152807074Y-103812207D01*
X153224234Y-103985000D01*
X153675766Y-103985000D01*
X154092926Y-103812207D01*
X154412207Y-103492926D01*
X154585000Y-103075766D01*
X154585000Y-102624234D01*
X160315000Y-102624234D01*
X160315000Y-103075766D01*
X160487793Y-103492926D01*
X160807074Y-103812207D01*
X161224234Y-103985000D01*
X161675766Y-103985000D01*
X162092926Y-103812207D01*
X162412207Y-103492926D01*
X162585000Y-103075766D01*
X162585000Y-102624234D01*
X162412207Y-102207074D01*
X162092926Y-101887793D01*
X161675766Y-101715000D01*
X161224234Y-101715000D01*
X160807074Y-101887793D01*
X160487793Y-102207074D01*
X160315000Y-102624234D01*
X154585000Y-102624234D01*
X154412207Y-102207074D01*
X154092926Y-101887793D01*
X153675766Y-101715000D01*
X153224234Y-101715000D01*
X152807074Y-101887793D01*
X152487793Y-102207074D01*
X152315000Y-102624234D01*
X141885923Y-102624234D01*
X142350411Y-102159747D01*
X142415953Y-102115953D01*
X142459747Y-102050411D01*
X142459749Y-102050409D01*
X142589454Y-101856292D01*
X142615410Y-101725801D01*
X142635000Y-101627316D01*
X142635000Y-101627312D01*
X142650378Y-101550000D01*
X142635000Y-101472688D01*
X142635000Y-98096500D01*
X142857986Y-97873514D01*
X143039000Y-97436507D01*
X143039000Y-96963493D01*
X142857986Y-96526486D01*
X142523514Y-96192014D01*
X142086507Y-96011000D01*
X141613493Y-96011000D01*
X141176486Y-96192014D01*
X140842014Y-96526486D01*
X140661000Y-96963493D01*
X140661000Y-97436507D01*
X140842014Y-97873514D01*
X141065001Y-98096501D01*
X141065000Y-101224842D01*
X140424843Y-101865000D01*
X129843542Y-101865000D01*
X129936552Y-101725801D01*
X129985000Y-101482237D01*
X129985000Y-101482234D01*
X130001357Y-101400001D01*
X129985000Y-101317768D01*
X129985000Y-98695867D01*
X130345868Y-98335000D01*
X131651241Y-98335000D01*
X131733474Y-98351357D01*
X131815707Y-98335000D01*
X131815711Y-98335000D01*
X132059275Y-98286552D01*
X132335475Y-98102001D01*
X132382061Y-98032280D01*
X133982285Y-96432058D01*
X134052001Y-96385475D01*
X134183282Y-96189000D01*
X134236552Y-96109275D01*
X134285000Y-95865711D01*
X134285000Y-95865708D01*
X134289769Y-95841731D01*
X134457986Y-95673514D01*
X134639000Y-95236507D01*
X134639000Y-94763493D01*
X134457986Y-94326486D01*
X134123514Y-93992014D01*
X133686507Y-93811000D01*
X133213493Y-93811000D01*
X132776486Y-93992014D01*
X132511887Y-94256613D01*
X132457986Y-94126486D01*
X132235000Y-93903500D01*
X132235000Y-93277312D01*
X132250378Y-93200000D01*
X132235000Y-93122688D01*
X132235000Y-93122684D01*
X132189454Y-92893708D01*
X132015953Y-92634047D01*
X131950408Y-92590251D01*
X131545157Y-92185000D01*
X138354132Y-92185000D01*
X138415001Y-92245869D01*
X138415000Y-93670658D01*
X138067718Y-94017941D01*
X137998000Y-94064525D01*
X137951416Y-94134243D01*
X137813448Y-94340726D01*
X137789093Y-94463166D01*
X137765000Y-94584289D01*
X137765000Y-94584293D01*
X137760231Y-94608269D01*
X137592014Y-94776486D01*
X137411000Y-95213493D01*
X137411000Y-95686507D01*
X137592014Y-96123514D01*
X137926486Y-96457986D01*
X138363493Y-96639000D01*
X138836507Y-96639000D01*
X139273514Y-96457986D01*
X139607986Y-96123514D01*
X139789000Y-95686507D01*
X139789000Y-95213493D01*
X139626415Y-94820978D01*
X139782283Y-94665111D01*
X139852001Y-94618527D01*
X140036552Y-94342327D01*
X140085000Y-94098763D01*
X140085000Y-94098762D01*
X140101358Y-94016526D01*
X140085000Y-93934289D01*
X140085000Y-91982232D01*
X140101357Y-91899999D01*
X140085000Y-91817766D01*
X140085000Y-91817763D01*
X140036552Y-91574199D01*
X139852001Y-91297999D01*
X139782285Y-91251416D01*
X139348587Y-90817719D01*
X139302001Y-90747999D01*
X139025801Y-90563448D01*
X138782237Y-90515000D01*
X138782233Y-90515000D01*
X138700000Y-90498643D01*
X138617767Y-90515000D01*
X129495868Y-90515000D01*
X129369868Y-90389000D01*
X129836507Y-90389000D01*
X130273514Y-90207986D01*
X130607986Y-89873514D01*
X130789000Y-89436507D01*
X130789000Y-89198614D01*
X130940551Y-88971802D01*
X130988999Y-88728238D01*
X130988999Y-88728237D01*
X131005357Y-88646001D01*
X130988999Y-88563764D01*
X130988999Y-79591868D01*
X131545868Y-79035000D01*
X134467767Y-79035000D01*
X134550000Y-79051357D01*
X134632233Y-79035000D01*
X134632237Y-79035000D01*
X134875801Y-78986552D01*
X135152001Y-78802001D01*
X135198587Y-78732280D01*
X135291867Y-78639000D01*
X135536507Y-78639000D01*
X135973514Y-78457986D01*
X136196500Y-78235000D01*
X145074843Y-78235000D01*
X145411000Y-78571158D01*
X145411000Y-78886507D01*
X145592014Y-79323514D01*
X145926486Y-79657986D01*
X146363493Y-79839000D01*
X146608132Y-79839000D01*
X146621715Y-79852583D01*
X146621718Y-79852585D01*
X150262998Y-83493866D01*
X150262998Y-83629844D01*
X150033110Y-83508524D01*
X149623076Y-83678355D01*
X149194817Y-84068642D01*
X149133843Y-84198478D01*
X148920625Y-83879375D01*
X148429418Y-83551161D01*
X147996256Y-83465000D01*
X147703744Y-83465000D01*
X147270582Y-83551161D01*
X146779375Y-83879375D01*
X146580000Y-84177761D01*
X146380625Y-83879375D01*
X145889418Y-83551161D01*
X145456256Y-83465000D01*
X145163744Y-83465000D01*
X144730582Y-83551161D01*
X144239375Y-83879375D01*
X144227184Y-83897619D01*
X144218157Y-83852235D01*
X144077809Y-83642191D01*
X143867765Y-83501843D01*
X143620000Y-83452560D01*
X141920000Y-83452560D01*
X141672235Y-83501843D01*
X141462191Y-83642191D01*
X141321843Y-83852235D01*
X141272560Y-84100000D01*
X141272560Y-85800000D01*
X141321843Y-86047765D01*
X141462191Y-86257809D01*
X141671480Y-86397653D01*
X141358132Y-86711001D01*
X135836236Y-86711001D01*
X135753999Y-86694643D01*
X135671762Y-86711001D01*
X135428198Y-86759449D01*
X135201386Y-86911000D01*
X134963493Y-86911000D01*
X134526486Y-87092014D01*
X134192014Y-87426486D01*
X134011000Y-87863493D01*
X134011000Y-88336507D01*
X134192014Y-88773514D01*
X134526486Y-89107986D01*
X134963493Y-89289000D01*
X135436507Y-89289000D01*
X135873514Y-89107986D01*
X136207986Y-88773514D01*
X136370570Y-88381001D01*
X141621766Y-88381001D01*
X141703999Y-88397358D01*
X141786232Y-88381001D01*
X141786236Y-88381001D01*
X142029800Y-88332553D01*
X142306000Y-88148002D01*
X142352586Y-88078281D01*
X143302283Y-87128585D01*
X143372001Y-87082001D01*
X143556552Y-86805801D01*
X143605000Y-86562237D01*
X143605000Y-86562234D01*
X143621357Y-86480001D01*
X143614880Y-86447440D01*
X143620000Y-86447440D01*
X143867765Y-86398157D01*
X144077809Y-86257809D01*
X144218157Y-86047765D01*
X144227184Y-86002381D01*
X144239375Y-86020625D01*
X144730582Y-86348839D01*
X145163744Y-86435000D01*
X145456256Y-86435000D01*
X145889418Y-86348839D01*
X146380625Y-86020625D01*
X146580000Y-85722239D01*
X146779375Y-86020625D01*
X147270582Y-86348839D01*
X147703744Y-86435000D01*
X147996256Y-86435000D01*
X148429418Y-86348839D01*
X148920625Y-86020625D01*
X149133843Y-85701522D01*
X149194817Y-85831358D01*
X149623076Y-86221645D01*
X150033110Y-86391476D01*
X150263000Y-86270155D01*
X150263000Y-85077000D01*
X150243000Y-85077000D01*
X150243000Y-84823000D01*
X150263000Y-84823000D01*
X150263000Y-84803000D01*
X150517000Y-84803000D01*
X150517000Y-84823000D01*
X150537000Y-84823000D01*
X150537000Y-85077000D01*
X150517000Y-85077000D01*
X150517000Y-86270155D01*
X150746890Y-86391476D01*
X151156924Y-86221645D01*
X151585183Y-85831358D01*
X151831486Y-85306892D01*
X151710820Y-85077002D01*
X151846134Y-85077002D01*
X152515001Y-85745869D01*
X152515000Y-86953500D01*
X152342014Y-87126486D01*
X152161000Y-87563493D01*
X152161000Y-88036507D01*
X152342014Y-88473514D01*
X152676486Y-88807986D01*
X153089456Y-88979044D01*
X153003500Y-89065000D01*
X146775158Y-89065000D01*
X146689000Y-88978842D01*
X146689000Y-88663493D01*
X146507986Y-88226486D01*
X146173514Y-87892014D01*
X145736507Y-87711000D01*
X145263493Y-87711000D01*
X144826486Y-87892014D01*
X144492014Y-88226486D01*
X144311000Y-88663493D01*
X144311000Y-89136507D01*
X144492014Y-89573514D01*
X144518500Y-89600000D01*
X144442014Y-89676486D01*
X144261000Y-90113493D01*
X144261000Y-90586507D01*
X144442014Y-91023514D01*
X144568500Y-91150000D01*
X144492014Y-91226486D01*
X144311000Y-91663493D01*
X144311000Y-92136507D01*
X144492014Y-92573514D01*
X144826486Y-92907986D01*
X145263493Y-93089000D01*
X145736507Y-93089000D01*
X146173514Y-92907986D01*
X146396500Y-92685000D01*
X152874843Y-92685000D01*
X155111000Y-94921158D01*
X155111000Y-95186507D01*
X155292014Y-95623514D01*
X155626486Y-95957986D01*
X156063493Y-96139000D01*
X156536507Y-96139000D01*
X156973514Y-95957986D01*
X157307986Y-95623514D01*
X157489000Y-95186507D01*
X157489000Y-94713493D01*
X157426275Y-94562060D01*
X171617545Y-94562060D01*
X171700884Y-94815953D01*
X172265306Y-95021590D01*
X172865458Y-94995579D01*
X173299116Y-94815953D01*
X173382455Y-94562060D01*
X172500000Y-93679605D01*
X171617545Y-94562060D01*
X157426275Y-94562060D01*
X157307986Y-94276486D01*
X156973514Y-93942014D01*
X156536507Y-93761000D01*
X156171158Y-93761000D01*
X154324991Y-91914833D01*
X168325000Y-91914833D01*
X168325000Y-92585167D01*
X168581526Y-93204476D01*
X169055524Y-93678474D01*
X169674833Y-93935000D01*
X170345167Y-93935000D01*
X170964476Y-93678474D01*
X170994994Y-93647956D01*
X171004421Y-93865458D01*
X171184047Y-94299116D01*
X171437940Y-94382455D01*
X172320395Y-93500000D01*
X172306253Y-93485858D01*
X172485858Y-93306253D01*
X172500000Y-93320395D01*
X173382455Y-92437940D01*
X173299116Y-92184047D01*
X172734694Y-91978410D01*
X172134542Y-92004421D01*
X171700884Y-92184047D01*
X171695000Y-92201973D01*
X171695000Y-91914833D01*
X171438474Y-91295524D01*
X170964476Y-90821526D01*
X170345167Y-90565000D01*
X169674833Y-90565000D01*
X169055524Y-90821526D01*
X168581526Y-91295524D01*
X168325000Y-91914833D01*
X154324991Y-91914833D01*
X154195157Y-91785000D01*
X157372688Y-91785000D01*
X157450000Y-91800378D01*
X157527312Y-91785000D01*
X157527316Y-91785000D01*
X157756292Y-91739454D01*
X158015953Y-91565953D01*
X158059749Y-91500408D01*
X158571158Y-90989000D01*
X158636507Y-90989000D01*
X159073514Y-90807986D01*
X159407986Y-90473514D01*
X159589000Y-90036507D01*
X159589000Y-89563493D01*
X159407986Y-89126486D01*
X159073514Y-88792014D01*
X158636507Y-88611000D01*
X158163493Y-88611000D01*
X157726486Y-88792014D01*
X157392014Y-89126486D01*
X157211000Y-89563493D01*
X157211000Y-90036507D01*
X157238044Y-90101798D01*
X157124843Y-90215000D01*
X155035777Y-90215000D01*
X155089000Y-90086507D01*
X155089000Y-89613493D01*
X154907986Y-89176486D01*
X154573514Y-88842014D01*
X154160544Y-88670956D01*
X154357986Y-88473514D01*
X154539000Y-88036507D01*
X154539000Y-87563493D01*
X154357986Y-87126486D01*
X154185000Y-86953500D01*
X154185000Y-85482237D01*
X154201358Y-85400000D01*
X154136552Y-85074200D01*
X154136552Y-85074199D01*
X153952001Y-84797999D01*
X153882283Y-84751415D01*
X147802585Y-78671718D01*
X147802583Y-78671715D01*
X147789000Y-78658132D01*
X147789000Y-78413493D01*
X147607986Y-77976486D01*
X147273514Y-77642014D01*
X146836507Y-77461000D01*
X146521158Y-77461000D01*
X146009749Y-76949592D01*
X145965953Y-76884047D01*
X145706292Y-76710546D01*
X145477316Y-76665000D01*
X145477312Y-76665000D01*
X145400000Y-76649622D01*
X145322688Y-76665000D01*
X136196500Y-76665000D01*
X135973514Y-76442014D01*
X135536507Y-76261000D01*
X135063493Y-76261000D01*
X134626486Y-76442014D01*
X134292014Y-76776486D01*
X134111000Y-77213493D01*
X134111000Y-77365000D01*
X131282237Y-77365000D01*
X131200000Y-77348642D01*
X131117763Y-77365000D01*
X130874199Y-77413448D01*
X130597999Y-77597999D01*
X130551415Y-77667717D01*
X130549940Y-77669193D01*
X130407986Y-77326486D01*
X130073514Y-76992014D01*
X129636507Y-76811000D01*
X129163493Y-76811000D01*
X128726486Y-76992014D01*
X128392014Y-77326486D01*
X128306127Y-77533837D01*
X128085000Y-77312711D01*
X128085000Y-69563493D01*
X128761000Y-69563493D01*
X128761000Y-70036507D01*
X128942014Y-70473514D01*
X129223869Y-70755369D01*
X129232213Y-70797317D01*
X129310735Y-70914833D01*
X129400630Y-71049371D01*
X129464251Y-71091881D01*
X130120435Y-71748065D01*
X130042014Y-71826486D01*
X129861000Y-72263493D01*
X129861000Y-72736507D01*
X130042014Y-73173514D01*
X130376486Y-73507986D01*
X130813493Y-73689000D01*
X131286507Y-73689000D01*
X131723514Y-73507986D01*
X131952378Y-73279122D01*
X132263493Y-73407990D01*
X132736507Y-73407990D01*
X133173514Y-73226976D01*
X133507986Y-72892504D01*
X133689000Y-72455497D01*
X133689000Y-72263493D01*
X136561000Y-72263493D01*
X136561000Y-72736507D01*
X136742014Y-73173514D01*
X137076486Y-73507986D01*
X137513493Y-73689000D01*
X137986507Y-73689000D01*
X138423514Y-73507986D01*
X138757986Y-73173514D01*
X138886400Y-72863493D01*
X142611000Y-72863493D01*
X142611000Y-73336507D01*
X142792014Y-73773514D01*
X143126486Y-74107986D01*
X143563493Y-74289000D01*
X143911370Y-74289000D01*
X146658117Y-77035748D01*
X146700629Y-77099371D01*
X146764251Y-77141882D01*
X146774368Y-77148642D01*
X146952683Y-77267788D01*
X147174952Y-77312000D01*
X147174953Y-77312000D01*
X147250000Y-77326928D01*
X147325047Y-77312000D01*
X149534370Y-77312000D01*
X152188000Y-79965631D01*
X152188001Y-82324952D01*
X152173073Y-82400000D01*
X152188001Y-82475048D01*
X152232213Y-82697317D01*
X152400630Y-82949371D01*
X152464251Y-82991881D01*
X153758118Y-84285749D01*
X153800629Y-84349371D01*
X154052683Y-84517788D01*
X154274952Y-84562000D01*
X154274957Y-84562000D01*
X154350000Y-84576927D01*
X154425043Y-84562000D01*
X157124957Y-84562000D01*
X157200000Y-84576927D01*
X157275043Y-84562000D01*
X157275048Y-84562000D01*
X157497317Y-84517788D01*
X157749371Y-84349371D01*
X157791883Y-84285747D01*
X158015570Y-84062060D01*
X171617545Y-84062060D01*
X171700884Y-84315953D01*
X172265306Y-84521590D01*
X172865458Y-84495579D01*
X173299116Y-84315953D01*
X173382455Y-84062060D01*
X172500000Y-83179605D01*
X171617545Y-84062060D01*
X158015570Y-84062060D01*
X159635750Y-82441881D01*
X159699371Y-82399371D01*
X159781185Y-82276928D01*
X159867787Y-82147319D01*
X159867787Y-82147318D01*
X159867788Y-82147317D01*
X159912000Y-81925048D01*
X159912000Y-81925044D01*
X159926927Y-81850001D01*
X159912000Y-81774958D01*
X159912000Y-81414833D01*
X168325000Y-81414833D01*
X168325000Y-82085167D01*
X168581526Y-82704476D01*
X169055524Y-83178474D01*
X169674833Y-83435000D01*
X170345167Y-83435000D01*
X170964476Y-83178474D01*
X170994994Y-83147956D01*
X171004421Y-83365458D01*
X171184047Y-83799116D01*
X171437940Y-83882455D01*
X172320395Y-83000000D01*
X172306253Y-82985858D01*
X172485858Y-82806253D01*
X172500000Y-82820395D01*
X173382455Y-81937940D01*
X173299116Y-81684047D01*
X172734694Y-81478410D01*
X172134542Y-81504421D01*
X171700884Y-81684047D01*
X171695000Y-81701973D01*
X171695000Y-81414833D01*
X171438474Y-80795524D01*
X170964476Y-80321526D01*
X170345167Y-80065000D01*
X169674833Y-80065000D01*
X169055524Y-80321526D01*
X168581526Y-80795524D01*
X168325000Y-81414833D01*
X159912000Y-81414833D01*
X159912000Y-74365630D01*
X160391882Y-73885749D01*
X160391884Y-73885746D01*
X160715570Y-73562060D01*
X171617545Y-73562060D01*
X171700884Y-73815953D01*
X172265306Y-74021590D01*
X172865458Y-73995579D01*
X173299116Y-73815953D01*
X173382455Y-73562060D01*
X172500000Y-72679605D01*
X171617545Y-73562060D01*
X160715570Y-73562060D01*
X160838630Y-73439000D01*
X161186507Y-73439000D01*
X161623514Y-73257986D01*
X161957986Y-72923514D01*
X162139000Y-72486507D01*
X162139000Y-72013493D01*
X161957986Y-71576486D01*
X161623514Y-71242014D01*
X161186507Y-71061000D01*
X160734414Y-71061000D01*
X160673870Y-70914833D01*
X168325000Y-70914833D01*
X168325000Y-71585167D01*
X168581526Y-72204476D01*
X169055524Y-72678474D01*
X169674833Y-72935000D01*
X170345167Y-72935000D01*
X170964476Y-72678474D01*
X170994994Y-72647956D01*
X171004421Y-72865458D01*
X171184047Y-73299116D01*
X171437940Y-73382455D01*
X172320395Y-72500000D01*
X172306253Y-72485858D01*
X172485858Y-72306253D01*
X172500000Y-72320395D01*
X173382455Y-71437940D01*
X173299116Y-71184047D01*
X172734694Y-70978410D01*
X172134542Y-71004421D01*
X171700884Y-71184047D01*
X171695000Y-71201973D01*
X171695000Y-70914833D01*
X171438474Y-70295524D01*
X170964476Y-69821526D01*
X170345167Y-69565000D01*
X169674833Y-69565000D01*
X169055524Y-69821526D01*
X168581526Y-70295524D01*
X168325000Y-70914833D01*
X160673870Y-70914833D01*
X160657986Y-70876486D01*
X160323514Y-70542014D01*
X159886507Y-70361000D01*
X159413493Y-70361000D01*
X158976486Y-70542014D01*
X158642014Y-70876486D01*
X158461000Y-71313493D01*
X158461000Y-71786507D01*
X158642014Y-72223514D01*
X158695435Y-72276935D01*
X158114253Y-72858117D01*
X158050629Y-72900629D01*
X157882212Y-73152683D01*
X157838000Y-73374952D01*
X157838000Y-73374957D01*
X157823073Y-73450000D01*
X157838000Y-73525043D01*
X157838000Y-73675047D01*
X157838001Y-73675052D01*
X157838000Y-81184369D01*
X156584370Y-82438000D01*
X155015631Y-82438000D01*
X154362000Y-81784370D01*
X154362000Y-79325042D01*
X154376927Y-79249999D01*
X154362000Y-79174956D01*
X154362000Y-79174952D01*
X154317788Y-78952683D01*
X154149371Y-78700629D01*
X154085750Y-78658119D01*
X150791883Y-75364253D01*
X150749371Y-75300629D01*
X150497317Y-75132212D01*
X150275048Y-75088000D01*
X150275043Y-75088000D01*
X150200000Y-75073073D01*
X150124957Y-75088000D01*
X147932157Y-75088000D01*
X146537828Y-73693672D01*
X146557986Y-73673514D01*
X146739000Y-73236507D01*
X146739000Y-72763493D01*
X146557986Y-72326486D01*
X146223514Y-71992014D01*
X145786507Y-71811000D01*
X145313493Y-71811000D01*
X144876486Y-71992014D01*
X144625000Y-72243500D01*
X144473514Y-72092014D01*
X144036507Y-71911000D01*
X143563493Y-71911000D01*
X143126486Y-72092014D01*
X142792014Y-72426486D01*
X142611000Y-72863493D01*
X138886400Y-72863493D01*
X138939000Y-72736507D01*
X138939000Y-72388630D01*
X139388631Y-71939000D01*
X139736507Y-71939000D01*
X140173514Y-71757986D01*
X140507986Y-71423514D01*
X140677822Y-71013493D01*
X148061000Y-71013493D01*
X148061000Y-71486507D01*
X148242014Y-71923514D01*
X148315001Y-71996501D01*
X148315000Y-72757914D01*
X148296683Y-72850000D01*
X148356891Y-73152683D01*
X148369250Y-73214818D01*
X148575903Y-73524097D01*
X148653972Y-73576261D01*
X149723740Y-74646030D01*
X149775903Y-74724097D01*
X150085181Y-74930750D01*
X150357914Y-74985000D01*
X150357917Y-74985000D01*
X150449999Y-75003316D01*
X150542081Y-74985000D01*
X153562711Y-74985000D01*
X155269000Y-76691290D01*
X155268999Y-79920851D01*
X154976486Y-80042014D01*
X154642014Y-80376486D01*
X154461000Y-80813493D01*
X154461000Y-81286507D01*
X154642014Y-81723514D01*
X154976486Y-82057986D01*
X155413493Y-82239000D01*
X155886507Y-82239000D01*
X156323514Y-82057986D01*
X156657986Y-81723514D01*
X156839000Y-81286507D01*
X156839000Y-81196221D01*
X156878096Y-81170098D01*
X157084749Y-80860820D01*
X157138999Y-80588087D01*
X157138999Y-80588086D01*
X157157316Y-80496001D01*
X157138999Y-80403915D01*
X157138999Y-76396085D01*
X157157316Y-76303999D01*
X157084749Y-75939180D01*
X156930258Y-75707968D01*
X156878096Y-75629902D01*
X156800030Y-75577740D01*
X154676261Y-73453972D01*
X154624097Y-73375903D01*
X154314819Y-73169250D01*
X154042086Y-73115000D01*
X153950000Y-73096683D01*
X153857914Y-73115000D01*
X150837290Y-73115000D01*
X150185000Y-72462711D01*
X150185000Y-71996500D01*
X150257986Y-71923514D01*
X150439000Y-71486507D01*
X150439000Y-71013493D01*
X150257986Y-70576486D01*
X149923514Y-70242014D01*
X149486507Y-70061000D01*
X149013493Y-70061000D01*
X148576486Y-70242014D01*
X148242014Y-70576486D01*
X148061000Y-71013493D01*
X140677822Y-71013493D01*
X140689000Y-70986507D01*
X140689000Y-70513493D01*
X140507986Y-70076486D01*
X140173514Y-69742014D01*
X139736507Y-69561000D01*
X139263493Y-69561000D01*
X138826486Y-69742014D01*
X138492014Y-70076486D01*
X138311000Y-70513493D01*
X138311000Y-70861369D01*
X137861370Y-71311000D01*
X137513493Y-71311000D01*
X137076486Y-71492014D01*
X136742014Y-71826486D01*
X136561000Y-72263493D01*
X133689000Y-72263493D01*
X133689000Y-71982483D01*
X133507986Y-71545476D01*
X133262000Y-71299490D01*
X133262000Y-70975043D01*
X133276927Y-70900000D01*
X133262000Y-70824957D01*
X133262000Y-70824952D01*
X133217788Y-70602683D01*
X133049371Y-70350629D01*
X132985750Y-70308119D01*
X132589000Y-69911369D01*
X132589000Y-69563493D01*
X132407986Y-69126486D01*
X132073514Y-68792014D01*
X131636507Y-68611000D01*
X131163493Y-68611000D01*
X130726486Y-68792014D01*
X130675000Y-68843500D01*
X130623514Y-68792014D01*
X130186507Y-68611000D01*
X129713493Y-68611000D01*
X129276486Y-68792014D01*
X128942014Y-69126486D01*
X128761000Y-69563493D01*
X128085000Y-69563493D01*
X128085000Y-67137289D01*
X130237289Y-64985000D01*
X131657914Y-64985000D01*
X131750000Y-65003317D01*
X131842086Y-64985000D01*
X132114819Y-64930750D01*
X132424097Y-64724097D01*
X132476261Y-64646028D01*
X133561000Y-63561290D01*
X133561000Y-63886507D01*
X133742014Y-64323514D01*
X134076486Y-64657986D01*
X134513493Y-64839000D01*
X134986507Y-64839000D01*
X135423514Y-64657986D01*
X135550000Y-64531500D01*
X135626486Y-64607986D01*
X136063493Y-64789000D01*
X136536507Y-64789000D01*
X136973514Y-64607986D01*
X137307986Y-64273514D01*
X137375284Y-64111041D01*
X137563493Y-64189000D01*
X138036507Y-64189000D01*
X138473514Y-64007986D01*
X138807986Y-63673514D01*
X138842962Y-63589074D01*
X138963493Y-63639000D01*
X139436507Y-63639000D01*
X139873514Y-63457986D01*
X140207986Y-63123514D01*
X140389000Y-62686507D01*
X140389000Y-62539000D01*
X140586507Y-62539000D01*
X141023514Y-62357986D01*
X141357986Y-62023514D01*
X141539000Y-61586507D01*
X141539000Y-61558001D01*
X142628956Y-61558001D01*
X142703999Y-61572928D01*
X142779042Y-61558001D01*
X142779047Y-61558001D01*
X143001316Y-61513789D01*
X143253370Y-61345372D01*
X143295882Y-61281748D01*
X143935750Y-60641881D01*
X143999371Y-60599371D01*
X144167788Y-60347317D01*
X144212000Y-60125048D01*
X144212000Y-60125047D01*
X144226928Y-60050000D01*
X144212000Y-59974953D01*
X144212000Y-58050687D01*
X144335460Y-58174147D01*
X144844506Y-58385000D01*
X145395494Y-58385000D01*
X145904540Y-58174147D01*
X146294147Y-57784540D01*
X146505000Y-57275494D01*
X146505000Y-56724506D01*
X148615000Y-56724506D01*
X148615000Y-57275494D01*
X148825853Y-57784540D01*
X149215460Y-58174147D01*
X149724506Y-58385000D01*
X150275494Y-58385000D01*
X150784540Y-58174147D01*
X151174147Y-57784540D01*
X151385000Y-57275494D01*
X151385000Y-56724506D01*
X151174147Y-56215460D01*
X150784540Y-55825853D01*
X150275494Y-55615000D01*
X149724506Y-55615000D01*
X149215460Y-55825853D01*
X148825853Y-56215460D01*
X148615000Y-56724506D01*
X146505000Y-56724506D01*
X146294147Y-56215460D01*
X145904540Y-55825853D01*
X145395494Y-55615000D01*
X144844506Y-55615000D01*
X144335460Y-55825853D01*
X144212000Y-55949313D01*
X144212000Y-51565630D01*
X153538631Y-42239000D01*
X153886507Y-42239000D01*
X154188001Y-42114117D01*
X154188000Y-58700895D01*
X152864251Y-60024645D01*
X152800630Y-60067155D01*
X152758119Y-60130777D01*
X152758118Y-60130778D01*
X152699980Y-60217788D01*
X152632213Y-60319209D01*
X152603141Y-60465359D01*
X152342014Y-60726486D01*
X152161000Y-61163493D01*
X152161000Y-61636507D01*
X152342014Y-62073514D01*
X152676486Y-62407986D01*
X153113493Y-62589000D01*
X153586507Y-62589000D01*
X154023514Y-62407986D01*
X154357986Y-62073514D01*
X154361000Y-62066238D01*
X154361000Y-62386507D01*
X154542014Y-62823514D01*
X154876486Y-63157986D01*
X155313493Y-63339000D01*
X155786507Y-63339000D01*
X156223514Y-63157986D01*
X156317001Y-63064499D01*
X156612638Y-63186955D01*
X156935449Y-63186955D01*
X156992014Y-63323514D01*
X157326486Y-63657986D01*
X157763493Y-63839000D01*
X158236507Y-63839000D01*
X158673514Y-63657986D01*
X159007986Y-63323514D01*
X159067962Y-63178719D01*
X159213493Y-63239000D01*
X159686507Y-63239000D01*
X160123514Y-63057986D01*
X160457986Y-62723514D01*
X160639000Y-62286507D01*
X160639000Y-61813493D01*
X160536988Y-61567213D01*
X160615414Y-61684586D01*
X160813001Y-61816610D01*
X160813000Y-64009369D01*
X160484370Y-64338000D01*
X157875047Y-64338000D01*
X157800000Y-64323072D01*
X157724953Y-64338000D01*
X157724952Y-64338000D01*
X157502683Y-64382212D01*
X157421842Y-64436228D01*
X157352710Y-64482421D01*
X157250629Y-64550629D01*
X157208118Y-64614251D01*
X156814251Y-65008119D01*
X156750630Y-65050629D01*
X156708119Y-65114251D01*
X156708118Y-65114252D01*
X156582213Y-65302683D01*
X156523073Y-65600000D01*
X156538001Y-65675048D01*
X156538000Y-67068685D01*
X156514252Y-67092433D01*
X156450630Y-67134944D01*
X156408119Y-67198566D01*
X156408118Y-67198567D01*
X156399217Y-67211888D01*
X156326486Y-67242014D01*
X155992014Y-67576486D01*
X155811000Y-68013493D01*
X155811000Y-68486507D01*
X155992014Y-68923514D01*
X156326486Y-69257986D01*
X156763493Y-69439000D01*
X157236507Y-69439000D01*
X157673514Y-69257986D01*
X158007986Y-68923514D01*
X158189000Y-68486507D01*
X158189000Y-68013493D01*
X158161633Y-67947423D01*
X158243076Y-68021645D01*
X158653110Y-68191476D01*
X158883000Y-68070155D01*
X158883000Y-66877000D01*
X158863000Y-66877000D01*
X158863000Y-66623000D01*
X158883000Y-66623000D01*
X158883000Y-66603000D01*
X159137000Y-66603000D01*
X159137000Y-66623000D01*
X159157000Y-66623000D01*
X159157000Y-66877000D01*
X159137000Y-66877000D01*
X159137000Y-68070155D01*
X159366890Y-68191476D01*
X159776924Y-68021645D01*
X160205183Y-67631358D01*
X160266157Y-67501522D01*
X160479375Y-67820625D01*
X160970582Y-68148839D01*
X161403744Y-68235000D01*
X161696256Y-68235000D01*
X162129418Y-68148839D01*
X162620625Y-67820625D01*
X162820000Y-67522239D01*
X163019375Y-67820625D01*
X163510582Y-68148839D01*
X163943744Y-68235000D01*
X164236256Y-68235000D01*
X164669418Y-68148839D01*
X165160625Y-67820625D01*
X165172816Y-67802381D01*
X165181843Y-67847765D01*
X165322191Y-68057809D01*
X165532235Y-68198157D01*
X165780000Y-68247440D01*
X167480000Y-68247440D01*
X167727765Y-68198157D01*
X167937809Y-68057809D01*
X168078157Y-67847765D01*
X168127440Y-67600000D01*
X168127440Y-65900000D01*
X168078157Y-65652235D01*
X167937809Y-65442191D01*
X167727765Y-65301843D01*
X167480000Y-65252560D01*
X165780000Y-65252560D01*
X165532235Y-65301843D01*
X165322191Y-65442191D01*
X165181843Y-65652235D01*
X165172816Y-65697619D01*
X165160625Y-65679375D01*
X164669418Y-65351161D01*
X164236256Y-65265000D01*
X163943744Y-65265000D01*
X163510582Y-65351161D01*
X163019375Y-65679375D01*
X162820000Y-65977761D01*
X162620625Y-65679375D01*
X162129418Y-65351161D01*
X161709914Y-65267717D01*
X162060750Y-64916881D01*
X162124371Y-64874371D01*
X162172272Y-64802683D01*
X162241547Y-64699005D01*
X162292788Y-64622317D01*
X162337000Y-64400048D01*
X162337000Y-64400047D01*
X162351928Y-64325000D01*
X162337000Y-64249953D01*
X162337000Y-61816609D01*
X162534586Y-61684586D01*
X162600000Y-61586687D01*
X162665414Y-61684586D01*
X162956564Y-61879127D01*
X163299999Y-61947440D01*
X163950001Y-61947440D01*
X164293436Y-61879127D01*
X164584586Y-61684586D01*
X164779127Y-61393436D01*
X164847440Y-61050001D01*
X164847440Y-60149999D01*
X164779127Y-59806564D01*
X164584586Y-59515414D01*
X164387000Y-59383391D01*
X164387000Y-57074791D01*
X164484586Y-57009586D01*
X164623830Y-56801192D01*
X164687500Y-56813857D01*
X164769733Y-56797500D01*
X164769737Y-56797500D01*
X165013301Y-56749052D01*
X165289501Y-56564501D01*
X165336087Y-56494780D01*
X165732283Y-56098585D01*
X165802001Y-56052001D01*
X165986552Y-55775801D01*
X166035000Y-55532237D01*
X166035000Y-55532234D01*
X166051357Y-55450001D01*
X166035000Y-55367768D01*
X166035000Y-49932236D01*
X166051358Y-49850000D01*
X166035000Y-49767763D01*
X166035000Y-37682232D01*
X166051357Y-37599999D01*
X166035000Y-37517766D01*
X166035000Y-37517763D01*
X165986552Y-37274199D01*
X165802001Y-36997999D01*
X165732282Y-36951414D01*
X165415867Y-36635000D01*
X165575222Y-36635000D01*
X166176153Y-36386086D01*
X166636086Y-35926153D01*
X166885000Y-35325222D01*
X166885000Y-34674778D01*
X166636086Y-34073847D01*
X166176153Y-33613914D01*
X165575222Y-33365000D01*
X164924778Y-33365000D01*
X164323847Y-33613914D01*
X163863914Y-34073847D01*
X163615000Y-34674778D01*
X163615000Y-35325222D01*
X163781654Y-35727560D01*
X163100000Y-35727560D01*
X162756565Y-35795874D01*
X162465414Y-35990414D01*
X162270874Y-36281565D01*
X162202560Y-36625000D01*
X162202560Y-37450000D01*
X162270874Y-37793435D01*
X162346042Y-37905933D01*
X162311673Y-37940302D01*
X162215000Y-38173691D01*
X162215000Y-38676750D01*
X162373750Y-38835500D01*
X163373000Y-38835500D01*
X163373000Y-38815500D01*
X163627000Y-38815500D01*
X163627000Y-38835500D01*
X163647000Y-38835500D01*
X163647000Y-39089500D01*
X163627000Y-39089500D01*
X163627000Y-40101250D01*
X163785750Y-40260000D01*
X164276310Y-40260000D01*
X164365001Y-40223263D01*
X164365000Y-49015000D01*
X164229341Y-49015000D01*
X164132061Y-48917720D01*
X164085475Y-48847999D01*
X163809275Y-48663448D01*
X163565711Y-48615000D01*
X163565707Y-48615000D01*
X163541731Y-48610231D01*
X163373514Y-48442014D01*
X162936507Y-48261000D01*
X162463493Y-48261000D01*
X162026486Y-48442014D01*
X161692014Y-48776486D01*
X161511000Y-49213493D01*
X161511000Y-49686507D01*
X161692014Y-50123514D01*
X162026486Y-50457986D01*
X162463493Y-50639000D01*
X162936507Y-50639000D01*
X163322225Y-50479231D01*
X163557673Y-50636552D01*
X163801237Y-50685000D01*
X163801240Y-50685000D01*
X163883473Y-50701357D01*
X163965706Y-50685000D01*
X164365001Y-50685000D01*
X164365000Y-52797448D01*
X164226310Y-52740000D01*
X163735750Y-52740000D01*
X163577000Y-52898750D01*
X163577000Y-53910500D01*
X163597000Y-53910500D01*
X163597000Y-54164500D01*
X163577000Y-54164500D01*
X163577000Y-54184500D01*
X163323000Y-54184500D01*
X163323000Y-54164500D01*
X162323750Y-54164500D01*
X162165000Y-54323250D01*
X162165000Y-54826309D01*
X162261673Y-55059698D01*
X162296042Y-55094067D01*
X162220874Y-55206565D01*
X162152560Y-55550000D01*
X162152560Y-56375000D01*
X162220874Y-56718435D01*
X162415414Y-57009586D01*
X162706565Y-57204126D01*
X162863001Y-57235243D01*
X162863000Y-59383391D01*
X162665414Y-59515414D01*
X162600000Y-59613313D01*
X162534586Y-59515414D01*
X162243436Y-59320873D01*
X161900001Y-59252560D01*
X161249999Y-59252560D01*
X160906564Y-59320873D01*
X160615414Y-59515414D01*
X160420873Y-59806564D01*
X160352560Y-60149999D01*
X160352560Y-61050001D01*
X160407449Y-61325949D01*
X160212000Y-61130500D01*
X160212000Y-60975043D01*
X160226927Y-60900000D01*
X160212000Y-60824957D01*
X160212000Y-60824952D01*
X160167788Y-60602683D01*
X159999371Y-60350629D01*
X159935749Y-60308118D01*
X157712000Y-58084370D01*
X157712000Y-53248691D01*
X162165000Y-53248691D01*
X162165000Y-53751750D01*
X162323750Y-53910500D01*
X163323000Y-53910500D01*
X163323000Y-52898750D01*
X163164250Y-52740000D01*
X162673690Y-52740000D01*
X162440301Y-52836673D01*
X162261673Y-53015302D01*
X162165000Y-53248691D01*
X157712000Y-53248691D01*
X157712000Y-39248250D01*
X162215000Y-39248250D01*
X162215000Y-39751309D01*
X162311673Y-39984698D01*
X162490301Y-40163327D01*
X162723690Y-40260000D01*
X163214250Y-40260000D01*
X163373000Y-40101250D01*
X163373000Y-39089500D01*
X162373750Y-39089500D01*
X162215000Y-39248250D01*
X157712000Y-39248250D01*
X157712000Y-35575042D01*
X157726927Y-35499999D01*
X157712000Y-35424956D01*
X157712000Y-35424952D01*
X157667788Y-35202683D01*
X157665996Y-35200000D01*
X157541882Y-35014251D01*
X157499371Y-34950629D01*
X157435749Y-34908118D01*
X153541883Y-31014253D01*
X153499371Y-30950629D01*
X153247317Y-30782212D01*
X153025048Y-30738000D01*
X153025043Y-30738000D01*
X152950000Y-30723073D01*
X152947440Y-30723582D01*
X152947440Y-30000000D01*
X152898157Y-29752235D01*
X152757809Y-29542191D01*
X152547765Y-29401843D01*
X152442689Y-29380942D01*
X152561631Y-29262000D01*
X153314620Y-29262000D01*
X153320873Y-29293436D01*
X153515414Y-29584586D01*
X153806564Y-29779127D01*
X154149999Y-29847440D01*
X154800001Y-29847440D01*
X155143436Y-29779127D01*
X155434586Y-29584586D01*
X155435377Y-29583403D01*
X155590302Y-29738327D01*
X155823691Y-29835000D01*
X156239250Y-29835000D01*
X156398000Y-29676250D01*
X156398000Y-28627000D01*
X156652000Y-28627000D01*
X156652000Y-29676250D01*
X156810750Y-29835000D01*
X157226309Y-29835000D01*
X157459698Y-29738327D01*
X157638327Y-29559699D01*
X157735000Y-29326310D01*
X157735000Y-28785750D01*
X157576250Y-28627000D01*
X156652000Y-28627000D01*
X156398000Y-28627000D01*
X156378000Y-28627000D01*
X156378000Y-28373000D01*
X156398000Y-28373000D01*
X156398000Y-28353000D01*
X156652000Y-28353000D01*
X156652000Y-28373000D01*
X157576250Y-28373000D01*
X157735000Y-28214250D01*
X157735000Y-27710000D01*
X167949420Y-27710000D01*
X168360027Y-27768803D01*
X168360027Y-27768803D01*
G37*
X168360027Y-27768803D02*
X168691110Y-27919338D01*
X168966639Y-28156749D01*
X169164456Y-28461944D01*
X169274751Y-28830742D01*
X169069926Y-28790000D01*
X169069925Y-28790000D01*
X169000000Y-28776091D01*
X168930074Y-28790000D01*
X167569926Y-28790000D01*
X167500000Y-28776091D01*
X167430075Y-28790000D01*
X167430074Y-28790000D01*
X167222972Y-28831195D01*
X166988119Y-28988119D01*
X166831195Y-29222972D01*
X166776091Y-29500000D01*
X166790001Y-29569930D01*
X166790000Y-33430074D01*
X166776091Y-33500000D01*
X166831195Y-33777028D01*
X166988119Y-34011881D01*
X167195770Y-34150629D01*
X167222972Y-34168805D01*
X167500000Y-34223909D01*
X167569925Y-34210000D01*
X168930075Y-34210000D01*
X169000000Y-34223909D01*
X169265000Y-34171197D01*
X169265001Y-42072388D01*
X169290000Y-42198066D01*
X169290001Y-48823830D01*
X169119926Y-48790000D01*
X169119925Y-48790000D01*
X169050000Y-48776091D01*
X168980074Y-48790000D01*
X167519926Y-48790000D01*
X167450000Y-48776091D01*
X167380075Y-48790000D01*
X167380074Y-48790000D01*
X167172972Y-48831195D01*
X166938119Y-48988119D01*
X166781195Y-49222972D01*
X166726091Y-49500000D01*
X166740001Y-49569930D01*
X166740000Y-53430074D01*
X166726091Y-53500000D01*
X166781195Y-53777028D01*
X166938119Y-54011881D01*
X167172972Y-54168805D01*
X167274500Y-54189000D01*
X167450000Y-54223909D01*
X167519925Y-54210000D01*
X168980075Y-54210000D01*
X169050000Y-54223909D01*
X169225501Y-54189000D01*
X169265000Y-54181143D01*
X169265001Y-62072388D01*
X169290000Y-62198066D01*
X169290001Y-64430070D01*
X169276091Y-64500000D01*
X169331195Y-64777028D01*
X169488119Y-65011881D01*
X169722972Y-65168805D01*
X169930074Y-65210000D01*
X169930075Y-65210000D01*
X170000000Y-65223909D01*
X170069926Y-65210000D01*
X170719502Y-65210000D01*
X170473460Y-65374400D01*
X170029203Y-65956517D01*
X169797455Y-66651151D01*
X169803206Y-67383402D01*
X170045836Y-68074311D01*
X170499182Y-68649377D01*
X171114360Y-69046593D01*
X171825036Y-69223126D01*
X172554578Y-69159940D01*
X173224321Y-68863850D01*
X173762046Y-68366783D01*
X173790000Y-68314975D01*
X173790000Y-71692365D01*
X173562060Y-71617545D01*
X172679605Y-72500000D01*
X173562060Y-73382455D01*
X173790000Y-73307635D01*
X173790000Y-76168517D01*
X173780116Y-76144654D01*
X173355346Y-75719884D01*
X172800358Y-75490000D01*
X172199642Y-75490000D01*
X171644654Y-75719884D01*
X171219884Y-76144654D01*
X170990000Y-76699642D01*
X170990000Y-76857050D01*
X170964476Y-76831526D01*
X170345167Y-76575000D01*
X169674833Y-76575000D01*
X169055524Y-76831526D01*
X168581526Y-77305524D01*
X168325000Y-77924833D01*
X168325000Y-78595167D01*
X168581526Y-79214476D01*
X169055524Y-79688474D01*
X169674833Y-79945000D01*
X170345167Y-79945000D01*
X170964476Y-79688474D01*
X171438474Y-79214476D01*
X171695000Y-78595167D01*
X171695000Y-78300970D01*
X172199642Y-78510000D01*
X172800358Y-78510000D01*
X173355346Y-78280116D01*
X173780116Y-77855346D01*
X173790000Y-77831483D01*
X173790000Y-82192365D01*
X173562060Y-82117545D01*
X172679605Y-83000000D01*
X173562060Y-83882455D01*
X173790000Y-83807635D01*
X173790001Y-86668517D01*
X173780116Y-86644654D01*
X173355346Y-86219884D01*
X172800358Y-85990000D01*
X172199642Y-85990000D01*
X171644654Y-86219884D01*
X171219884Y-86644654D01*
X170990000Y-87199642D01*
X170990000Y-87357050D01*
X170964476Y-87331526D01*
X170345167Y-87075000D01*
X169674833Y-87075000D01*
X169055524Y-87331526D01*
X168581526Y-87805524D01*
X168325000Y-88424833D01*
X168325000Y-89095167D01*
X168581526Y-89714476D01*
X169055524Y-90188474D01*
X169674833Y-90445000D01*
X170345167Y-90445000D01*
X170964476Y-90188474D01*
X171438474Y-89714476D01*
X171695000Y-89095167D01*
X171695000Y-88800970D01*
X172199642Y-89010000D01*
X172800358Y-89010000D01*
X173355346Y-88780116D01*
X173780116Y-88355346D01*
X173790001Y-88331483D01*
X173790001Y-92692365D01*
X173562060Y-92617545D01*
X172679605Y-93500000D01*
X173562060Y-94382455D01*
X173790001Y-94307635D01*
X173790001Y-97168518D01*
X173780116Y-97144654D01*
X173355346Y-96719884D01*
X172800358Y-96490000D01*
X172199642Y-96490000D01*
X171644654Y-96719884D01*
X171219884Y-97144654D01*
X170990000Y-97699642D01*
X170990000Y-97857050D01*
X170964476Y-97831526D01*
X170345167Y-97575000D01*
X169674833Y-97575000D01*
X169055524Y-97831526D01*
X168581526Y-98305524D01*
X168325000Y-98924833D01*
X168325000Y-99595167D01*
X168581526Y-100214476D01*
X169055524Y-100688474D01*
X169674833Y-100945000D01*
X170345167Y-100945000D01*
X170964476Y-100688474D01*
X171438474Y-100214476D01*
X171695000Y-99595167D01*
X171695000Y-99300970D01*
X172199642Y-99510000D01*
X172800358Y-99510000D01*
X173355346Y-99280116D01*
X173780116Y-98855346D01*
X173790001Y-98831482D01*
X173790001Y-103367534D01*
X173673410Y-103159346D01*
X173148927Y-102689580D01*
X172500557Y-102415031D01*
X171798212Y-102365302D01*
X171117625Y-102545756D01*
X170532185Y-102936935D01*
X170105017Y-103496658D01*
X169882185Y-104164571D01*
X169887715Y-104868653D01*
X170121011Y-105532983D01*
X170556917Y-106085927D01*
X170872970Y-106290000D01*
X147919936Y-106290000D01*
X147948157Y-106247765D01*
X147997440Y-106000000D01*
X147997440Y-104000000D01*
X147948157Y-103752235D01*
X147807809Y-103542191D01*
X147597765Y-103401843D01*
X147350000Y-103352560D01*
X145650000Y-103352560D01*
X145402235Y-103401843D01*
X145192191Y-103542191D01*
X145051843Y-103752235D01*
X145049281Y-103765114D01*
X144579418Y-103451161D01*
X144000000Y-103335908D01*
X143420583Y-103451161D01*
X142929375Y-103779375D01*
X142601161Y-104270582D01*
X142515000Y-104703744D01*
X142515000Y-105296255D01*
X142601161Y-105729417D01*
X142929375Y-106220625D01*
X143033202Y-106290000D01*
X139619936Y-106290000D01*
X139648157Y-106247765D01*
X139697440Y-106000000D01*
X139697440Y-104000000D01*
X139648157Y-103752235D01*
X139507809Y-103542191D01*
X139347388Y-103435000D01*
X140672688Y-103435000D01*
X140750000Y-103450378D01*
X140827312Y-103435000D01*
X140827316Y-103435000D01*
X141056292Y-103389454D01*
X141315953Y-103215953D01*
X141359749Y-103150408D01*
X141885923Y-102624234D01*
X152315000Y-102624234D01*
X152315000Y-103075766D01*
X152487793Y-103492926D01*
X152807074Y-103812207D01*
X153224234Y-103985000D01*
X153675766Y-103985000D01*
X154092926Y-103812207D01*
X154412207Y-103492926D01*
X154585000Y-103075766D01*
X154585000Y-102624234D01*
X160315000Y-102624234D01*
X160315000Y-103075766D01*
X160487793Y-103492926D01*
X160807074Y-103812207D01*
X161224234Y-103985000D01*
X161675766Y-103985000D01*
X162092926Y-103812207D01*
X162412207Y-103492926D01*
X162585000Y-103075766D01*
X162585000Y-102624234D01*
X162412207Y-102207074D01*
X162092926Y-101887793D01*
X161675766Y-101715000D01*
X161224234Y-101715000D01*
X160807074Y-101887793D01*
X160487793Y-102207074D01*
X160315000Y-102624234D01*
X154585000Y-102624234D01*
X154412207Y-102207074D01*
X154092926Y-101887793D01*
X153675766Y-101715000D01*
X153224234Y-101715000D01*
X152807074Y-101887793D01*
X152487793Y-102207074D01*
X152315000Y-102624234D01*
X141885923Y-102624234D01*
X142350411Y-102159747D01*
X142415953Y-102115953D01*
X142459747Y-102050411D01*
X142459749Y-102050409D01*
X142589454Y-101856292D01*
X142615410Y-101725801D01*
X142635000Y-101627316D01*
X142635000Y-101627312D01*
X142650378Y-101550000D01*
X142635000Y-101472688D01*
X142635000Y-98096500D01*
X142857986Y-97873514D01*
X143039000Y-97436507D01*
X143039000Y-96963493D01*
X142857986Y-96526486D01*
X142523514Y-96192014D01*
X142086507Y-96011000D01*
X141613493Y-96011000D01*
X141176486Y-96192014D01*
X140842014Y-96526486D01*
X140661000Y-96963493D01*
X140661000Y-97436507D01*
X140842014Y-97873514D01*
X141065001Y-98096501D01*
X141065000Y-101224842D01*
X140424843Y-101865000D01*
X129843542Y-101865000D01*
X129936552Y-101725801D01*
X129985000Y-101482237D01*
X129985000Y-101482234D01*
X130001357Y-101400001D01*
X129985000Y-101317768D01*
X129985000Y-98695867D01*
X130345868Y-98335000D01*
X131651241Y-98335000D01*
X131733474Y-98351357D01*
X131815707Y-98335000D01*
X131815711Y-98335000D01*
X132059275Y-98286552D01*
X132335475Y-98102001D01*
X132382061Y-98032280D01*
X133982285Y-96432058D01*
X134052001Y-96385475D01*
X134183282Y-96189000D01*
X134236552Y-96109275D01*
X134285000Y-95865711D01*
X134285000Y-95865708D01*
X134289769Y-95841731D01*
X134457986Y-95673514D01*
X134639000Y-95236507D01*
X134639000Y-94763493D01*
X134457986Y-94326486D01*
X134123514Y-93992014D01*
X133686507Y-93811000D01*
X133213493Y-93811000D01*
X132776486Y-93992014D01*
X132511887Y-94256613D01*
X132457986Y-94126486D01*
X132235000Y-93903500D01*
X132235000Y-93277312D01*
X132250378Y-93200000D01*
X132235000Y-93122688D01*
X132235000Y-93122684D01*
X132189454Y-92893708D01*
X132015953Y-92634047D01*
X131950408Y-92590251D01*
X131545157Y-92185000D01*
X138354132Y-92185000D01*
X138415001Y-92245869D01*
X138415000Y-93670658D01*
X138067718Y-94017941D01*
X137998000Y-94064525D01*
X137951416Y-94134243D01*
X137813448Y-94340726D01*
X137789093Y-94463166D01*
X137765000Y-94584289D01*
X137765000Y-94584293D01*
X137760231Y-94608269D01*
X137592014Y-94776486D01*
X137411000Y-95213493D01*
X137411000Y-95686507D01*
X137592014Y-96123514D01*
X137926486Y-96457986D01*
X138363493Y-96639000D01*
X138836507Y-96639000D01*
X139273514Y-96457986D01*
X139607986Y-96123514D01*
X139789000Y-95686507D01*
X139789000Y-95213493D01*
X139626415Y-94820978D01*
X139782283Y-94665111D01*
X139852001Y-94618527D01*
X140036552Y-94342327D01*
X140085000Y-94098763D01*
X140085000Y-94098762D01*
X140101358Y-94016526D01*
X140085000Y-93934289D01*
X140085000Y-91982232D01*
X140101357Y-91899999D01*
X140085000Y-91817766D01*
X140085000Y-91817763D01*
X140036552Y-91574199D01*
X139852001Y-91297999D01*
X139782285Y-91251416D01*
X139348587Y-90817719D01*
X139302001Y-90747999D01*
X139025801Y-90563448D01*
X138782237Y-90515000D01*
X138782233Y-90515000D01*
X138700000Y-90498643D01*
X138617767Y-90515000D01*
X129495868Y-90515000D01*
X129369868Y-90389000D01*
X129836507Y-90389000D01*
X130273514Y-90207986D01*
X130607986Y-89873514D01*
X130789000Y-89436507D01*
X130789000Y-89198614D01*
X130940551Y-88971802D01*
X130988999Y-88728238D01*
X130988999Y-88728237D01*
X131005357Y-88646001D01*
X130988999Y-88563764D01*
X130988999Y-79591868D01*
X131545868Y-79035000D01*
X134467767Y-79035000D01*
X134550000Y-79051357D01*
X134632233Y-79035000D01*
X134632237Y-79035000D01*
X134875801Y-78986552D01*
X135152001Y-78802001D01*
X135198587Y-78732280D01*
X135291867Y-78639000D01*
X135536507Y-78639000D01*
X135973514Y-78457986D01*
X136196500Y-78235000D01*
X145074843Y-78235000D01*
X145411000Y-78571158D01*
X145411000Y-78886507D01*
X145592014Y-79323514D01*
X145926486Y-79657986D01*
X146363493Y-79839000D01*
X146608132Y-79839000D01*
X146621715Y-79852583D01*
X146621718Y-79852585D01*
X150262998Y-83493866D01*
X150262998Y-83629844D01*
X150033110Y-83508524D01*
X149623076Y-83678355D01*
X149194817Y-84068642D01*
X149133843Y-84198478D01*
X148920625Y-83879375D01*
X148429418Y-83551161D01*
X147996256Y-83465000D01*
X147703744Y-83465000D01*
X147270582Y-83551161D01*
X146779375Y-83879375D01*
X146580000Y-84177761D01*
X146380625Y-83879375D01*
X145889418Y-83551161D01*
X145456256Y-83465000D01*
X145163744Y-83465000D01*
X144730582Y-83551161D01*
X144239375Y-83879375D01*
X144227184Y-83897619D01*
X144218157Y-83852235D01*
X144077809Y-83642191D01*
X143867765Y-83501843D01*
X143620000Y-83452560D01*
X141920000Y-83452560D01*
X141672235Y-83501843D01*
X141462191Y-83642191D01*
X141321843Y-83852235D01*
X141272560Y-84100000D01*
X141272560Y-85800000D01*
X141321843Y-86047765D01*
X141462191Y-86257809D01*
X141671480Y-86397653D01*
X141358132Y-86711001D01*
X135836236Y-86711001D01*
X135753999Y-86694643D01*
X135671762Y-86711001D01*
X135428198Y-86759449D01*
X135201386Y-86911000D01*
X134963493Y-86911000D01*
X134526486Y-87092014D01*
X134192014Y-87426486D01*
X134011000Y-87863493D01*
X134011000Y-88336507D01*
X134192014Y-88773514D01*
X134526486Y-89107986D01*
X134963493Y-89289000D01*
X135436507Y-89289000D01*
X135873514Y-89107986D01*
X136207986Y-88773514D01*
X136370570Y-88381001D01*
X141621766Y-88381001D01*
X141703999Y-88397358D01*
X141786232Y-88381001D01*
X141786236Y-88381001D01*
X142029800Y-88332553D01*
X142306000Y-88148002D01*
X142352586Y-88078281D01*
X143302283Y-87128585D01*
X143372001Y-87082001D01*
X143556552Y-86805801D01*
X143605000Y-86562237D01*
X143605000Y-86562234D01*
X143621357Y-86480001D01*
X143614880Y-86447440D01*
X143620000Y-86447440D01*
X143867765Y-86398157D01*
X144077809Y-86257809D01*
X144218157Y-86047765D01*
X144227184Y-86002381D01*
X144239375Y-86020625D01*
X144730582Y-86348839D01*
X145163744Y-86435000D01*
X145456256Y-86435000D01*
X145889418Y-86348839D01*
X146380625Y-86020625D01*
X146580000Y-85722239D01*
X146779375Y-86020625D01*
X147270582Y-86348839D01*
X147703744Y-86435000D01*
X147996256Y-86435000D01*
X148429418Y-86348839D01*
X148920625Y-86020625D01*
X149133843Y-85701522D01*
X149194817Y-85831358D01*
X149623076Y-86221645D01*
X150033110Y-86391476D01*
X150263000Y-86270155D01*
X150263000Y-85077000D01*
X150243000Y-85077000D01*
X150243000Y-84823000D01*
X150263000Y-84823000D01*
X150263000Y-84803000D01*
X150517000Y-84803000D01*
X150517000Y-84823000D01*
X150537000Y-84823000D01*
X150537000Y-85077000D01*
X150517000Y-85077000D01*
X150517000Y-86270155D01*
X150746890Y-86391476D01*
X151156924Y-86221645D01*
X151585183Y-85831358D01*
X151831486Y-85306892D01*
X151710820Y-85077002D01*
X151846134Y-85077002D01*
X152515001Y-85745869D01*
X152515000Y-86953500D01*
X152342014Y-87126486D01*
X152161000Y-87563493D01*
X152161000Y-88036507D01*
X152342014Y-88473514D01*
X152676486Y-88807986D01*
X153089456Y-88979044D01*
X153003500Y-89065000D01*
X146775158Y-89065000D01*
X146689000Y-88978842D01*
X146689000Y-88663493D01*
X146507986Y-88226486D01*
X146173514Y-87892014D01*
X145736507Y-87711000D01*
X145263493Y-87711000D01*
X144826486Y-87892014D01*
X144492014Y-88226486D01*
X144311000Y-88663493D01*
X144311000Y-89136507D01*
X144492014Y-89573514D01*
X144518500Y-89600000D01*
X144442014Y-89676486D01*
X144261000Y-90113493D01*
X144261000Y-90586507D01*
X144442014Y-91023514D01*
X144568500Y-91150000D01*
X144492014Y-91226486D01*
X144311000Y-91663493D01*
X144311000Y-92136507D01*
X144492014Y-92573514D01*
X144826486Y-92907986D01*
X145263493Y-93089000D01*
X145736507Y-93089000D01*
X146173514Y-92907986D01*
X146396500Y-92685000D01*
X152874843Y-92685000D01*
X155111000Y-94921158D01*
X155111000Y-95186507D01*
X155292014Y-95623514D01*
X155626486Y-95957986D01*
X156063493Y-96139000D01*
X156536507Y-96139000D01*
X156973514Y-95957986D01*
X157307986Y-95623514D01*
X157489000Y-95186507D01*
X157489000Y-94713493D01*
X157426275Y-94562060D01*
X171617545Y-94562060D01*
X171700884Y-94815953D01*
X172265306Y-95021590D01*
X172865458Y-94995579D01*
X173299116Y-94815953D01*
X173382455Y-94562060D01*
X172500000Y-93679605D01*
X171617545Y-94562060D01*
X157426275Y-94562060D01*
X157307986Y-94276486D01*
X156973514Y-93942014D01*
X156536507Y-93761000D01*
X156171158Y-93761000D01*
X154324991Y-91914833D01*
X168325000Y-91914833D01*
X168325000Y-92585167D01*
X168581526Y-93204476D01*
X169055524Y-93678474D01*
X169674833Y-93935000D01*
X170345167Y-93935000D01*
X170964476Y-93678474D01*
X170994994Y-93647956D01*
X171004421Y-93865458D01*
X171184047Y-94299116D01*
X171437940Y-94382455D01*
X172320395Y-93500000D01*
X172306253Y-93485858D01*
X172485858Y-93306253D01*
X172500000Y-93320395D01*
X173382455Y-92437940D01*
X173299116Y-92184047D01*
X172734694Y-91978410D01*
X172134542Y-92004421D01*
X171700884Y-92184047D01*
X171695000Y-92201973D01*
X171695000Y-91914833D01*
X171438474Y-91295524D01*
X170964476Y-90821526D01*
X170345167Y-90565000D01*
X169674833Y-90565000D01*
X169055524Y-90821526D01*
X168581526Y-91295524D01*
X168325000Y-91914833D01*
X154324991Y-91914833D01*
X154195157Y-91785000D01*
X157372688Y-91785000D01*
X157450000Y-91800378D01*
X157527312Y-91785000D01*
X157527316Y-91785000D01*
X157756292Y-91739454D01*
X158015953Y-91565953D01*
X158059749Y-91500408D01*
X158571158Y-90989000D01*
X158636507Y-90989000D01*
X159073514Y-90807986D01*
X159407986Y-90473514D01*
X159589000Y-90036507D01*
X159589000Y-89563493D01*
X159407986Y-89126486D01*
X159073514Y-88792014D01*
X158636507Y-88611000D01*
X158163493Y-88611000D01*
X157726486Y-88792014D01*
X157392014Y-89126486D01*
X157211000Y-89563493D01*
X157211000Y-90036507D01*
X157238044Y-90101798D01*
X157124843Y-90215000D01*
X155035777Y-90215000D01*
X155089000Y-90086507D01*
X155089000Y-89613493D01*
X154907986Y-89176486D01*
X154573514Y-88842014D01*
X154160544Y-88670956D01*
X154357986Y-88473514D01*
X154539000Y-88036507D01*
X154539000Y-87563493D01*
X154357986Y-87126486D01*
X154185000Y-86953500D01*
X154185000Y-85482237D01*
X154201358Y-85400000D01*
X154136552Y-85074200D01*
X154136552Y-85074199D01*
X153952001Y-84797999D01*
X153882283Y-84751415D01*
X147802585Y-78671718D01*
X147802583Y-78671715D01*
X147789000Y-78658132D01*
X147789000Y-78413493D01*
X147607986Y-77976486D01*
X147273514Y-77642014D01*
X146836507Y-77461000D01*
X146521158Y-77461000D01*
X146009749Y-76949592D01*
X145965953Y-76884047D01*
X145706292Y-76710546D01*
X145477316Y-76665000D01*
X145477312Y-76665000D01*
X145400000Y-76649622D01*
X145322688Y-76665000D01*
X136196500Y-76665000D01*
X135973514Y-76442014D01*
X135536507Y-76261000D01*
X135063493Y-76261000D01*
X134626486Y-76442014D01*
X134292014Y-76776486D01*
X134111000Y-77213493D01*
X134111000Y-77365000D01*
X131282237Y-77365000D01*
X131200000Y-77348642D01*
X131117763Y-77365000D01*
X130874199Y-77413448D01*
X130597999Y-77597999D01*
X130551415Y-77667717D01*
X130549940Y-77669193D01*
X130407986Y-77326486D01*
X130073514Y-76992014D01*
X129636507Y-76811000D01*
X129163493Y-76811000D01*
X128726486Y-76992014D01*
X128392014Y-77326486D01*
X128306127Y-77533837D01*
X128085000Y-77312711D01*
X128085000Y-69563493D01*
X128761000Y-69563493D01*
X128761000Y-70036507D01*
X128942014Y-70473514D01*
X129223869Y-70755369D01*
X129232213Y-70797317D01*
X129310735Y-70914833D01*
X129400630Y-71049371D01*
X129464251Y-71091881D01*
X130120435Y-71748065D01*
X130042014Y-71826486D01*
X129861000Y-72263493D01*
X129861000Y-72736507D01*
X130042014Y-73173514D01*
X130376486Y-73507986D01*
X130813493Y-73689000D01*
X131286507Y-73689000D01*
X131723514Y-73507986D01*
X131952378Y-73279122D01*
X132263493Y-73407990D01*
X132736507Y-73407990D01*
X133173514Y-73226976D01*
X133507986Y-72892504D01*
X133689000Y-72455497D01*
X133689000Y-72263493D01*
X136561000Y-72263493D01*
X136561000Y-72736507D01*
X136742014Y-73173514D01*
X137076486Y-73507986D01*
X137513493Y-73689000D01*
X137986507Y-73689000D01*
X138423514Y-73507986D01*
X138757986Y-73173514D01*
X138886400Y-72863493D01*
X142611000Y-72863493D01*
X142611000Y-73336507D01*
X142792014Y-73773514D01*
X143126486Y-74107986D01*
X143563493Y-74289000D01*
X143911370Y-74289000D01*
X146658117Y-77035748D01*
X146700629Y-77099371D01*
X146764251Y-77141882D01*
X146774368Y-77148642D01*
X146952683Y-77267788D01*
X147174952Y-77312000D01*
X147174953Y-77312000D01*
X147250000Y-77326928D01*
X147325047Y-77312000D01*
X149534370Y-77312000D01*
X152188000Y-79965631D01*
X152188001Y-82324952D01*
X152173073Y-82400000D01*
X152188001Y-82475048D01*
X152232213Y-82697317D01*
X152400630Y-82949371D01*
X152464251Y-82991881D01*
X153758118Y-84285749D01*
X153800629Y-84349371D01*
X154052683Y-84517788D01*
X154274952Y-84562000D01*
X154274957Y-84562000D01*
X154350000Y-84576927D01*
X154425043Y-84562000D01*
X157124957Y-84562000D01*
X157200000Y-84576927D01*
X157275043Y-84562000D01*
X157275048Y-84562000D01*
X157497317Y-84517788D01*
X157749371Y-84349371D01*
X157791883Y-84285747D01*
X158015570Y-84062060D01*
X171617545Y-84062060D01*
X171700884Y-84315953D01*
X172265306Y-84521590D01*
X172865458Y-84495579D01*
X173299116Y-84315953D01*
X173382455Y-84062060D01*
X172500000Y-83179605D01*
X171617545Y-84062060D01*
X158015570Y-84062060D01*
X159635750Y-82441881D01*
X159699371Y-82399371D01*
X159781185Y-82276928D01*
X159867787Y-82147319D01*
X159867787Y-82147318D01*
X159867788Y-82147317D01*
X159912000Y-81925048D01*
X159912000Y-81925044D01*
X159926927Y-81850001D01*
X159912000Y-81774958D01*
X159912000Y-81414833D01*
X168325000Y-81414833D01*
X168325000Y-82085167D01*
X168581526Y-82704476D01*
X169055524Y-83178474D01*
X169674833Y-83435000D01*
X170345167Y-83435000D01*
X170964476Y-83178474D01*
X170994994Y-83147956D01*
X171004421Y-83365458D01*
X171184047Y-83799116D01*
X171437940Y-83882455D01*
X172320395Y-83000000D01*
X172306253Y-82985858D01*
X172485858Y-82806253D01*
X172500000Y-82820395D01*
X173382455Y-81937940D01*
X173299116Y-81684047D01*
X172734694Y-81478410D01*
X172134542Y-81504421D01*
X171700884Y-81684047D01*
X171695000Y-81701973D01*
X171695000Y-81414833D01*
X171438474Y-80795524D01*
X170964476Y-80321526D01*
X170345167Y-80065000D01*
X169674833Y-80065000D01*
X169055524Y-80321526D01*
X168581526Y-80795524D01*
X168325000Y-81414833D01*
X159912000Y-81414833D01*
X159912000Y-74365630D01*
X160391882Y-73885749D01*
X160391884Y-73885746D01*
X160715570Y-73562060D01*
X171617545Y-73562060D01*
X171700884Y-73815953D01*
X172265306Y-74021590D01*
X172865458Y-73995579D01*
X173299116Y-73815953D01*
X173382455Y-73562060D01*
X172500000Y-72679605D01*
X171617545Y-73562060D01*
X160715570Y-73562060D01*
X160838630Y-73439000D01*
X161186507Y-73439000D01*
X161623514Y-73257986D01*
X161957986Y-72923514D01*
X162139000Y-72486507D01*
X162139000Y-72013493D01*
X161957986Y-71576486D01*
X161623514Y-71242014D01*
X161186507Y-71061000D01*
X160734414Y-71061000D01*
X160673870Y-70914833D01*
X168325000Y-70914833D01*
X168325000Y-71585167D01*
X168581526Y-72204476D01*
X169055524Y-72678474D01*
X169674833Y-72935000D01*
X170345167Y-72935000D01*
X170964476Y-72678474D01*
X170994994Y-72647956D01*
X171004421Y-72865458D01*
X171184047Y-73299116D01*
X171437940Y-73382455D01*
X172320395Y-72500000D01*
X172306253Y-72485858D01*
X172485858Y-72306253D01*
X172500000Y-72320395D01*
X173382455Y-71437940D01*
X173299116Y-71184047D01*
X172734694Y-70978410D01*
X172134542Y-71004421D01*
X171700884Y-71184047D01*
X171695000Y-71201973D01*
X171695000Y-70914833D01*
X171438474Y-70295524D01*
X170964476Y-69821526D01*
X170345167Y-69565000D01*
X169674833Y-69565000D01*
X169055524Y-69821526D01*
X168581526Y-70295524D01*
X168325000Y-70914833D01*
X160673870Y-70914833D01*
X160657986Y-70876486D01*
X160323514Y-70542014D01*
X159886507Y-70361000D01*
X159413493Y-70361000D01*
X158976486Y-70542014D01*
X158642014Y-70876486D01*
X158461000Y-71313493D01*
X158461000Y-71786507D01*
X158642014Y-72223514D01*
X158695435Y-72276935D01*
X158114253Y-72858117D01*
X158050629Y-72900629D01*
X157882212Y-73152683D01*
X157838000Y-73374952D01*
X157838000Y-73374957D01*
X157823073Y-73450000D01*
X157838000Y-73525043D01*
X157838000Y-73675047D01*
X157838001Y-73675052D01*
X157838000Y-81184369D01*
X156584370Y-82438000D01*
X155015631Y-82438000D01*
X154362000Y-81784370D01*
X154362000Y-79325042D01*
X154376927Y-79249999D01*
X154362000Y-79174956D01*
X154362000Y-79174952D01*
X154317788Y-78952683D01*
X154149371Y-78700629D01*
X154085750Y-78658119D01*
X150791883Y-75364253D01*
X150749371Y-75300629D01*
X150497317Y-75132212D01*
X150275048Y-75088000D01*
X150275043Y-75088000D01*
X150200000Y-75073073D01*
X150124957Y-75088000D01*
X147932157Y-75088000D01*
X146537828Y-73693672D01*
X146557986Y-73673514D01*
X146739000Y-73236507D01*
X146739000Y-72763493D01*
X146557986Y-72326486D01*
X146223514Y-71992014D01*
X145786507Y-71811000D01*
X145313493Y-71811000D01*
X144876486Y-71992014D01*
X144625000Y-72243500D01*
X144473514Y-72092014D01*
X144036507Y-71911000D01*
X143563493Y-71911000D01*
X143126486Y-72092014D01*
X142792014Y-72426486D01*
X142611000Y-72863493D01*
X138886400Y-72863493D01*
X138939000Y-72736507D01*
X138939000Y-72388630D01*
X139388631Y-71939000D01*
X139736507Y-71939000D01*
X140173514Y-71757986D01*
X140507986Y-71423514D01*
X140677822Y-71013493D01*
X148061000Y-71013493D01*
X148061000Y-71486507D01*
X148242014Y-71923514D01*
X148315001Y-71996501D01*
X148315000Y-72757914D01*
X148296683Y-72850000D01*
X148356891Y-73152683D01*
X148369250Y-73214818D01*
X148575903Y-73524097D01*
X148653972Y-73576261D01*
X149723740Y-74646030D01*
X149775903Y-74724097D01*
X150085181Y-74930750D01*
X150357914Y-74985000D01*
X150357917Y-74985000D01*
X150449999Y-75003316D01*
X150542081Y-74985000D01*
X153562711Y-74985000D01*
X155269000Y-76691290D01*
X155268999Y-79920851D01*
X154976486Y-80042014D01*
X154642014Y-80376486D01*
X154461000Y-80813493D01*
X154461000Y-81286507D01*
X154642014Y-81723514D01*
X154976486Y-82057986D01*
X155413493Y-82239000D01*
X155886507Y-82239000D01*
X156323514Y-82057986D01*
X156657986Y-81723514D01*
X156839000Y-81286507D01*
X156839000Y-81196221D01*
X156878096Y-81170098D01*
X157084749Y-80860820D01*
X157138999Y-80588087D01*
X157138999Y-80588086D01*
X157157316Y-80496001D01*
X157138999Y-80403915D01*
X157138999Y-76396085D01*
X157157316Y-76303999D01*
X157084749Y-75939180D01*
X156930258Y-75707968D01*
X156878096Y-75629902D01*
X156800030Y-75577740D01*
X154676261Y-73453972D01*
X154624097Y-73375903D01*
X154314819Y-73169250D01*
X154042086Y-73115000D01*
X153950000Y-73096683D01*
X153857914Y-73115000D01*
X150837290Y-73115000D01*
X150185000Y-72462711D01*
X150185000Y-71996500D01*
X150257986Y-71923514D01*
X150439000Y-71486507D01*
X150439000Y-71013493D01*
X150257986Y-70576486D01*
X149923514Y-70242014D01*
X149486507Y-70061000D01*
X149013493Y-70061000D01*
X148576486Y-70242014D01*
X148242014Y-70576486D01*
X148061000Y-71013493D01*
X140677822Y-71013493D01*
X140689000Y-70986507D01*
X140689000Y-70513493D01*
X140507986Y-70076486D01*
X140173514Y-69742014D01*
X139736507Y-69561000D01*
X139263493Y-69561000D01*
X138826486Y-69742014D01*
X138492014Y-70076486D01*
X138311000Y-70513493D01*
X138311000Y-70861369D01*
X137861370Y-71311000D01*
X137513493Y-71311000D01*
X137076486Y-71492014D01*
X136742014Y-71826486D01*
X136561000Y-72263493D01*
X133689000Y-72263493D01*
X133689000Y-71982483D01*
X133507986Y-71545476D01*
X133262000Y-71299490D01*
X133262000Y-70975043D01*
X133276927Y-70900000D01*
X133262000Y-70824957D01*
X133262000Y-70824952D01*
X133217788Y-70602683D01*
X133049371Y-70350629D01*
X132985750Y-70308119D01*
X132589000Y-69911369D01*
X132589000Y-69563493D01*
X132407986Y-69126486D01*
X132073514Y-68792014D01*
X131636507Y-68611000D01*
X131163493Y-68611000D01*
X130726486Y-68792014D01*
X130675000Y-68843500D01*
X130623514Y-68792014D01*
X130186507Y-68611000D01*
X129713493Y-68611000D01*
X129276486Y-68792014D01*
X128942014Y-69126486D01*
X128761000Y-69563493D01*
X128085000Y-69563493D01*
X128085000Y-67137289D01*
X130237289Y-64985000D01*
X131657914Y-64985000D01*
X131750000Y-65003317D01*
X131842086Y-64985000D01*
X132114819Y-64930750D01*
X132424097Y-64724097D01*
X132476261Y-64646028D01*
X133561000Y-63561290D01*
X133561000Y-63886507D01*
X133742014Y-64323514D01*
X134076486Y-64657986D01*
X134513493Y-64839000D01*
X134986507Y-64839000D01*
X135423514Y-64657986D01*
X135550000Y-64531500D01*
X135626486Y-64607986D01*
X136063493Y-64789000D01*
X136536507Y-64789000D01*
X136973514Y-64607986D01*
X137307986Y-64273514D01*
X137375284Y-64111041D01*
X137563493Y-64189000D01*
X138036507Y-64189000D01*
X138473514Y-64007986D01*
X138807986Y-63673514D01*
X138842962Y-63589074D01*
X138963493Y-63639000D01*
X139436507Y-63639000D01*
X139873514Y-63457986D01*
X140207986Y-63123514D01*
X140389000Y-62686507D01*
X140389000Y-62539000D01*
X140586507Y-62539000D01*
X141023514Y-62357986D01*
X141357986Y-62023514D01*
X141539000Y-61586507D01*
X141539000Y-61558001D01*
X142628956Y-61558001D01*
X142703999Y-61572928D01*
X142779042Y-61558001D01*
X142779047Y-61558001D01*
X143001316Y-61513789D01*
X143253370Y-61345372D01*
X143295882Y-61281748D01*
X143935750Y-60641881D01*
X143999371Y-60599371D01*
X144167788Y-60347317D01*
X144212000Y-60125048D01*
X144212000Y-60125047D01*
X144226928Y-60050000D01*
X144212000Y-59974953D01*
X144212000Y-58050687D01*
X144335460Y-58174147D01*
X144844506Y-58385000D01*
X145395494Y-58385000D01*
X145904540Y-58174147D01*
X146294147Y-57784540D01*
X146505000Y-57275494D01*
X146505000Y-56724506D01*
X148615000Y-56724506D01*
X148615000Y-57275494D01*
X148825853Y-57784540D01*
X149215460Y-58174147D01*
X149724506Y-58385000D01*
X150275494Y-58385000D01*
X150784540Y-58174147D01*
X151174147Y-57784540D01*
X151385000Y-57275494D01*
X151385000Y-56724506D01*
X151174147Y-56215460D01*
X150784540Y-55825853D01*
X150275494Y-55615000D01*
X149724506Y-55615000D01*
X149215460Y-55825853D01*
X148825853Y-56215460D01*
X148615000Y-56724506D01*
X146505000Y-56724506D01*
X146294147Y-56215460D01*
X145904540Y-55825853D01*
X145395494Y-55615000D01*
X144844506Y-55615000D01*
X144335460Y-55825853D01*
X144212000Y-55949313D01*
X144212000Y-51565630D01*
X153538631Y-42239000D01*
X153886507Y-42239000D01*
X154188001Y-42114117D01*
X154188000Y-58700895D01*
X152864251Y-60024645D01*
X152800630Y-60067155D01*
X152758119Y-60130777D01*
X152758118Y-60130778D01*
X152699980Y-60217788D01*
X152632213Y-60319209D01*
X152603141Y-60465359D01*
X152342014Y-60726486D01*
X152161000Y-61163493D01*
X152161000Y-61636507D01*
X152342014Y-62073514D01*
X152676486Y-62407986D01*
X153113493Y-62589000D01*
X153586507Y-62589000D01*
X154023514Y-62407986D01*
X154357986Y-62073514D01*
X154361000Y-62066238D01*
X154361000Y-62386507D01*
X154542014Y-62823514D01*
X154876486Y-63157986D01*
X155313493Y-63339000D01*
X155786507Y-63339000D01*
X156223514Y-63157986D01*
X156317001Y-63064499D01*
X156612638Y-63186955D01*
X156935449Y-63186955D01*
X156992014Y-63323514D01*
X157326486Y-63657986D01*
X157763493Y-63839000D01*
X158236507Y-63839000D01*
X158673514Y-63657986D01*
X159007986Y-63323514D01*
X159067962Y-63178719D01*
X159213493Y-63239000D01*
X159686507Y-63239000D01*
X160123514Y-63057986D01*
X160457986Y-62723514D01*
X160639000Y-62286507D01*
X160639000Y-61813493D01*
X160536988Y-61567213D01*
X160615414Y-61684586D01*
X160813001Y-61816610D01*
X160813000Y-64009369D01*
X160484370Y-64338000D01*
X157875047Y-64338000D01*
X157800000Y-64323072D01*
X157724953Y-64338000D01*
X157724952Y-64338000D01*
X157502683Y-64382212D01*
X157421842Y-64436228D01*
X157352710Y-64482421D01*
X157250629Y-64550629D01*
X157208118Y-64614251D01*
X156814251Y-65008119D01*
X156750630Y-65050629D01*
X156708119Y-65114251D01*
X156708118Y-65114252D01*
X156582213Y-65302683D01*
X156523073Y-65600000D01*
X156538001Y-65675048D01*
X156538000Y-67068685D01*
X156514252Y-67092433D01*
X156450630Y-67134944D01*
X156408119Y-67198566D01*
X156408118Y-67198567D01*
X156399217Y-67211888D01*
X156326486Y-67242014D01*
X155992014Y-67576486D01*
X155811000Y-68013493D01*
X155811000Y-68486507D01*
X155992014Y-68923514D01*
X156326486Y-69257986D01*
X156763493Y-69439000D01*
X157236507Y-69439000D01*
X157673514Y-69257986D01*
X158007986Y-68923514D01*
X158189000Y-68486507D01*
X158189000Y-68013493D01*
X158161633Y-67947423D01*
X158243076Y-68021645D01*
X158653110Y-68191476D01*
X158883000Y-68070155D01*
X158883000Y-66877000D01*
X158863000Y-66877000D01*
X158863000Y-66623000D01*
X158883000Y-66623000D01*
X158883000Y-66603000D01*
X159137000Y-66603000D01*
X159137000Y-66623000D01*
X159157000Y-66623000D01*
X159157000Y-66877000D01*
X159137000Y-66877000D01*
X159137000Y-68070155D01*
X159366890Y-68191476D01*
X159776924Y-68021645D01*
X160205183Y-67631358D01*
X160266157Y-67501522D01*
X160479375Y-67820625D01*
X160970582Y-68148839D01*
X161403744Y-68235000D01*
X161696256Y-68235000D01*
X162129418Y-68148839D01*
X162620625Y-67820625D01*
X162820000Y-67522239D01*
X163019375Y-67820625D01*
X163510582Y-68148839D01*
X163943744Y-68235000D01*
X164236256Y-68235000D01*
X164669418Y-68148839D01*
X165160625Y-67820625D01*
X165172816Y-67802381D01*
X165181843Y-67847765D01*
X165322191Y-68057809D01*
X165532235Y-68198157D01*
X165780000Y-68247440D01*
X167480000Y-68247440D01*
X167727765Y-68198157D01*
X167937809Y-68057809D01*
X168078157Y-67847765D01*
X168127440Y-67600000D01*
X168127440Y-65900000D01*
X168078157Y-65652235D01*
X167937809Y-65442191D01*
X167727765Y-65301843D01*
X167480000Y-65252560D01*
X165780000Y-65252560D01*
X165532235Y-65301843D01*
X165322191Y-65442191D01*
X165181843Y-65652235D01*
X165172816Y-65697619D01*
X165160625Y-65679375D01*
X164669418Y-65351161D01*
X164236256Y-65265000D01*
X163943744Y-65265000D01*
X163510582Y-65351161D01*
X163019375Y-65679375D01*
X162820000Y-65977761D01*
X162620625Y-65679375D01*
X162129418Y-65351161D01*
X161709914Y-65267717D01*
X162060750Y-64916881D01*
X162124371Y-64874371D01*
X162172272Y-64802683D01*
X162241547Y-64699005D01*
X162292788Y-64622317D01*
X162337000Y-64400048D01*
X162337000Y-64400047D01*
X162351928Y-64325000D01*
X162337000Y-64249953D01*
X162337000Y-61816609D01*
X162534586Y-61684586D01*
X162600000Y-61586687D01*
X162665414Y-61684586D01*
X162956564Y-61879127D01*
X163299999Y-61947440D01*
X163950001Y-61947440D01*
X164293436Y-61879127D01*
X164584586Y-61684586D01*
X164779127Y-61393436D01*
X164847440Y-61050001D01*
X164847440Y-60149999D01*
X164779127Y-59806564D01*
X164584586Y-59515414D01*
X164387000Y-59383391D01*
X164387000Y-57074791D01*
X164484586Y-57009586D01*
X164623830Y-56801192D01*
X164687500Y-56813857D01*
X164769733Y-56797500D01*
X164769737Y-56797500D01*
X165013301Y-56749052D01*
X165289501Y-56564501D01*
X165336087Y-56494780D01*
X165732283Y-56098585D01*
X165802001Y-56052001D01*
X165986552Y-55775801D01*
X166035000Y-55532237D01*
X166035000Y-55532234D01*
X166051357Y-55450001D01*
X166035000Y-55367768D01*
X166035000Y-49932236D01*
X166051358Y-49850000D01*
X166035000Y-49767763D01*
X166035000Y-37682232D01*
X166051357Y-37599999D01*
X166035000Y-37517766D01*
X166035000Y-37517763D01*
X165986552Y-37274199D01*
X165802001Y-36997999D01*
X165732282Y-36951414D01*
X165415867Y-36635000D01*
X165575222Y-36635000D01*
X166176153Y-36386086D01*
X166636086Y-35926153D01*
X166885000Y-35325222D01*
X166885000Y-34674778D01*
X166636086Y-34073847D01*
X166176153Y-33613914D01*
X165575222Y-33365000D01*
X164924778Y-33365000D01*
X164323847Y-33613914D01*
X163863914Y-34073847D01*
X163615000Y-34674778D01*
X163615000Y-35325222D01*
X163781654Y-35727560D01*
X163100000Y-35727560D01*
X162756565Y-35795874D01*
X162465414Y-35990414D01*
X162270874Y-36281565D01*
X162202560Y-36625000D01*
X162202560Y-37450000D01*
X162270874Y-37793435D01*
X162346042Y-37905933D01*
X162311673Y-37940302D01*
X162215000Y-38173691D01*
X162215000Y-38676750D01*
X162373750Y-38835500D01*
X163373000Y-38835500D01*
X163373000Y-38815500D01*
X163627000Y-38815500D01*
X163627000Y-38835500D01*
X163647000Y-38835500D01*
X163647000Y-39089500D01*
X163627000Y-39089500D01*
X163627000Y-40101250D01*
X163785750Y-40260000D01*
X164276310Y-40260000D01*
X164365001Y-40223263D01*
X164365000Y-49015000D01*
X164229341Y-49015000D01*
X164132061Y-48917720D01*
X164085475Y-48847999D01*
X163809275Y-48663448D01*
X163565711Y-48615000D01*
X163565707Y-48615000D01*
X163541731Y-48610231D01*
X163373514Y-48442014D01*
X162936507Y-48261000D01*
X162463493Y-48261000D01*
X162026486Y-48442014D01*
X161692014Y-48776486D01*
X161511000Y-49213493D01*
X161511000Y-49686507D01*
X161692014Y-50123514D01*
X162026486Y-50457986D01*
X162463493Y-50639000D01*
X162936507Y-50639000D01*
X163322225Y-50479231D01*
X163557673Y-50636552D01*
X163801237Y-50685000D01*
X163801240Y-50685000D01*
X163883473Y-50701357D01*
X163965706Y-50685000D01*
X164365001Y-50685000D01*
X164365000Y-52797448D01*
X164226310Y-52740000D01*
X163735750Y-52740000D01*
X163577000Y-52898750D01*
X163577000Y-53910500D01*
X163597000Y-53910500D01*
X163597000Y-54164500D01*
X163577000Y-54164500D01*
X163577000Y-54184500D01*
X163323000Y-54184500D01*
X163323000Y-54164500D01*
X162323750Y-54164500D01*
X162165000Y-54323250D01*
X162165000Y-54826309D01*
X162261673Y-55059698D01*
X162296042Y-55094067D01*
X162220874Y-55206565D01*
X162152560Y-55550000D01*
X162152560Y-56375000D01*
X162220874Y-56718435D01*
X162415414Y-57009586D01*
X162706565Y-57204126D01*
X162863001Y-57235243D01*
X162863000Y-59383391D01*
X162665414Y-59515414D01*
X162600000Y-59613313D01*
X162534586Y-59515414D01*
X162243436Y-59320873D01*
X161900001Y-59252560D01*
X161249999Y-59252560D01*
X160906564Y-59320873D01*
X160615414Y-59515414D01*
X160420873Y-59806564D01*
X160352560Y-60149999D01*
X160352560Y-61050001D01*
X160407449Y-61325949D01*
X160212000Y-61130500D01*
X160212000Y-60975043D01*
X160226927Y-60900000D01*
X160212000Y-60824957D01*
X160212000Y-60824952D01*
X160167788Y-60602683D01*
X159999371Y-60350629D01*
X159935749Y-60308118D01*
X157712000Y-58084370D01*
X157712000Y-53248691D01*
X162165000Y-53248691D01*
X162165000Y-53751750D01*
X162323750Y-53910500D01*
X163323000Y-53910500D01*
X163323000Y-52898750D01*
X163164250Y-52740000D01*
X162673690Y-52740000D01*
X162440301Y-52836673D01*
X162261673Y-53015302D01*
X162165000Y-53248691D01*
X157712000Y-53248691D01*
X157712000Y-39248250D01*
X162215000Y-39248250D01*
X162215000Y-39751309D01*
X162311673Y-39984698D01*
X162490301Y-40163327D01*
X162723690Y-40260000D01*
X163214250Y-40260000D01*
X163373000Y-40101250D01*
X163373000Y-39089500D01*
X162373750Y-39089500D01*
X162215000Y-39248250D01*
X157712000Y-39248250D01*
X157712000Y-35575042D01*
X157726927Y-35499999D01*
X157712000Y-35424956D01*
X157712000Y-35424952D01*
X157667788Y-35202683D01*
X157665996Y-35200000D01*
X157541882Y-35014251D01*
X157499371Y-34950629D01*
X157435749Y-34908118D01*
X153541883Y-31014253D01*
X153499371Y-30950629D01*
X153247317Y-30782212D01*
X153025048Y-30738000D01*
X153025043Y-30738000D01*
X152950000Y-30723073D01*
X152947440Y-30723582D01*
X152947440Y-30000000D01*
X152898157Y-29752235D01*
X152757809Y-29542191D01*
X152547765Y-29401843D01*
X152442689Y-29380942D01*
X152561631Y-29262000D01*
X153314620Y-29262000D01*
X153320873Y-29293436D01*
X153515414Y-29584586D01*
X153806564Y-29779127D01*
X154149999Y-29847440D01*
X154800001Y-29847440D01*
X155143436Y-29779127D01*
X155434586Y-29584586D01*
X155435377Y-29583403D01*
X155590302Y-29738327D01*
X155823691Y-29835000D01*
X156239250Y-29835000D01*
X156398000Y-29676250D01*
X156398000Y-28627000D01*
X156652000Y-28627000D01*
X156652000Y-29676250D01*
X156810750Y-29835000D01*
X157226309Y-29835000D01*
X157459698Y-29738327D01*
X157638327Y-29559699D01*
X157735000Y-29326310D01*
X157735000Y-28785750D01*
X157576250Y-28627000D01*
X156652000Y-28627000D01*
X156398000Y-28627000D01*
X156378000Y-28627000D01*
X156378000Y-28373000D01*
X156398000Y-28373000D01*
X156398000Y-28353000D01*
X156652000Y-28353000D01*
X156652000Y-28373000D01*
X157576250Y-28373000D01*
X157735000Y-28214250D01*
X157735000Y-27710000D01*
X167949420Y-27710000D01*
X168360027Y-27768803D01*
G36*
X127627000Y-104873000D02*
X127647000Y-104873000D01*
X127647000Y-105127000D01*
X127627000Y-105127000D01*
X127627000Y-105147000D01*
X127373000Y-105147000D01*
X127373000Y-105127000D01*
X127353000Y-105127000D01*
X127353000Y-104873000D01*
X127373000Y-104873000D01*
X127373000Y-104853000D01*
X127627000Y-104853000D01*
X127627000Y-104873000D01*
X127627000Y-104873000D01*
G37*
X127627000Y-104873000D02*
X127647000Y-104873000D01*
X127647000Y-105127000D01*
X127627000Y-105127000D01*
X127627000Y-105147000D01*
X127373000Y-105147000D01*
X127373000Y-105127000D01*
X127353000Y-105127000D01*
X127353000Y-104873000D01*
X127373000Y-104873000D01*
X127373000Y-104853000D01*
X127627000Y-104853000D01*
X127627000Y-104873000D01*
G36*
X127538000Y-96365631D02*
X127538001Y-99251841D01*
X126324843Y-100465000D01*
X126213853Y-100465000D01*
X126047086Y-100215414D01*
X125755935Y-100020874D01*
X125412500Y-99952560D01*
X124587500Y-99952560D01*
X124244065Y-100020874D01*
X124037500Y-100158896D01*
X123830935Y-100020874D01*
X123785000Y-100011737D01*
X123785000Y-99905805D01*
X123793436Y-99904127D01*
X124084586Y-99709586D01*
X124279127Y-99418436D01*
X124347440Y-99075001D01*
X124347440Y-98424999D01*
X124279127Y-98081564D01*
X124207412Y-97974234D01*
X124865000Y-97974234D01*
X124865000Y-98425766D01*
X125037793Y-98842926D01*
X125357074Y-99162207D01*
X125774234Y-99335000D01*
X126225766Y-99335000D01*
X126642926Y-99162207D01*
X126962207Y-98842926D01*
X127135000Y-98425766D01*
X127135000Y-97974234D01*
X126962207Y-97557074D01*
X126642926Y-97237793D01*
X126225766Y-97065000D01*
X125774234Y-97065000D01*
X125357074Y-97237793D01*
X125037793Y-97557074D01*
X124865000Y-97974234D01*
X124207412Y-97974234D01*
X124084586Y-97790414D01*
X124083403Y-97789623D01*
X124238327Y-97634698D01*
X124335000Y-97401309D01*
X124335000Y-96985750D01*
X124176250Y-96827000D01*
X123127000Y-96827000D01*
X123127000Y-96847000D01*
X122873000Y-96847000D01*
X122873000Y-96827000D01*
X122853000Y-96827000D01*
X122853000Y-96573000D01*
X122873000Y-96573000D01*
X122873000Y-96553000D01*
X123127000Y-96553000D01*
X123127000Y-96573000D01*
X124176250Y-96573000D01*
X124335000Y-96414250D01*
X124335000Y-96183372D01*
X127355742Y-96183372D01*
X127538000Y-96365631D01*
X127538000Y-96365631D01*
G37*
X127538000Y-96365631D02*
X127538001Y-99251841D01*
X126324843Y-100465000D01*
X126213853Y-100465000D01*
X126047086Y-100215414D01*
X125755935Y-100020874D01*
X125412500Y-99952560D01*
X124587500Y-99952560D01*
X124244065Y-100020874D01*
X124037500Y-100158896D01*
X123830935Y-100020874D01*
X123785000Y-100011737D01*
X123785000Y-99905805D01*
X123793436Y-99904127D01*
X124084586Y-99709586D01*
X124279127Y-99418436D01*
X124347440Y-99075001D01*
X124347440Y-98424999D01*
X124279127Y-98081564D01*
X124207412Y-97974234D01*
X124865000Y-97974234D01*
X124865000Y-98425766D01*
X125037793Y-98842926D01*
X125357074Y-99162207D01*
X125774234Y-99335000D01*
X126225766Y-99335000D01*
X126642926Y-99162207D01*
X126962207Y-98842926D01*
X127135000Y-98425766D01*
X127135000Y-97974234D01*
X126962207Y-97557074D01*
X126642926Y-97237793D01*
X126225766Y-97065000D01*
X125774234Y-97065000D01*
X125357074Y-97237793D01*
X125037793Y-97557074D01*
X124865000Y-97974234D01*
X124207412Y-97974234D01*
X124084586Y-97790414D01*
X124083403Y-97789623D01*
X124238327Y-97634698D01*
X124335000Y-97401309D01*
X124335000Y-96985750D01*
X124176250Y-96827000D01*
X123127000Y-96827000D01*
X123127000Y-96847000D01*
X122873000Y-96847000D01*
X122873000Y-96827000D01*
X122853000Y-96827000D01*
X122853000Y-96573000D01*
X122873000Y-96573000D01*
X122873000Y-96553000D01*
X123127000Y-96553000D01*
X123127000Y-96573000D01*
X124176250Y-96573000D01*
X124335000Y-96414250D01*
X124335000Y-96183372D01*
X127355742Y-96183372D01*
X127538000Y-96365631D01*
G36*
X127735181Y-79530750D02*
X127915001Y-79566518D01*
X127915000Y-87604132D01*
X127517717Y-88001415D01*
X127496793Y-88015396D01*
X127675000Y-87585167D01*
X127675000Y-86914833D01*
X127418474Y-86295524D01*
X126944476Y-85821526D01*
X126325167Y-85565000D01*
X125654833Y-85565000D01*
X125035524Y-85821526D01*
X125005006Y-85852044D01*
X124995579Y-85634542D01*
X124815953Y-85200884D01*
X124562060Y-85117545D01*
X123679605Y-86000000D01*
X123693748Y-86014143D01*
X123514143Y-86193748D01*
X123500000Y-86179605D01*
X122617545Y-87062060D01*
X122700884Y-87315953D01*
X123265306Y-87521590D01*
X123865458Y-87495579D01*
X124299116Y-87315953D01*
X124305000Y-87298027D01*
X124305000Y-87585167D01*
X124561526Y-88204476D01*
X125035524Y-88678474D01*
X125654833Y-88935000D01*
X126325167Y-88935000D01*
X126944476Y-88678474D01*
X127254683Y-88368267D01*
X127198643Y-88650000D01*
X127215001Y-88732238D01*
X127215000Y-90167767D01*
X127198643Y-90250000D01*
X127215000Y-90332233D01*
X127215000Y-90332236D01*
X127263448Y-90575800D01*
X127447999Y-90852001D01*
X127517720Y-90898587D01*
X128184132Y-91565000D01*
X127900158Y-91565000D01*
X126334749Y-89999592D01*
X126290953Y-89934047D01*
X126231532Y-89894343D01*
X126204126Y-89756565D01*
X126009586Y-89465414D01*
X125718435Y-89270874D01*
X125375000Y-89202560D01*
X124550000Y-89202560D01*
X124206565Y-89270874D01*
X124000000Y-89408896D01*
X123793435Y-89270874D01*
X123450000Y-89202560D01*
X122625000Y-89202560D01*
X122281565Y-89270874D01*
X122210000Y-89318692D01*
X122210000Y-86807635D01*
X122437940Y-86882455D01*
X123320395Y-86000000D01*
X122437940Y-85117545D01*
X122210000Y-85192365D01*
X122210000Y-84937940D01*
X122617545Y-84937940D01*
X123500000Y-85820395D01*
X124382455Y-84937940D01*
X124299116Y-84684047D01*
X123734694Y-84478410D01*
X123134542Y-84504421D01*
X122700884Y-84684047D01*
X122617545Y-84937940D01*
X122210000Y-84937940D01*
X122210000Y-82331484D01*
X122219884Y-82355346D01*
X122644654Y-82780116D01*
X123199642Y-83010000D01*
X123800358Y-83010000D01*
X124355346Y-82780116D01*
X124780116Y-82355346D01*
X125010000Y-81800358D01*
X125010000Y-81642950D01*
X125035524Y-81668474D01*
X125654833Y-81925000D01*
X126325167Y-81925000D01*
X126944476Y-81668474D01*
X127418474Y-81194476D01*
X127675000Y-80575167D01*
X127675000Y-79904833D01*
X127437723Y-79331995D01*
X127735181Y-79530750D01*
X127735181Y-79530750D01*
G37*
X127735181Y-79530750D02*
X127915001Y-79566518D01*
X127915000Y-87604132D01*
X127517717Y-88001415D01*
X127496793Y-88015396D01*
X127675000Y-87585167D01*
X127675000Y-86914833D01*
X127418474Y-86295524D01*
X126944476Y-85821526D01*
X126325167Y-85565000D01*
X125654833Y-85565000D01*
X125035524Y-85821526D01*
X125005006Y-85852044D01*
X124995579Y-85634542D01*
X124815953Y-85200884D01*
X124562060Y-85117545D01*
X123679605Y-86000000D01*
X123693748Y-86014143D01*
X123514143Y-86193748D01*
X123500000Y-86179605D01*
X122617545Y-87062060D01*
X122700884Y-87315953D01*
X123265306Y-87521590D01*
X123865458Y-87495579D01*
X124299116Y-87315953D01*
X124305000Y-87298027D01*
X124305000Y-87585167D01*
X124561526Y-88204476D01*
X125035524Y-88678474D01*
X125654833Y-88935000D01*
X126325167Y-88935000D01*
X126944476Y-88678474D01*
X127254683Y-88368267D01*
X127198643Y-88650000D01*
X127215001Y-88732238D01*
X127215000Y-90167767D01*
X127198643Y-90250000D01*
X127215000Y-90332233D01*
X127215000Y-90332236D01*
X127263448Y-90575800D01*
X127447999Y-90852001D01*
X127517720Y-90898587D01*
X128184132Y-91565000D01*
X127900158Y-91565000D01*
X126334749Y-89999592D01*
X126290953Y-89934047D01*
X126231532Y-89894343D01*
X126204126Y-89756565D01*
X126009586Y-89465414D01*
X125718435Y-89270874D01*
X125375000Y-89202560D01*
X124550000Y-89202560D01*
X124206565Y-89270874D01*
X124000000Y-89408896D01*
X123793435Y-89270874D01*
X123450000Y-89202560D01*
X122625000Y-89202560D01*
X122281565Y-89270874D01*
X122210000Y-89318692D01*
X122210000Y-86807635D01*
X122437940Y-86882455D01*
X123320395Y-86000000D01*
X122437940Y-85117545D01*
X122210000Y-85192365D01*
X122210000Y-84937940D01*
X122617545Y-84937940D01*
X123500000Y-85820395D01*
X124382455Y-84937940D01*
X124299116Y-84684047D01*
X123734694Y-84478410D01*
X123134542Y-84504421D01*
X122700884Y-84684047D01*
X122617545Y-84937940D01*
X122210000Y-84937940D01*
X122210000Y-82331484D01*
X122219884Y-82355346D01*
X122644654Y-82780116D01*
X123199642Y-83010000D01*
X123800358Y-83010000D01*
X124355346Y-82780116D01*
X124780116Y-82355346D01*
X125010000Y-81800358D01*
X125010000Y-81642950D01*
X125035524Y-81668474D01*
X125654833Y-81925000D01*
X126325167Y-81925000D01*
X126944476Y-81668474D01*
X127418474Y-81194476D01*
X127675000Y-80575167D01*
X127675000Y-79904833D01*
X127437723Y-79331995D01*
X127735181Y-79530750D01*
G36*
X141776486Y-27792014D02*
X141442014Y-28126486D01*
X141261000Y-28563493D01*
X141261000Y-29036507D01*
X141442014Y-29473514D01*
X141776486Y-29807986D01*
X142213493Y-29989000D01*
X142426657Y-29989000D01*
X142657914Y-30035000D01*
X142749999Y-30053317D01*
X142842085Y-30035000D01*
X143052560Y-30035000D01*
X143052560Y-30565000D01*
X142892086Y-30565000D01*
X142800000Y-30546683D01*
X142707914Y-30565000D01*
X142435181Y-30619250D01*
X142125903Y-30825903D01*
X142073741Y-30903969D01*
X141566711Y-31411000D01*
X141463493Y-31411000D01*
X141026486Y-31592014D01*
X140692014Y-31926486D01*
X140511000Y-32363493D01*
X140511000Y-32836507D01*
X140692014Y-33273514D01*
X141026486Y-33607986D01*
X141463493Y-33789000D01*
X141936507Y-33789000D01*
X142373514Y-33607986D01*
X142707986Y-33273514D01*
X142889000Y-32836507D01*
X142889000Y-32733289D01*
X143052560Y-32569730D01*
X143052560Y-33000000D01*
X143101843Y-33247765D01*
X143242191Y-33457809D01*
X143452235Y-33598157D01*
X143700000Y-33647440D01*
X144238000Y-33647440D01*
X144238000Y-34424957D01*
X144223073Y-34500000D01*
X144238000Y-34575043D01*
X144238000Y-34575047D01*
X144282212Y-34797316D01*
X144450629Y-35049371D01*
X144514253Y-35091883D01*
X145364251Y-35941882D01*
X145364254Y-35941884D01*
X146758118Y-37335749D01*
X146800629Y-37399371D01*
X146864251Y-37441882D01*
X147052681Y-37567787D01*
X147052682Y-37567787D01*
X147052683Y-37567788D01*
X147274952Y-37612000D01*
X147274956Y-37612000D01*
X147349999Y-37626927D01*
X147425042Y-37612000D01*
X150488001Y-37612000D01*
X150488000Y-38384370D01*
X150484370Y-38388000D01*
X149775047Y-38388000D01*
X149700000Y-38373072D01*
X149624953Y-38388000D01*
X149624952Y-38388000D01*
X149402683Y-38432212D01*
X149150629Y-38600629D01*
X149108118Y-38664251D01*
X147464251Y-40308119D01*
X147400630Y-40350629D01*
X147358119Y-40414251D01*
X147358118Y-40414252D01*
X147232213Y-40602683D01*
X147173073Y-40900000D01*
X147188001Y-40975048D01*
X147188000Y-43284369D01*
X140789000Y-49683370D01*
X140789000Y-49213493D01*
X140607986Y-48776486D01*
X140273514Y-48442014D01*
X139836507Y-48261000D01*
X139363493Y-48261000D01*
X138926486Y-48442014D01*
X138703500Y-48665000D01*
X131685000Y-48665000D01*
X131685000Y-40243974D01*
X131723690Y-40260000D01*
X132214250Y-40260000D01*
X132373000Y-40101250D01*
X132373000Y-39089500D01*
X132627000Y-39089500D01*
X132627000Y-40101250D01*
X132785750Y-40260000D01*
X133276310Y-40260000D01*
X133509699Y-40163327D01*
X133688327Y-39984698D01*
X133785000Y-39751309D01*
X133785000Y-39248250D01*
X133626250Y-39089500D01*
X132627000Y-39089500D01*
X132373000Y-39089500D01*
X132353000Y-39089500D01*
X132353000Y-38835500D01*
X132373000Y-38835500D01*
X132373000Y-38815500D01*
X132627000Y-38815500D01*
X132627000Y-38835500D01*
X133626250Y-38835500D01*
X133785000Y-38676750D01*
X133785000Y-38173691D01*
X133688327Y-37940302D01*
X133653958Y-37905933D01*
X133729126Y-37793435D01*
X133797440Y-37450000D01*
X133797440Y-36625000D01*
X133729126Y-36281565D01*
X133534586Y-35990414D01*
X133243435Y-35795874D01*
X132900000Y-35727560D01*
X132100000Y-35727560D01*
X131756565Y-35795874D01*
X131465414Y-35990414D01*
X131299706Y-36238415D01*
X131236699Y-36250948D01*
X130960499Y-36435499D01*
X130913914Y-36505218D01*
X130317718Y-37101415D01*
X130248000Y-37147999D01*
X130201416Y-37217717D01*
X130063448Y-37424200D01*
X129998643Y-37750000D01*
X130015001Y-37832238D01*
X130015000Y-49417763D01*
X129998642Y-49500000D01*
X130015001Y-49582242D01*
X130015000Y-54980267D01*
X129998643Y-55062500D01*
X130015000Y-55144733D01*
X130015000Y-55144736D01*
X130063448Y-55388300D01*
X130247999Y-55664501D01*
X130317720Y-55711087D01*
X131101414Y-56494782D01*
X131147999Y-56564501D01*
X131254396Y-56635593D01*
X131270874Y-56718435D01*
X131465414Y-57009586D01*
X131756565Y-57204126D01*
X132100000Y-57272440D01*
X132900000Y-57272440D01*
X133243435Y-57204126D01*
X133534586Y-57009586D01*
X133729126Y-56718435D01*
X133797440Y-56375000D01*
X133797440Y-55550000D01*
X133729126Y-55206565D01*
X133653958Y-55094067D01*
X133688327Y-55059698D01*
X133785000Y-54826309D01*
X133785000Y-54323250D01*
X133626250Y-54164500D01*
X132627000Y-54164500D01*
X132627000Y-54184500D01*
X132373000Y-54184500D01*
X132373000Y-54164500D01*
X132353000Y-54164500D01*
X132353000Y-53910500D01*
X132373000Y-53910500D01*
X132373000Y-52898750D01*
X132627000Y-52898750D01*
X132627000Y-53910500D01*
X133626250Y-53910500D01*
X133785000Y-53751750D01*
X133785000Y-53248691D01*
X133688327Y-53015302D01*
X133509699Y-52836673D01*
X133276310Y-52740000D01*
X132785750Y-52740000D01*
X132627000Y-52898750D01*
X132373000Y-52898750D01*
X132214250Y-52740000D01*
X131723690Y-52740000D01*
X131685000Y-52756026D01*
X131685000Y-50335000D01*
X138803500Y-50335000D01*
X138926486Y-50457986D01*
X139363493Y-50639000D01*
X139836507Y-50639000D01*
X140273514Y-50457986D01*
X140483396Y-50248104D01*
X140473073Y-50300000D01*
X140488001Y-50375048D01*
X140488000Y-57538000D01*
X139175042Y-57538000D01*
X139099999Y-57523073D01*
X139024956Y-57538000D01*
X139024952Y-57538000D01*
X138802683Y-57582212D01*
X138802682Y-57582213D01*
X138802681Y-57582213D01*
X138741530Y-57623073D01*
X138550629Y-57750629D01*
X138508118Y-57814251D01*
X136814253Y-59508117D01*
X136750629Y-59550629D01*
X136582212Y-59802683D01*
X136543973Y-59994922D01*
X134385000Y-62153896D01*
X134385000Y-61687289D01*
X136346031Y-59726259D01*
X136424097Y-59674097D01*
X136630750Y-59364819D01*
X136685000Y-59092086D01*
X136685000Y-59092083D01*
X136703316Y-59000001D01*
X136685000Y-58907919D01*
X136685000Y-57552934D01*
X137013493Y-57689000D01*
X137486507Y-57689000D01*
X137923514Y-57507986D01*
X138257986Y-57173514D01*
X138439000Y-56736507D01*
X138439000Y-56263493D01*
X138257986Y-55826486D01*
X137923514Y-55492014D01*
X137486507Y-55311000D01*
X137383289Y-55311000D01*
X137226257Y-55153967D01*
X137174096Y-55075904D01*
X137096032Y-55023743D01*
X136935000Y-54862711D01*
X136935000Y-53746500D01*
X137007986Y-53673514D01*
X137189000Y-53236507D01*
X137189000Y-52763493D01*
X137007986Y-52326486D01*
X136673514Y-51992014D01*
X136236507Y-51811000D01*
X135763493Y-51811000D01*
X135326486Y-51992014D01*
X134992014Y-52326486D01*
X134811000Y-52763493D01*
X134811000Y-53236507D01*
X134992014Y-53673514D01*
X135065001Y-53746501D01*
X135065000Y-55157914D01*
X135046683Y-55250000D01*
X135086466Y-55450001D01*
X135119250Y-55614818D01*
X135196812Y-55730899D01*
X135153970Y-55773741D01*
X135075904Y-55825903D01*
X135023742Y-55903969D01*
X135023741Y-55903970D01*
X134869250Y-56135182D01*
X134796683Y-56500000D01*
X134815001Y-56592090D01*
X134815000Y-58612710D01*
X132853970Y-60573741D01*
X132775904Y-60625903D01*
X132723742Y-60703969D01*
X132723741Y-60703970D01*
X132569250Y-60935182D01*
X132496683Y-61300000D01*
X132515001Y-61392090D01*
X132515000Y-61962710D01*
X132195857Y-62281853D01*
X132385000Y-61825222D01*
X132385000Y-61174778D01*
X132136086Y-60573847D01*
X131676153Y-60113914D01*
X131075222Y-59865000D01*
X130424778Y-59865000D01*
X129823847Y-60113914D01*
X129363914Y-60573847D01*
X129115000Y-61174778D01*
X129115000Y-61825222D01*
X129363914Y-62426153D01*
X129823847Y-62886086D01*
X130376494Y-63115000D01*
X129942086Y-63115000D01*
X129850000Y-63096683D01*
X129757914Y-63115000D01*
X129485181Y-63169250D01*
X129175903Y-63375903D01*
X129123739Y-63453972D01*
X126553970Y-66023741D01*
X126475904Y-66075903D01*
X126423742Y-66153969D01*
X126423741Y-66153970D01*
X126269250Y-66385182D01*
X126238359Y-66540483D01*
X126198024Y-66285819D01*
X125869751Y-65641547D01*
X125438204Y-65210000D01*
X125930075Y-65210000D01*
X126000000Y-65223909D01*
X126277028Y-65168805D01*
X126511881Y-65011881D01*
X126668805Y-64777028D01*
X126710000Y-64569926D01*
X126723909Y-64500000D01*
X126710000Y-64430074D01*
X126710000Y-62198071D01*
X126735000Y-62072388D01*
X126735000Y-54171198D01*
X126824500Y-54189000D01*
X127000000Y-54223909D01*
X127069925Y-54210000D01*
X128430075Y-54210000D01*
X128500000Y-54223909D01*
X128675501Y-54189000D01*
X128777028Y-54168805D01*
X129011881Y-54011881D01*
X129168805Y-53777028D01*
X129223909Y-53500000D01*
X129210000Y-53430074D01*
X129210000Y-49569926D01*
X129223909Y-49500000D01*
X129168805Y-49222972D01*
X129011881Y-48988119D01*
X128777028Y-48831195D01*
X128569926Y-48790000D01*
X128569925Y-48790000D01*
X128500000Y-48776091D01*
X128430074Y-48790000D01*
X127069926Y-48790000D01*
X127000000Y-48776091D01*
X126930075Y-48790000D01*
X126930074Y-48790000D01*
X126722972Y-48831195D01*
X126710000Y-48839863D01*
X126710000Y-42198071D01*
X126735000Y-42072388D01*
X126735000Y-34171198D01*
X127000000Y-34223909D01*
X127069925Y-34210000D01*
X128430075Y-34210000D01*
X128500000Y-34223909D01*
X128777028Y-34168805D01*
X129011881Y-34011881D01*
X129168805Y-33777028D01*
X129210000Y-33569926D01*
X129210000Y-33569925D01*
X129223909Y-33500000D01*
X129210000Y-33430074D01*
X129210000Y-29569926D01*
X129223909Y-29500000D01*
X129204385Y-29401843D01*
X129168805Y-29222972D01*
X129151203Y-29196629D01*
X129011881Y-28988119D01*
X128777028Y-28831195D01*
X128569926Y-28790000D01*
X128569925Y-28790000D01*
X128500000Y-28776091D01*
X128430074Y-28790000D01*
X127069926Y-28790000D01*
X127000000Y-28776091D01*
X126930075Y-28790000D01*
X126930074Y-28790000D01*
X126741959Y-28827418D01*
X126768803Y-28639973D01*
X126919338Y-28308890D01*
X127156749Y-28033361D01*
X127461944Y-27835544D01*
X127833917Y-27724300D01*
X128026348Y-27710000D01*
X141974486Y-27710000D01*
X141776486Y-27792014D01*
X141776486Y-27792014D01*
G37*
X141776486Y-27792014D02*
X141442014Y-28126486D01*
X141261000Y-28563493D01*
X141261000Y-29036507D01*
X141442014Y-29473514D01*
X141776486Y-29807986D01*
X142213493Y-29989000D01*
X142426657Y-29989000D01*
X142657914Y-30035000D01*
X142749999Y-30053317D01*
X142842085Y-30035000D01*
X143052560Y-30035000D01*
X143052560Y-30565000D01*
X142892086Y-30565000D01*
X142800000Y-30546683D01*
X142707914Y-30565000D01*
X142435181Y-30619250D01*
X142125903Y-30825903D01*
X142073741Y-30903969D01*
X141566711Y-31411000D01*
X141463493Y-31411000D01*
X141026486Y-31592014D01*
X140692014Y-31926486D01*
X140511000Y-32363493D01*
X140511000Y-32836507D01*
X140692014Y-33273514D01*
X141026486Y-33607986D01*
X141463493Y-33789000D01*
X141936507Y-33789000D01*
X142373514Y-33607986D01*
X142707986Y-33273514D01*
X142889000Y-32836507D01*
X142889000Y-32733289D01*
X143052560Y-32569730D01*
X143052560Y-33000000D01*
X143101843Y-33247765D01*
X143242191Y-33457809D01*
X143452235Y-33598157D01*
X143700000Y-33647440D01*
X144238000Y-33647440D01*
X144238000Y-34424957D01*
X144223073Y-34500000D01*
X144238000Y-34575043D01*
X144238000Y-34575047D01*
X144282212Y-34797316D01*
X144450629Y-35049371D01*
X144514253Y-35091883D01*
X145364251Y-35941882D01*
X145364254Y-35941884D01*
X146758118Y-37335749D01*
X146800629Y-37399371D01*
X146864251Y-37441882D01*
X147052681Y-37567787D01*
X147052682Y-37567787D01*
X147052683Y-37567788D01*
X147274952Y-37612000D01*
X147274956Y-37612000D01*
X147349999Y-37626927D01*
X147425042Y-37612000D01*
X150488001Y-37612000D01*
X150488000Y-38384370D01*
X150484370Y-38388000D01*
X149775047Y-38388000D01*
X149700000Y-38373072D01*
X149624953Y-38388000D01*
X149624952Y-38388000D01*
X149402683Y-38432212D01*
X149150629Y-38600629D01*
X149108118Y-38664251D01*
X147464251Y-40308119D01*
X147400630Y-40350629D01*
X147358119Y-40414251D01*
X147358118Y-40414252D01*
X147232213Y-40602683D01*
X147173073Y-40900000D01*
X147188001Y-40975048D01*
X147188000Y-43284369D01*
X140789000Y-49683370D01*
X140789000Y-49213493D01*
X140607986Y-48776486D01*
X140273514Y-48442014D01*
X139836507Y-48261000D01*
X139363493Y-48261000D01*
X138926486Y-48442014D01*
X138703500Y-48665000D01*
X131685000Y-48665000D01*
X131685000Y-40243974D01*
X131723690Y-40260000D01*
X132214250Y-40260000D01*
X132373000Y-40101250D01*
X132373000Y-39089500D01*
X132627000Y-39089500D01*
X132627000Y-40101250D01*
X132785750Y-40260000D01*
X133276310Y-40260000D01*
X133509699Y-40163327D01*
X133688327Y-39984698D01*
X133785000Y-39751309D01*
X133785000Y-39248250D01*
X133626250Y-39089500D01*
X132627000Y-39089500D01*
X132373000Y-39089500D01*
X132353000Y-39089500D01*
X132353000Y-38835500D01*
X132373000Y-38835500D01*
X132373000Y-38815500D01*
X132627000Y-38815500D01*
X132627000Y-38835500D01*
X133626250Y-38835500D01*
X133785000Y-38676750D01*
X133785000Y-38173691D01*
X133688327Y-37940302D01*
X133653958Y-37905933D01*
X133729126Y-37793435D01*
X133797440Y-37450000D01*
X133797440Y-36625000D01*
X133729126Y-36281565D01*
X133534586Y-35990414D01*
X133243435Y-35795874D01*
X132900000Y-35727560D01*
X132100000Y-35727560D01*
X131756565Y-35795874D01*
X131465414Y-35990414D01*
X131299706Y-36238415D01*
X131236699Y-36250948D01*
X130960499Y-36435499D01*
X130913914Y-36505218D01*
X130317718Y-37101415D01*
X130248000Y-37147999D01*
X130201416Y-37217717D01*
X130063448Y-37424200D01*
X129998643Y-37750000D01*
X130015001Y-37832238D01*
X130015000Y-49417763D01*
X129998642Y-49500000D01*
X130015001Y-49582242D01*
X130015000Y-54980267D01*
X129998643Y-55062500D01*
X130015000Y-55144733D01*
X130015000Y-55144736D01*
X130063448Y-55388300D01*
X130247999Y-55664501D01*
X130317720Y-55711087D01*
X131101414Y-56494782D01*
X131147999Y-56564501D01*
X131254396Y-56635593D01*
X131270874Y-56718435D01*
X131465414Y-57009586D01*
X131756565Y-57204126D01*
X132100000Y-57272440D01*
X132900000Y-57272440D01*
X133243435Y-57204126D01*
X133534586Y-57009586D01*
X133729126Y-56718435D01*
X133797440Y-56375000D01*
X133797440Y-55550000D01*
X133729126Y-55206565D01*
X133653958Y-55094067D01*
X133688327Y-55059698D01*
X133785000Y-54826309D01*
X133785000Y-54323250D01*
X133626250Y-54164500D01*
X132627000Y-54164500D01*
X132627000Y-54184500D01*
X132373000Y-54184500D01*
X132373000Y-54164500D01*
X132353000Y-54164500D01*
X132353000Y-53910500D01*
X132373000Y-53910500D01*
X132373000Y-52898750D01*
X132627000Y-52898750D01*
X132627000Y-53910500D01*
X133626250Y-53910500D01*
X133785000Y-53751750D01*
X133785000Y-53248691D01*
X133688327Y-53015302D01*
X133509699Y-52836673D01*
X133276310Y-52740000D01*
X132785750Y-52740000D01*
X132627000Y-52898750D01*
X132373000Y-52898750D01*
X132214250Y-52740000D01*
X131723690Y-52740000D01*
X131685000Y-52756026D01*
X131685000Y-50335000D01*
X138803500Y-50335000D01*
X138926486Y-50457986D01*
X139363493Y-50639000D01*
X139836507Y-50639000D01*
X140273514Y-50457986D01*
X140483396Y-50248104D01*
X140473073Y-50300000D01*
X140488001Y-50375048D01*
X140488000Y-57538000D01*
X139175042Y-57538000D01*
X139099999Y-57523073D01*
X139024956Y-57538000D01*
X139024952Y-57538000D01*
X138802683Y-57582212D01*
X138802682Y-57582213D01*
X138802681Y-57582213D01*
X138741530Y-57623073D01*
X138550629Y-57750629D01*
X138508118Y-57814251D01*
X136814253Y-59508117D01*
X136750629Y-59550629D01*
X136582212Y-59802683D01*
X136543973Y-59994922D01*
X134385000Y-62153896D01*
X134385000Y-61687289D01*
X136346031Y-59726259D01*
X136424097Y-59674097D01*
X136630750Y-59364819D01*
X136685000Y-59092086D01*
X136685000Y-59092083D01*
X136703316Y-59000001D01*
X136685000Y-58907919D01*
X136685000Y-57552934D01*
X137013493Y-57689000D01*
X137486507Y-57689000D01*
X137923514Y-57507986D01*
X138257986Y-57173514D01*
X138439000Y-56736507D01*
X138439000Y-56263493D01*
X138257986Y-55826486D01*
X137923514Y-55492014D01*
X137486507Y-55311000D01*
X137383289Y-55311000D01*
X137226257Y-55153967D01*
X137174096Y-55075904D01*
X137096032Y-55023743D01*
X136935000Y-54862711D01*
X136935000Y-53746500D01*
X137007986Y-53673514D01*
X137189000Y-53236507D01*
X137189000Y-52763493D01*
X137007986Y-52326486D01*
X136673514Y-51992014D01*
X136236507Y-51811000D01*
X135763493Y-51811000D01*
X135326486Y-51992014D01*
X134992014Y-52326486D01*
X134811000Y-52763493D01*
X134811000Y-53236507D01*
X134992014Y-53673514D01*
X135065001Y-53746501D01*
X135065000Y-55157914D01*
X135046683Y-55250000D01*
X135086466Y-55450001D01*
X135119250Y-55614818D01*
X135196812Y-55730899D01*
X135153970Y-55773741D01*
X135075904Y-55825903D01*
X135023742Y-55903969D01*
X135023741Y-55903970D01*
X134869250Y-56135182D01*
X134796683Y-56500000D01*
X134815001Y-56592090D01*
X134815000Y-58612710D01*
X132853970Y-60573741D01*
X132775904Y-60625903D01*
X132723742Y-60703969D01*
X132723741Y-60703970D01*
X132569250Y-60935182D01*
X132496683Y-61300000D01*
X132515001Y-61392090D01*
X132515000Y-61962710D01*
X132195857Y-62281853D01*
X132385000Y-61825222D01*
X132385000Y-61174778D01*
X132136086Y-60573847D01*
X131676153Y-60113914D01*
X131075222Y-59865000D01*
X130424778Y-59865000D01*
X129823847Y-60113914D01*
X129363914Y-60573847D01*
X129115000Y-61174778D01*
X129115000Y-61825222D01*
X129363914Y-62426153D01*
X129823847Y-62886086D01*
X130376494Y-63115000D01*
X129942086Y-63115000D01*
X129850000Y-63096683D01*
X129757914Y-63115000D01*
X129485181Y-63169250D01*
X129175903Y-63375903D01*
X129123739Y-63453972D01*
X126553970Y-66023741D01*
X126475904Y-66075903D01*
X126423742Y-66153969D01*
X126423741Y-66153970D01*
X126269250Y-66385182D01*
X126238359Y-66540483D01*
X126198024Y-66285819D01*
X125869751Y-65641547D01*
X125438204Y-65210000D01*
X125930075Y-65210000D01*
X126000000Y-65223909D01*
X126277028Y-65168805D01*
X126511881Y-65011881D01*
X126668805Y-64777028D01*
X126710000Y-64569926D01*
X126723909Y-64500000D01*
X126710000Y-64430074D01*
X126710000Y-62198071D01*
X126735000Y-62072388D01*
X126735000Y-54171198D01*
X126824500Y-54189000D01*
X127000000Y-54223909D01*
X127069925Y-54210000D01*
X128430075Y-54210000D01*
X128500000Y-54223909D01*
X128675501Y-54189000D01*
X128777028Y-54168805D01*
X129011881Y-54011881D01*
X129168805Y-53777028D01*
X129223909Y-53500000D01*
X129210000Y-53430074D01*
X129210000Y-49569926D01*
X129223909Y-49500000D01*
X129168805Y-49222972D01*
X129011881Y-48988119D01*
X128777028Y-48831195D01*
X128569926Y-48790000D01*
X128569925Y-48790000D01*
X128500000Y-48776091D01*
X128430074Y-48790000D01*
X127069926Y-48790000D01*
X127000000Y-48776091D01*
X126930075Y-48790000D01*
X126930074Y-48790000D01*
X126722972Y-48831195D01*
X126710000Y-48839863D01*
X126710000Y-42198071D01*
X126735000Y-42072388D01*
X126735000Y-34171198D01*
X127000000Y-34223909D01*
X127069925Y-34210000D01*
X128430075Y-34210000D01*
X128500000Y-34223909D01*
X128777028Y-34168805D01*
X129011881Y-34011881D01*
X129168805Y-33777028D01*
X129210000Y-33569926D01*
X129210000Y-33569925D01*
X129223909Y-33500000D01*
X129210000Y-33430074D01*
X129210000Y-29569926D01*
X129223909Y-29500000D01*
X129204385Y-29401843D01*
X129168805Y-29222972D01*
X129151203Y-29196629D01*
X129011881Y-28988119D01*
X128777028Y-28831195D01*
X128569926Y-28790000D01*
X128569925Y-28790000D01*
X128500000Y-28776091D01*
X128430074Y-28790000D01*
X127069926Y-28790000D01*
X127000000Y-28776091D01*
X126930075Y-28790000D01*
X126930074Y-28790000D01*
X126741959Y-28827418D01*
X126768803Y-28639973D01*
X126919338Y-28308890D01*
X127156749Y-28033361D01*
X127461944Y-27835544D01*
X127833917Y-27724300D01*
X128026348Y-27710000D01*
X141974486Y-27710000D01*
X141776486Y-27792014D01*
G36*
X151610311Y-27593527D02*
X151722972Y-27668805D01*
X152000000Y-27723909D01*
X152069925Y-27710000D01*
X153320190Y-27710000D01*
X153314620Y-27738000D01*
X152321042Y-27738000D01*
X152245999Y-27723073D01*
X152170956Y-27738000D01*
X152170952Y-27738000D01*
X151948683Y-27782212D01*
X151857896Y-27842874D01*
X151801799Y-27880357D01*
X151696629Y-27950629D01*
X151654118Y-28014251D01*
X150514251Y-29154119D01*
X150450630Y-29196629D01*
X150408119Y-29260251D01*
X150408118Y-29260252D01*
X150338128Y-29365000D01*
X150285750Y-29365000D01*
X150127000Y-29523750D01*
X150127000Y-29714585D01*
X150101843Y-29752235D01*
X150052560Y-30000000D01*
X150052560Y-33000000D01*
X150101843Y-33247765D01*
X150127000Y-33285415D01*
X150127000Y-33476250D01*
X150285750Y-33635000D01*
X150426309Y-33635000D01*
X150494811Y-33606626D01*
X150700000Y-33647440D01*
X150774929Y-33647440D01*
X149984370Y-34438000D01*
X148815631Y-34438000D01*
X148762000Y-34384370D01*
X148762000Y-33647440D01*
X149300000Y-33647440D01*
X149505189Y-33606626D01*
X149573691Y-33635000D01*
X149714250Y-33635000D01*
X149873000Y-33476250D01*
X149873000Y-33285415D01*
X149898157Y-33247765D01*
X149947440Y-33000000D01*
X149947440Y-30000000D01*
X149898157Y-29752235D01*
X149873000Y-29714585D01*
X149873000Y-29523750D01*
X149835000Y-29485750D01*
X149835000Y-29082232D01*
X149851357Y-28999999D01*
X149835000Y-28917766D01*
X149835000Y-28917763D01*
X149786552Y-28674199D01*
X149602001Y-28397999D01*
X149532280Y-28351413D01*
X149348587Y-28167720D01*
X149302001Y-28097999D01*
X149025801Y-27913448D01*
X148782237Y-27865000D01*
X148782233Y-27865000D01*
X148700000Y-27848643D01*
X148617767Y-27865000D01*
X144482232Y-27865000D01*
X144399999Y-27848643D01*
X144317766Y-27865000D01*
X144317763Y-27865000D01*
X144074199Y-27913448D01*
X143797999Y-28097999D01*
X143753230Y-28165000D01*
X143473939Y-28165000D01*
X143457986Y-28126486D01*
X143123514Y-27792014D01*
X142925514Y-27710000D01*
X143930074Y-27710000D01*
X144000000Y-27723909D01*
X144069925Y-27710000D01*
X144069926Y-27710000D01*
X144277028Y-27668805D01*
X144500000Y-27519820D01*
X144722972Y-27668805D01*
X144930074Y-27710000D01*
X144930075Y-27710000D01*
X145000000Y-27723909D01*
X145069926Y-27710000D01*
X150930075Y-27710000D01*
X151000000Y-27723909D01*
X151277028Y-27668805D01*
X151500000Y-27519820D01*
X151610311Y-27593527D01*
X151610311Y-27593527D01*
G37*
X151610311Y-27593527D02*
X151722972Y-27668805D01*
X152000000Y-27723909D01*
X152069925Y-27710000D01*
X153320190Y-27710000D01*
X153314620Y-27738000D01*
X152321042Y-27738000D01*
X152245999Y-27723073D01*
X152170956Y-27738000D01*
X152170952Y-27738000D01*
X151948683Y-27782212D01*
X151857896Y-27842874D01*
X151801799Y-27880357D01*
X151696629Y-27950629D01*
X151654118Y-28014251D01*
X150514251Y-29154119D01*
X150450630Y-29196629D01*
X150408119Y-29260251D01*
X150408118Y-29260252D01*
X150338128Y-29365000D01*
X150285750Y-29365000D01*
X150127000Y-29523750D01*
X150127000Y-29714585D01*
X150101843Y-29752235D01*
X150052560Y-30000000D01*
X150052560Y-33000000D01*
X150101843Y-33247765D01*
X150127000Y-33285415D01*
X150127000Y-33476250D01*
X150285750Y-33635000D01*
X150426309Y-33635000D01*
X150494811Y-33606626D01*
X150700000Y-33647440D01*
X150774929Y-33647440D01*
X149984370Y-34438000D01*
X148815631Y-34438000D01*
X148762000Y-34384370D01*
X148762000Y-33647440D01*
X149300000Y-33647440D01*
X149505189Y-33606626D01*
X149573691Y-33635000D01*
X149714250Y-33635000D01*
X149873000Y-33476250D01*
X149873000Y-33285415D01*
X149898157Y-33247765D01*
X149947440Y-33000000D01*
X149947440Y-30000000D01*
X149898157Y-29752235D01*
X149873000Y-29714585D01*
X149873000Y-29523750D01*
X149835000Y-29485750D01*
X149835000Y-29082232D01*
X149851357Y-28999999D01*
X149835000Y-28917766D01*
X149835000Y-28917763D01*
X149786552Y-28674199D01*
X149602001Y-28397999D01*
X149532280Y-28351413D01*
X149348587Y-28167720D01*
X149302001Y-28097999D01*
X149025801Y-27913448D01*
X148782237Y-27865000D01*
X148782233Y-27865000D01*
X148700000Y-27848643D01*
X148617767Y-27865000D01*
X144482232Y-27865000D01*
X144399999Y-27848643D01*
X144317766Y-27865000D01*
X144317763Y-27865000D01*
X144074199Y-27913448D01*
X143797999Y-28097999D01*
X143753230Y-28165000D01*
X143473939Y-28165000D01*
X143457986Y-28126486D01*
X143123514Y-27792014D01*
X142925514Y-27710000D01*
X143930074Y-27710000D01*
X144000000Y-27723909D01*
X144069925Y-27710000D01*
X144069926Y-27710000D01*
X144277028Y-27668805D01*
X144500000Y-27519820D01*
X144722972Y-27668805D01*
X144930074Y-27710000D01*
X144930075Y-27710000D01*
X145000000Y-27723909D01*
X145069926Y-27710000D01*
X150930075Y-27710000D01*
X151000000Y-27723909D01*
X151277028Y-27668805D01*
X151500000Y-27519820D01*
X151610311Y-27593527D01*
G04 #@! TD*
M02*
