M48
;DRILL file {KiCad (5.0.0)} date 12/21/19 17:29:28
;FORMAT={-:-/ absolute / inch / decimal}
FMAT,2
INCH,TZ
T1C0.0394
T2C0.0591
%
G90
G05
M72
T1
X6.0413Y-4.0492
X6.3563Y-4.0492
X4.9606Y-3.6929
X4.9606Y-3.8661
T2
X5.0295Y-1.1909
X5.0295Y-1.2106
X5.0295Y-1.2402
X5.0295Y-1.2598
X5.0295Y-1.2894
X5.0295Y-1.9783
X5.0295Y-1.998
X5.0295Y-2.0276
X5.0295Y-2.0472
X5.0295Y-2.0768
X6.624Y-1.1909
X6.624Y-1.2106
X6.624Y-1.2402
X6.624Y-1.2697
X6.624Y-1.2894
X6.624Y-1.9783
X6.624Y-2.0079
X6.624Y-2.0276
X6.624Y-2.0571
X6.624Y-2.0768
T0
M30
