M48
;DRILL file {KiCad (5.0.0)} date 12/21/19 17:29:28
;FORMAT={-:-/ absolute / inch / decimal}
FMAT,2
INCH,TZ
T1C0.0236
T2C0.0315
T3C0.0390
T4C0.0394
T5C0.0512
T6C0.0787
%
G90
G05
M72
T1
X4.9193Y-3.8012
X5.0433Y-4.0335
X5.0945Y-3.0709
X5.1024Y-3.5118
X5.1161Y-2.748
X5.1496Y-3.998
X5.1594Y-2.8543
X5.1732Y-2.748
X5.1752Y-3.7323
X5.185Y-3.5098
X5.2165Y-1.628
X5.2165Y-2.0354
X5.2165Y-2.8433
X5.2264Y-2.3386
X5.248Y-2.7441
X5.2539Y-2.6181
X5.2539Y-3.7402
X5.2559Y-3.9764
X5.3051Y-2.5059
X5.3169Y-2.8543
X5.3228Y-3.4685
X5.3268Y-3.0492
X5.3543Y-2.0866
X5.3661Y-2.5039
X5.3898Y-3.5354
X5.4035Y-2.2244
X5.4232Y-2.8543
X5.4252Y-2.4803
X5.4449Y-2.0217
X5.4567Y-3.7579
X5.4803Y-2.4587
X5.4921Y-2.7854
X5.4961Y-1.9469
X5.5256Y-2.4154
X5.5768Y-3.7638
X5.5787Y-1.2835
X5.5846Y-3.8268
X5.6083Y-1.1339
X5.624Y-3.2461
X5.6398Y-2.5315
X5.6614Y-2.878
X5.7126Y-2.7067
X5.7264Y-3.5571
X5.7283Y-3.5
X5.7283Y-3.6181
X5.7303Y-2.874
X5.7717Y-3.0965
X5.876Y-2.8051
X5.8819Y-1.3484
X5.9193Y-1.6673
X5.9961Y-1.5039
X6.0079Y-2.3425
X6.0374Y-1.435
X6.0374Y-2.4173
X6.0374Y-3.4567
X6.0394Y-1.5472
X6.0433Y-2.1634
X6.0492Y-1.6161
X6.0591Y-3.5374
X6.0669Y-2.4685
X6.122Y-3.3996
X6.124Y-2.4469
X6.128Y-3.1909
X6.1457Y-2.7933
X6.1496Y-3.5354
X6.1535Y-3.7382
X6.1752Y-2.4409
X6.1811Y-2.687
X6.2205Y-2.4665
X6.2362Y-3.5354
X6.2776Y-2.4429
X6.2776Y-3.4075
X6.2854Y-2.8169
X6.2972Y-2.5236
X6.3366Y-2.8445
X6.3484Y-2.7303
X6.3543Y-2.9685
X6.3563Y-2.002
X6.4055Y-1.9469
X6.437Y-1.622
X6.563Y-3.4055
T2
X5.7134Y-2.2441
X5.9055Y-2.2441
T3
X4.8622Y-3.2087
X4.8622Y-3.3858
X6.7913Y-3.2677
X6.7913Y-3.4449
X6.7913Y-2.8543
X6.7913Y-3.0315
X6.7913Y-3.6811
X6.7913Y-3.8583
T4
X5.0197Y-4.1339
X5.1181Y-4.1339
X6.2602Y-2.628
X6.3602Y-2.628
X6.4602Y-2.628
X6.5602Y-2.628
X5.6693Y-4.1339
X5.7677Y-4.1339
X5.3425Y-4.1339
X5.4409Y-4.1339
X5.6209Y-3.3445
X5.7209Y-3.3445
X5.8209Y-3.3445
X5.9209Y-3.3445
T5
X4.9602Y-3.1591
X4.9602Y-3.435
X6.6933Y-3.2185
X6.6933Y-3.4945
X6.6933Y-2.8051
X6.6933Y-3.0811
X6.6933Y-3.6319
X6.6933Y-3.9079
T6
X5.1476Y-2.4213
X6.5059Y-1.378
T0
M30
